<?xml version="1.0" standalone="no"?>
<!DOCTYPE svg PUBLIC "-//W3C//DTD SVG 1.1//EN" "http://www.w3.org/Graphics/SVG/1.1/DTD/svg11.dtd" >
<svg xmlns="http://www.w3.org/2000/svg">
<metadata></metadata>
<defs>
<font id="glowwormmncompressedregular" horiz-adv-x="682" >
<font-face units-per-em="2048" ascent="1638" descent="-410" />
<missing-glyph horiz-adv-x="500" />
<glyph horiz-adv-x="2048" />
<glyph horiz-adv-x="2048" />
<glyph unicode="&#xd;" />
<glyph unicode=" " />
<glyph unicode="!" horiz-adv-x="465" d="M82 150q0 31 12 58.5t32 48t47.5 32.5t57.5 12t57.5 -12t48.5 -33t33.5 -48.5t12.5 -57.5q0 -31 -12.5 -58.5t-33.5 -48t-48.5 -32t-57.5 -11.5q-31 0 -58.5 12t-47.5 33t-31.5 48t-11.5 57zM82 539v594q0 74 37 112.5t112 38.5q76 0 114 -38.5t38 -112.5v-594 q0 -150 -152 -150q-149 0 -149 150zM115 203q0 -16 10 -19.5t18 -3.5q4 0 9.5 5t11.5 11.5t12.5 14t13.5 12.5q10 8 11.5 11t1.5 16q0 8 -8 12t-19 4q-6 0 -16.5 -6.5t-20 -16.5t-17 -21t-7.5 -19zM119 1194q0 -4 0.5 -9.5t2 -10.5t5 -9t10.5 -4q9 0 15 4.5t11 11t10.5 14 t14.5 13.5q5 3 15 9.5t10 15.5q0 11 -7 17.5t-18 6.5t-23.5 -7t-22.5 -16.5t-16.5 -19.5t-6.5 -16z" />
<glyph unicode="&#x22;" horiz-adv-x="776" d="M82 1257v224q0 10 3.5 23t9.5 26.5t14.5 27t17.5 23.5q15 15 29.5 23.5t29.5 12.5t30.5 4.5t31.5 0.5q19 0 41.5 -11t42 -29t32.5 -41.5t13 -49.5v-236q0 -17 -8 -40.5t-26 -45t-48 -36.5t-74 -15q-20 0 -44 9.5t-45 27.5t-35.5 44t-14.5 58zM111 1520q0 -17 3 -25t23 -8 q6 0 10.5 5t8 12t6.5 13.5t6 10.5q3 5 14 15.5t11 21.5q0 9 -7 17.5t-16 8.5q-13 0 -24 -9.5t-18.5 -22t-12 -24t-4.5 -15.5zM399 1257v224q0 10 3.5 23t10 26.5t14.5 27t17 23.5q15 15 29.5 23.5t29.5 12.5t30.5 4.5t31.5 0.5q19 0 41.5 -11t42 -29t32.5 -41.5t13 -49.5 v-236q0 -17 -8 -40.5t-26 -45t-47.5 -36.5t-73.5 -15q-20 0 -44.5 9.5t-45.5 27.5t-35.5 44t-14.5 58zM428 1520q0 -17 3.5 -25t23.5 -8q6 0 10.5 5t7.5 12t6 13.5t6 10.5q3 5 14 15.5t11 21.5q0 9 -6.5 17.5t-16.5 8.5q-13 0 -23.5 -9.5t-18.5 -22t-12.5 -24t-4.5 -15.5z " />
<glyph unicode="#" horiz-adv-x="1296" d="M160 563l22 133h195l45 246h-195l23 133h194l52 291h139l-51 -291h219l51 291h139l-51 -291h195l-23 -133h-194l-43 -246h194l-24 -133h-195l-51 -291h-139l51 291h-219l-52 -291h-139l51 291h-194zM518 696h217l45 246h-219z" />
<glyph unicode="$" horiz-adv-x="1055" d="M104 342q0 35 12 62.5t31.5 47t44.5 30t50 10.5q32 0 60 -6t46 -33q20 -30 37.5 -58t37.5 -49t46 -34t63 -13t63.5 12.5t43.5 31.5t25 42.5t8 44.5q0 31 -16 60.5t-44 52.5q-22 18 -64 34t-91.5 36.5t-101 50t-93.5 75t-69 111.5t-27 160q0 46 13 93.5t40.5 91.5 t71.5 83.5t106 69.5v36q0 20 9 42t26.5 41t44 31.5t62.5 12.5q33 0 60 -11t45.5 -28.5t29 -38.5t10.5 -42v-43q102 -53 150.5 -106t48.5 -99q0 -38 -12.5 -67t-32 -49t-44.5 -30t-51 -10q-22 0 -40.5 5.5t-36.5 17.5t-38 31t-44 46q-10 11 -22.5 11h-26.5q-15 0 -31.5 -7 t-30 -20.5t-22.5 -33t-9 -44.5q0 -43 21.5 -66.5t59 -40.5t89 -34t111.5 -49q109 -57 167 -155t58 -218q0 -51 -12 -100t-34 -92.5t-53.5 -80.5t-70.5 -65q-21 -15 -47.5 -27.5t-46.5 -23.5v-98q0 -20 -10.5 -42.5t-30 -42.5t-47 -33t-61.5 -13q-22 0 -47 8.5t-46 25t-35 40 t-14 53.5v94q-80 38 -135 81t-89.5 84.5t-49.5 79t-15 64.5zM150 408q0 -19 11 -21.5t24.5 3t24.5 15.5t11 17q0 11 -4.5 21t-15.5 10q-23 0 -37 -15.5t-14 -29.5zM209 1116q0 -5 7 -9.5t13 -4.5q14 0 21 11t12 22q20 42 53 74.5t62 47.5q9 5 23 14.5t14 20.5t-4 20t-15 9 q-12 0 -30 -10t-39 -26.5t-41.5 -37.5t-37.5 -44t-27.5 -45.5t-10.5 -41.5zM430 1421q0 -8 6 -14t13 -6q8 0 19 8.5t22 19.5q12 12 26 27q0 11 -3 20t-17 9q-9 0 -20 -7t-21.5 -16.5t-17.5 -20.5t-7 -20zM578 260q0 -9 7.5 -18t16.5 -9q7 0 25.5 10.5t38 26.5t34.5 34.5 t15 33.5q0 8 -3.5 16t-11.5 8q-22 0 -27.5 -6t-13.5 -20q-9 -17 -23.5 -26t-25.5 -15t-21.5 -14.5t-10.5 -20.5z" />
<glyph unicode="%" horiz-adv-x="1022" d="M82 1102q0 52 20 100t54.5 84.5t81 58t100.5 21.5q56 0 104 -21t83.5 -55.5t56 -80t20.5 -93.5q0 -59 -21.5 -108t-57.5 -84t-82.5 -54.5t-96.5 -19.5q-61 0 -110 23t-82.5 59.5t-51.5 81.5t-18 88zM115 563q0 42 16.5 74t48.5 49l529 268q12 7 20.5 9t22.5 2 q38 0 67 -13t49 -34t30.5 -48.5t10.5 -56.5q0 -37 -17 -70.5t-42 -46.5l-522 -276q-10 -5 -22.5 -9.5t-26.5 -4.5q-39 0 -69.5 12.5t-51.5 34t-32 50t-11 60.5zM130 1193.5q-1 -12.5 3.5 -18.5t7.5 -6h13.5t8 2t6.5 7t7 14q12 24 24 39t22.5 24t19 13.5t12.5 7.5 q5 3 12.5 9.5t7.5 14.5q0 13 -8 19t-20 6q-17 0 -35.5 -17t-38.5 -38q-24 -26 -32.5 -45t-9.5 -31.5zM152 614q0 -18 10 -21.5t22.5 2.5t22.5 17t10 21q0 17 -6.5 23t-22.5 6q-3 0 -9 -5t-12 -12.5t-10.5 -16t-4.5 -14.5zM270 1108q0 -29 21 -52.5t53 -23.5q13 0 26 5.5 t23 16t16.5 24.5t6.5 32q0 9 -4 21t-13 23t-23.5 18.5t-35.5 7.5q-31 0 -50.5 -22t-19.5 -50zM381 1004q0 -10 6.5 -15.5t15.5 -5.5q10 0 23 7.5t25 19t20 24.5t8 25q0 18 -9.5 20t-20.5 2q-5 0 -14 -13t-17 -19q-14 -14 -25.5 -20.5t-11.5 -24.5zM420 254q0 52 19.5 99.5 t53.5 83.5t80.5 57.5t100.5 21.5q56 0 104.5 -20.5t84.5 -55t56.5 -79.5t20.5 -93q0 -59 -21.5 -108t-57.5 -84.5t-83 -55.5t-98 -20q-61 0 -109.5 23.5t-82 60.5t-51 82t-17.5 88zM465 346q-1 -12 3.5 -18t8.5 -6q17 0 22.5 3t14.5 19q12 24 24 39.5t22 24.5t18 13.5 t12 6.5q5 3 13.5 10t8.5 15q0 14 -8 19t-20 5q-17 0 -36.5 -17.5t-39.5 -39.5q-24 -25 -33 -43.5t-10 -30.5zM606 258q0 -29 21 -52.5t53 -23.5q13 0 26.5 5.5t24 15.5t17 24.5t6.5 32.5q0 9 -4 21.5t-13.5 24t-24.5 20t-36 8.5q-15 0 -27.5 -6.5t-22 -17.5t-15 -24.5 t-5.5 -27.5zM719 154q0 -8 6.5 -14.5t15.5 -6.5t22 7.5t24.5 19t19.5 25.5t8 26q0 17 -10 18.5t-21 1.5q-2 0 -6 -4t-8.5 -9t-8.5 -10.5t-7 -8.5q-14 -14 -24.5 -20.5t-10.5 -24.5z" />
<glyph unicode="&#x26;" horiz-adv-x="1241" d="M82 389q0 65 19.5 118.5t53.5 99.5t80 87.5t99 83.5q-21 28 -40 56.5t-34 60t-24 67t-9 76.5q0 69 25.5 131t70.5 109t106.5 74.5t133.5 27.5q78 0 142.5 -29t110.5 -76t71.5 -106.5t25.5 -121.5q0 -53 -12.5 -97.5t-35.5 -82t-55.5 -70t-72.5 -62.5l125 -155l76 67 q17 14 46.5 18.5t59.5 4.5q15 0 36.5 -10t41 -28t33.5 -44.5t14 -59.5q0 -27 -10 -53t-29 -45l-75 -74l59 -80q16 -20 25.5 -42t9.5 -50q0 -33 -11.5 -61.5t-32 -49t-47.5 -32.5t-59 -12t-57 8t-47 33l-68 77q-51 -43 -89.5 -75t-75.5 -53.5t-77.5 -31.5t-95.5 -10 q-87 0 -161.5 32.5t-129 88.5t-85.5 131t-31 160zM141 528q0 -9 8 -14.5t19 -5.5q4 0 10 6.5t13.5 17t16 22.5t17.5 24q21 27 42 45.5t37.5 31t27 20.5t10.5 15q0 16 -6 23.5t-23 7.5q-4 0 -18.5 -10.5t-34 -27t-40.5 -38t-38.5 -43t-29 -41t-11.5 -33.5zM262 1116 q0 -5 7.5 -11.5t15.5 -6.5q17 0 23 14t9 25q6 18 17.5 37.5t26.5 38t32.5 33.5t34.5 24q13 6 20 9.5t10.5 7.5t4 10t0.5 16q0 8 -6.5 10t-14.5 2q-14 0 -33 -11.5t-39 -29.5t-39.5 -41t-34.5 -46t-24.5 -44.5t-9.5 -36.5zM358 385q0 -23 9.5 -46t26.5 -41.5t40.5 -30 t52.5 -11.5q25 0 46.5 11t39.5 30l78 78l-143 182l-88 -70q-25 -18 -43.5 -47.5t-18.5 -54.5zM504 1038q0 -3 0.5 -10t3.5 -10l51 -66l51 39q10 6 16.5 22t6.5 27q0 9 -4.5 20.5t-13.5 21.5t-21.5 17t-28.5 7q-26 0 -43.5 -21t-17.5 -47zM608 944q0 -8 6 -15t13 -7 q5 0 13.5 5.5t17.5 13t15.5 14.5t6.5 10q0 18 -11 21t-24.5 -3t-25 -17.5t-11.5 -21.5z" />
<glyph unicode="'" horiz-adv-x="459" d="M82 1257v224q0 10 3.5 23t9.5 26.5t14.5 27t17.5 23.5q15 15 29.5 23.5t29.5 12.5t30.5 4.5t31.5 0.5q19 0 41.5 -11t42 -29t32.5 -41.5t13 -49.5v-236q0 -17 -8 -40.5t-26 -45t-48 -36.5t-74 -15q-20 0 -44 9.5t-45 27.5t-35.5 44t-14.5 58zM111 1520q0 -17 3 -25t23 -8 q6 0 10.5 5t8 12t6.5 13.5t6 10.5q3 5 14 15.5t11 21.5q0 9 -7 17.5t-16 8.5q-13 0 -24 -9.5t-18.5 -22t-12 -24t-4.5 -15.5z" />
<glyph unicode="(" horiz-adv-x="629" d="M80 672q0 125 13 245t36 229t54.5 203.5t68.5 168.5q29 56 62.5 88t86.5 32q32 0 60.5 -10.5t50 -30t34.5 -47.5t13 -63q0 -20 -13 -56t-33 -86.5t-43 -117t-43 -148.5t-33 -179.5t-13 -211.5q0 -119 13.5 -219.5t33.5 -183.5t43 -149t43 -116t33.5 -84.5t13.5 -54.5 q0 -31 -11 -58.5t-31 -48.5t-47.5 -33.5t-61.5 -12.5q-36 0 -63.5 13.5t-48.5 37.5t-37 58t-30 75q-23 66 -49.5 143t-49 170t-37.5 203.5t-15 243.5zM285 1524q0 -23 24 -23q7 0 14.5 6.5t15 15.5l15 18t15.5 13q5 4 12.5 9t7.5 16q0 9 -7.5 16t-16.5 7t-23 -9.5t-26.5 -22 t-21.5 -25.5t-9 -21z" />
<glyph unicode=")" horiz-adv-x="629" d="M68 -119q0 20 13.5 54.5t33.5 84.5t44 116t44 149t33.5 183.5t13.5 219.5q0 114 -13.5 212t-33.5 180t-43 148t-43 117t-33.5 86.5t-13.5 55.5q0 35 12.5 63t34.5 47.5t50.5 30t59.5 10.5q70 0 117 -65q32 -44 68 -130t67 -204t51.5 -262t20.5 -305q0 -133 -15 -243.5 t-37.5 -203.5t-49.5 -170t-50 -143q-14 -41 -30.5 -75t-37.5 -58t-48.5 -37.5t-63.5 -13.5q-34 0 -61.5 12.5t-47.5 33.5t-31 48.5t-11 58.5zM102 1524q0 -23 25 -23q7 0 14 6.5t14.5 15.5t15.5 18t15 13q5 4 13 9t8 16q0 9 -7.5 16t-17.5 7q-9 0 -22.5 -9.5t-26.5 -22 t-22 -25.5t-9 -21z" />
<glyph unicode="*" horiz-adv-x="1098" d="M76 999q0 21 10.5 44t25.5 41.5t32.5 31t31.5 12.5q22 0 38 -1t36 -7l166 -49v160q0 30 11.5 55t30 42.5t43.5 27.5t52 10q62 0 100.5 -31.5t38.5 -99.5v-174l150 55q12 5 21 5.5t22 0.5q24 0 49 -10t45 -29t32.5 -47t12.5 -63q0 -28 -6.5 -47t-18.5 -32.5t-29 -22.5 t-38 -17l-164 -57l98 -127q13 -16 19 -29t6 -33q0 -42 -13 -72t-34.5 -48.5t-49.5 -27.5t-57 -9q-32 0 -52 13.5t-40 39.5l-104 137l-90 -131q-19 -28 -48.5 -43.5t-64.5 -15.5q-29 0 -55.5 12.5t-46.5 33.5t-31.5 48.5t-11.5 56.5q0 14 10.5 33t19.5 33l99 143l-154 45 q-43 12 -67.5 48.5t-24.5 94.5zM109 1040q0 -7 5 -13t12.5 -7.5t17 2t18.5 16.5q8 11 14 16t11 9t7.5 9t2.5 15t-11.5 11.5t-17.5 1.5q-9 0 -19 -7.5t-19 -17t-15 -19.5t-6 -16zM446 1288q0 -14 7 -19t22 -5q19 10 34 20q13 8 23.5 17.5t10.5 17.5t-9 13t-18 5 q-12 0 -24 -6.5t-22.5 -15t-17 -16.5t-6.5 -11z" />
<glyph unicode="+" horiz-adv-x="1124" />
<glyph unicode="," horiz-adv-x="520" d="M78 -41q0 9 0.5 15t3.5 16l65 209q6 21 20 39.5t33.5 32.5t43.5 22t49 8q35 0 62.5 -15t46.5 -37.5t28.5 -49t9.5 -49.5v-10.5t-2 -8.5l-78 -248q-4 -13 -17 -27t-30.5 -26t-37 -19.5t-37.5 -7.5q-40 0 -70 15t-50 37.5t-30 50t-10 53.5zM172 199q0 -20 11.5 -23.5 t19.5 -3.5q18 16 32 29q12 11 21.5 22t9.5 13q0 29 -19 31.5t-44 -23.5q-8 -10 -19.5 -23.5t-11.5 -21.5z" />
<glyph unicode="-" horiz-adv-x="770" d="M82 672q0 34 12 61.5t31.5 47.5t43.5 31t48 11h332q34 0 60 -14.5t43.5 -36t26.5 -46t9 -44.5q0 -31 -10.5 -59.5t-28 -51t-41.5 -36t-51 -13.5h-332q-27 0 -53 12t-46 32.5t-32 47.5t-12 58zM119 729q0 -8 6 -16t12 -8q11 0 17.5 3.5t10.5 8.5t6.5 10.5t6.5 9.5 q4 3 10.5 6.5t13 8t11 9.5t4.5 11q0 20 -9 23.5t-28 3.5q-4 0 -14 -7t-20.5 -17.5t-18.5 -22.5t-8 -23z" />
<glyph unicode="." horiz-adv-x="465" d="M82 150q0 31 12 58.5t32 48t47.5 32.5t57.5 12t57.5 -12t48.5 -33t33.5 -48.5t12.5 -57.5q0 -31 -12.5 -58.5t-33.5 -48t-48.5 -32t-57.5 -11.5q-31 0 -58.5 12t-47.5 33t-31.5 48t-11.5 57zM115 203q0 -16 10 -19.5t18 -3.5q4 0 9.5 5t11.5 11.5t12.5 14t13.5 12.5 q10 8 11.5 11t1.5 16q0 8 -8 12t-19 4q-6 0 -16.5 -6.5t-20 -16.5t-17 -21t-7.5 -19z" />
<glyph unicode="/" horiz-adv-x="815" d="M82 160q0 9 3 22t5 19l361 1067q5 17 18.5 33t30 28t33.5 19.5t30 7.5q35 0 69.5 -8t63.5 -43q17 -22 28 -51t11 -48v-8t-2 -8l-364 -1104q-6 -16 -19 -31.5t-30 -27.5t-36 -19.5t-36 -7.5q-39 0 -69.5 12.5t-52 34.5t-33 51t-11.5 62zM465 1253q0 -14 6.5 -22t15.5 -8 t14 3.5t9 9.5t8.5 13t11.5 13q7 5 19 12t12 16q0 25 -15 27.5t-33 -7t-33 -26t-15 -31.5z" />
<glyph unicode="0" horiz-adv-x="1030" d="M72 760q0 150 32.5 263.5t91 190t140.5 115.5t182 39q55 0 107 -14t99 -41.5t86.5 -67.5t68.5 -92q47 -88 62 -187.5t15 -215.5t-5 -217.5t-29 -192.5q-48 -170 -155 -259t-259 -89q-64 0 -124 19t-110.5 56.5t-90.5 92t-64 125.5q-28 78 -37.5 196t-9.5 279zM150 1087 q0 -6 8.5 -12t19.5 -6q8 0 14.5 9t8.5 14q23 46 51 77t55.5 51.5t52.5 33.5t43 22q13 6 20 13t7 26q0 8 -6 13t-14 5q-20 0 -46.5 -12t-55.5 -32.5t-57.5 -46t-50.5 -53t-36 -54t-14 -48.5zM354 598.5q0 -68.5 5 -123t18 -95t39 -67.5q17 -18 42 -30.5t48 -12.5 q49 0 81.5 23t51.5 71.5t27 125t8 184.5q0 101 -4.5 179t-21 130.5t-48.5 79.5t-86 27q-28 0 -58 -16t-50 -42q-36 -43 -44 -113t-8 -169v-151.5zM555 242q0 -11 7.5 -19t17.5 -8t28.5 11t37 27.5t32.5 36t14 36.5q0 8 -7.5 14t-16.5 6q-13 0 -19.5 -7t-9.5 -13 q-17 -26 -31 -38t-33 -22q-6 -3 -13 -7.5t-7 -16.5z" />
<glyph unicode="1" horiz-adv-x="698" d="M68 1087q0 31 17 62t46 49l234 145q14 8 37.5 15.5t37.5 7.5q34 0 62 -13.5t48.5 -35.5t32 -49.5t11.5 -55.5v-1044q0 -40 -12.5 -71.5t-33.5 -53t-49 -32.5t-59 -11q-24 0 -49.5 10.5t-47.5 31t-36 51.5t-14 73v786q-14 -6 -35.5 -12t-50.5 -6q-26 0 -51 10.5t-44.5 30 t-31.5 48t-12 64.5zM113 1137q0 -10 6.5 -17.5t17.5 -7.5q2 0 15 7.5t28 18t27 21.5t12 19q0 14 -8.5 22t-22.5 8q-1 0 -13 -5t-26 -14.5t-25 -22.5t-11 -29z" />
<glyph unicode="2" horiz-adv-x="991" d="M96 156q0 11 3.5 24.5t11.5 26.5l460 731q10 15 14.5 27.5t4.5 29.5q0 24 -8.5 42.5t-21.5 31t-29 19t-31 6.5q-25 0 -42.5 -12t-31.5 -29.5t-27 -38.5t-30 -38.5t-40 -29.5t-57 -12q-26 0 -52 11t-46.5 30.5t-33.5 46.5t-13 59q0 33 24.5 81.5t71 94t114.5 77.5t155 32 q85 0 155 -29.5t120 -80t77.5 -118.5t27.5 -145q0 -22 -1 -41t-4 -36.5t-9.5 -35t-17.5 -36.5l-330 -543h258q25 0 50.5 -11t46 -31.5t33.5 -48t13 -60.5q0 -34 -13.5 -62t-34 -47.5t-45 -30t-46.5 -10.5h-530q-19 0 -44.5 9.5t-48 28.5t-38 48.5t-15.5 69.5zM129 190 q0 -8 6.5 -16t14.5 -8q10 0 17.5 9t13.5 20q7 12 12 28q0 13 -11 17t-22 4q-2 0 -7 -6t-10.5 -14.5t-9.5 -18t-4 -15.5zM162 1122q0 -11 7 -19.5t13 -8.5q16 0 19.5 4t9.5 18q11 26 28 50t38 44.5t44.5 36.5t45.5 25q15 6 23.5 12.5t8.5 26.5q0 14 -10 16t-18 2 q-12 0 -32 -10.5t-43 -27.5t-47 -38.5t-43.5 -44.5t-31.5 -45.5t-12 -40.5z" />
<glyph unicode="3" horiz-adv-x="991" d="M82 330q0 30 11.5 56.5t30.5 46t44 31t53 11.5q32 0 60.5 -6t44.5 -35q27 -51 45 -83.5t33.5 -51t32 -25t40.5 -6.5q30 0 55.5 12t44 30.5t29 40t10.5 40.5q0 51 -13 82.5t-33.5 50t-46 28t-50.5 17.5q-19 6 -36 20t-30 33t-20.5 41t-7.5 44q0 20 7 39.5t18 36.5t26 30.5 t31 20.5q21 8 43.5 17t41.5 23t31.5 36t12.5 57q0 18 -6.5 39t-19 39t-30.5 30t-42 12q-31 0 -49.5 -11t-32 -27.5t-25 -36t-26.5 -36t-37.5 -27.5t-59.5 -11q-27 0 -53 11t-46.5 30t-33 44.5t-12.5 53.5q0 42 26 93.5t74 96.5t115.5 76t150.5 31q84 0 154.5 -31.5 t121 -83.5t79 -118t28.5 -135q0 -58 -11 -102.5t-29 -80t-41 -64t-46 -52.5q36 -35 63.5 -70.5t47 -74t29.5 -82.5t10 -95q0 -73 -30 -144.5t-83 -128t-125.5 -91.5t-158.5 -35q-97 0 -173.5 36.5t-129 89.5t-80 112.5t-27.5 105.5zM119 375q0 -11 12 -14t19 -3q11 8 20 17 q8 8 14 17t6 18q0 11 -8.5 14.5t-19.5 3.5q-1 0 -7.5 -3.5t-14.5 -10.5t-14.5 -17t-6.5 -22zM149.5 1106q0.5 -6 3.5 -10t9 -4q21 0 27 8.5t14 25.5q8 20 23.5 41.5t34 41t39.5 36t40 25.5q12 5 21.5 9t16 9t10 13t3.5 22q0 8 -6 10t-14 2q-17 0 -40 -11.5t-47.5 -30 t-48.5 -41.5t-43 -46t-30.5 -43.5t-11.5 -34.5q0 -4 -0.5 -10t0 -12zM418 750q0 -10 7.5 -15.5t16.5 -5.5q6 0 11 3.5t9 8.5t7.5 10t5.5 7q3 2 9 5t12.5 6t11 7t4.5 8q0 8 -2.5 19.5t-13.5 11.5q-19 0 -33.5 -7.5t-24.5 -17.5t-15 -21t-5 -19z" />
<glyph unicode="4" horiz-adv-x="1106" d="M61 416q0 21 7 45t18 43l502 809q14 23 46 38t66 15q41 0 70.5 -14t48.5 -35.5t28 -47.5t9 -50v-646h23q31 0 57.5 -13t46 -33.5t30.5 -46.5t11 -52q0 -37 -14 -66.5t-36 -49t-48.5 -30t-51.5 -10.5h-18v-127q0 -35 -14 -62t-35.5 -45.5t-48.5 -28t-53 -9.5 q-24 0 -50.5 11t-48.5 29.5t-36.5 44t-14.5 54.5v133h-348q-29 0 -55.5 12.5t-46.5 33t-32 46.5t-12 52zM100 477q0 -12 7.5 -18t19.5 -6q3 0 8 4t10.5 11t9 15t3.5 17q0 8 -6.5 13t-12.5 5q-10 0 -17 -6t-12 -13.5t-7.5 -14t-2.5 -7.5zM438 567h117v189zM588 1274 q0 -9 7 -17t13 -8q7 0 20 7t25.5 18t21.5 24t9 25q0 6 -6 13t-14 7q-11 0 -24 -8.5t-24.5 -20t-19.5 -23t-8 -17.5z" />
<glyph unicode="5" horiz-adv-x="1008" d="M104 358q0 20 10 43t28 42t44 31.5t58 12.5q44 0 79 -19.5t46 -45.5q9 -23 19 -49t25.5 -47.5t39 -35.5t59.5 -14q26 0 50 12.5t43 34t30.5 50.5t11.5 63q0 40 -11.5 74t-33.5 58.5t-54 38.5t-73 14q-20 0 -44 -4t-47.5 -9.5t-44.5 -9.5t-34 -4q-29 0 -55 9.5t-45.5 29.5 t-31 50.5t-11.5 72.5v28l35 451q2 26 15.5 50t33.5 42t44 28.5t48 10.5h397q15 0 37 -11t42 -30t34 -44t14 -54q0 -31 -12.5 -58.5t-31.5 -47t-41.5 -31t-43.5 -11.5h-248l-12 -192h53q67 0 137.5 -30.5t128.5 -88t95 -140.5t37 -188q0 -96 -34 -178.5t-91 -142.5 t-131.5 -94.5t-155.5 -34.5t-154.5 33t-130 85.5t-90 118.5t-33.5 131zM143 401q0 -11 3 -16.5t16 -5.5q8 0 17.5 6t17.5 14q10 9 18 19q0 12 -4 20t-18 8q-5 0 -13.5 -5t-16.5 -12.5t-14 -15t-6 -12.5zM229 1260q0 -11 8.5 -17t22.5 -6q4 0 8.5 4.5t9 10.5l9 12t8.5 10 q3 3 9 6.5t12.5 7.5t11 8.5t4.5 10.5q0 12 -6.5 23t-20.5 11q-10 0 -23 -7.5t-25 -19.5t-20 -26t-8 -28zM565 250q0 -25 19 -24.5t41.5 15.5t41.5 38t19 43q0 9 -4.5 16.5t-15.5 7.5q-9 0 -14 -5t-10.5 -13t-12 -17.5t-17.5 -19.5q-6 -6 -14 -10.5t-15.5 -9t-12.5 -9.5 t-5 -12z" />
<glyph unicode="6" horiz-adv-x="975" d="M78 461q0 170 40.5 316t129.5 282q50 77 98.5 134.5t92.5 96t81.5 57.5t65.5 19q33 0 60 -12t45.5 -32t29 -46.5t10.5 -56.5q0 -37 -25 -68.5t-61 -63t-75 -67.5t-68 -82q-11 -19 -17.5 -32t-17.5 -32q22 -2 39.5 0.5t23.5 2.5q73 0 140 -30.5t118 -88t81 -141t30 -189.5 q0 -85 -30 -162.5t-86.5 -136.5t-138 -94t-185.5 -35q-78 0 -147 30.5t-121 89.5t-82.5 144.5t-30.5 196.5zM350 438q0 -35 12 -65t31 -52t42.5 -34.5t47.5 -12.5q32 0 58 14t45.5 36.5t30 52.5t10.5 61q0 32 -9.5 63t-28 55t-45 39t-61.5 15q-29 0 -53.5 -14.5t-42 -38.5 t-27.5 -55t-10 -64zM465 1276q0 -9 6 -18t14 -9q2 0 17 7.5t32 18t31.5 22t14.5 20.5q0 11 -4.5 18.5t-18.5 7.5q-9 0 -24.5 -6.5t-30.5 -16.5t-26 -22t-11 -22zM551 246q0 -13 11 -17t22 -4q5 0 18 9.5t26.5 23.5t24.5 30.5t11 30.5q0 7 -5.5 14t-11.5 7q-11 0 -17 -2.5 t-10.5 -7t-8 -11t-9.5 -14.5q-11 -12 -20.5 -19.5t-16 -13.5t-10.5 -11.5t-4 -14.5z" />
<glyph unicode="7" horiz-adv-x="954" d="M76 1219q0 24 10 50.5t30 48.5t49.5 36t67.5 14h508q19 0 42 -11t43.5 -29.5t34 -43t13.5 -51.5q0 -12 -0.5 -20t-3.5 -19l-346 -1096q-8 -27 -24 -45.5t-35.5 -30t-40.5 -17t-39 -5.5q-35 0 -63 11.5t-47 32t-29 48.5t-10 60q0 12 -0.5 21t4.5 22l286 878h-299 q-30 0 -57.5 11.5t-48 31t-33 46t-12.5 57.5zM115 1266q0 -10 6.5 -17.5t15.5 -7.5q2 0 13 8.5t24.5 19.5t24 23t10.5 19q0 8 -5.5 16t-13.5 8q-10 0 -23 -6t-24.5 -15.5t-19.5 -22t-8 -25.5zM268 172q0 -3 4.5 -7.5t8.5 -4.5q21 0 28.5 14.5t7.5 36.5q0 6 -5 12t-13 6 q-9 0 -14.5 -7.5t-9.5 -17t-5.5 -19t-1.5 -13.5z" />
<glyph unicode="8" horiz-adv-x="997" d="M96 393q0 57 13 103t34 84.5t49 70.5t58 60q-62 62 -92.5 134t-30.5 150q0 77 29.5 145t80.5 119t120 81t149 30q84 0 154.5 -32t120.5 -84.5t78 -118.5t28 -134q0 -52 -9.5 -94.5t-26.5 -78t-40.5 -66.5t-52.5 -60q71 -71 108 -145.5t37 -148.5q0 -92 -33 -169 t-88.5 -132.5t-129 -86t-154.5 -30.5q-83 0 -156.5 33t-128 88.5t-86 128.5t-31.5 153zM180 1128q0 -17 3.5 -22.5t23.5 -5.5q8 0 17 15t16 26q12 21 30.5 41.5t38.5 38.5t40.5 31.5t35.5 19.5q16 6 30.5 12.5t14.5 26.5q0 12 -12.5 14t-20.5 2q-13 0 -34 -10.5t-45 -27.5 t-48.5 -38.5t-44.5 -43.5t-32.5 -42.5t-12.5 -36.5zM369 416q0 -34 10.5 -61.5t27.5 -47t40.5 -29.5t48.5 -10q27 0 51.5 11.5t43 32t29.5 48t11 58.5q0 33 -9.5 60.5t-26.5 48t-41.5 31.5t-53.5 11q-30 0 -54 -11.5t-41.5 -32t-26.5 -48.5t-9 -61zM399 961q0 -25 7 -47.5 t19.5 -39.5t31.5 -27.5t43 -10.5q27 0 48.5 11.5t36 29.5t22 40t7.5 44q0 25 -7.5 48t-21.5 40t-35.5 27.5t-49.5 10.5q-19 0 -37 -9t-32.5 -25.5t-23 -40t-8.5 -51.5zM543 803q0 -6 2.5 -16.5t13.5 -10.5q16 0 33 9.5t31 23t23 27t9 20.5q0 8 -4 14.5t-10 8.5t-14 -1 t-17 -14q-10 -14 -22 -23t-22 -15.5t-16.5 -11.5t-6.5 -11zM547 231q0 -6 3 -13t11 -7q21 0 41.5 12.5t36.5 28.5t25.5 31.5t9.5 21.5q0 23 -25 23q-7 0 -13.5 -6t-13.5 -15t-14.5 -18.5t-15.5 -16.5q-5 -4 -13 -8.5t-15 -9.5t-12 -10.5t-5 -12.5z" />
<glyph unicode="9" horiz-adv-x="973" d="M76 926q0 29 1 53t4 46.5t9 45t16 49.5q23 56 62 102t88 79.5t105.5 52t113.5 18.5q90 0 167.5 -31.5t134.5 -93t89.5 -152t32.5 -208.5q0 -111 -14 -205.5t-46 -182t-84 -174.5t-128 -184q-27 -34 -51.5 -61t-49 -46t-49.5 -29.5t-53 -10.5q-35 0 -63 11.5t-47.5 32 t-29.5 47t-10 56.5q0 22 13.5 46.5t38.5 55.5t61.5 70t81.5 90q25 28 42.5 61t33.5 62q-19 -2 -42.5 -3t-41.5 -1q-84 0 -155 35t-122 92t-79.5 129.5t-28.5 147.5zM121 1081q0 -9 7.5 -13.5t18.5 -4.5t18.5 13.5t10.5 23.5q19 46 61 92.5t111 77.5q11 5 24 14t13 19 q0 12 -8 16t-19 4q-18 0 -42.5 -12.5t-50.5 -32.5t-52 -46t-46.5 -53t-33 -52.5t-12.5 -45.5zM313 180q0 -9 7 -13.5t16 -4.5q2 0 8.5 3.5t13.5 10t12 16t5 21.5q0 16 -25 16q-3 0 -9 -5t-12.5 -12.5t-11 -16t-4.5 -15.5zM352 938q0 -30 10.5 -58t28.5 -50t42.5 -35 t53.5 -13q59 0 94 40t35 120q0 30 -10 57.5t-27.5 48.5t-42 33.5t-53.5 12.5t-53 -12t-41.5 -33t-27 -49.5t-9.5 -61.5zM545 743q0 -8 8.5 -12t17.5 -4q7 0 23.5 10.5t34 27t30.5 36t13 37.5q0 6 -5.5 13t-15.5 7q-14 0 -19.5 -8t-8.5 -14q-13 -23 -28 -37t-32 -25 q-12 -8 -15 -12.5t-3 -18.5z" />
<glyph unicode=":" horiz-adv-x="465" d="M82 150q0 31 12 58.5t32 48t47.5 32.5t57.5 12t57.5 -12t48.5 -33t33.5 -48.5t12.5 -57.5q0 -31 -12.5 -58.5t-33.5 -48t-48.5 -32t-57.5 -11.5q-31 0 -58.5 12t-47.5 33t-31.5 48t-11.5 57zM82 831q0 32 12 59.5t32 48t47.5 32.5t57.5 12q31 0 58.5 -12t48.5 -33 t33 -48.5t12 -58.5t-12.5 -58t-33.5 -47.5t-48.5 -32t-57.5 -11.5q-31 0 -58.5 12.5t-47.5 33t-31.5 47.5t-11.5 56zM115 203q0 -16 10 -19.5t18 -3.5q4 0 9.5 5t11.5 11.5t12.5 14t13.5 12.5q10 8 11.5 11t1.5 16q0 8 -8 12t-19 4q-6 0 -16.5 -6.5t-20 -16.5t-17 -21 t-7.5 -19zM115 885q0 -17 10 -20t18 -3q4 0 9.5 4.5t11.5 11t12.5 13.5t13.5 12q10 8 11.5 12t1.5 17q0 8 -8 12t-19 4q-6 0 -16.5 -6.5t-20 -16.5t-17 -21t-7.5 -19z" />
<glyph unicode=";" horiz-adv-x="520" d="M78 -41q0 9 0.5 15t3.5 16l65 209q6 21 20 39.5t33.5 32.5t43.5 22t49 8q35 0 62.5 -15t46.5 -37.5t28.5 -49t9.5 -49.5v-10.5t-2 -8.5l-78 -248q-4 -13 -17 -27t-30.5 -26t-37 -19.5t-37.5 -7.5q-40 0 -70 15t-50 37.5t-30 50t-10 53.5zM133 831q0 32 12 59.5t33 48 t48 32.5t57 12t57 -12t48 -33t33.5 -48.5t12.5 -58.5t-12.5 -58t-33.5 -47.5t-48 -32t-57 -11.5q-31 0 -58.5 12t-48 32.5t-32 47.5t-11.5 57zM166 885q0 -17 10.5 -20t18.5 -3t21 15t26 26q9 8 10.5 12t1.5 17q0 8 -8 12t-19 4q-7 0 -17 -6.5t-20 -16.5t-17 -21t-7 -19z M172 199q0 -20 11.5 -23.5t19.5 -3.5q18 16 32 29q12 11 21.5 22t9.5 13q0 29 -19 31.5t-44 -23.5q-8 -10 -19.5 -23.5t-11.5 -21.5z" />
<glyph unicode="&#x3c;" horiz-adv-x="1124" />
<glyph unicode="=" horiz-adv-x="1124" />
<glyph unicode="&#x3e;" horiz-adv-x="1124" />
<glyph unicode="?" horiz-adv-x="903" d="M82 1112q0 41 27 85.5t73.5 82t109 62t132.5 24.5q78 0 146 -30t119 -79.5t80.5 -112.5t29.5 -130q0 -75 -14.5 -125.5t-40 -88t-60.5 -68t-76 -66.5q-19 -17 -28 -30.5t-12.5 -27.5t-3 -30.5t0.5 -40.5q0 -148 -147 -148q-26 0 -51 10.5t-44.5 31t-31.5 51t-12 69.5 q0 119 43 204t118 136q13 8 26.5 16.5t24.5 19.5t18 25.5t7 34.5q0 21 -7.5 39t-20.5 30.5t-29 19.5t-33 7q-18 0 -31 -5t-23 -12.5t-18 -17t-16 -18.5q-25 -28 -52.5 -41.5t-64.5 -13.5q-22 0 -46.5 10t-45 28.5t-34 43.5t-13.5 55zM119 1151q0 -3 3.5 -7.5t6.5 -4.5 q17 0 22.5 3t14.5 15q35 48 69.5 75.5t81.5 47.5q13 5 16 9t3 18q0 15 -12.5 16.5t-18.5 1.5q-3 0 -17.5 -6t-34.5 -17.5t-42.5 -28.5t-42.5 -38q-19 -21 -29 -32.5t-14.5 -19.5t-5 -14.5t-0.5 -17.5zM279 150q0 31 12 58.5t32 48t47 32.5t58 12q30 0 57.5 -12t48.5 -33 t33.5 -48.5t12.5 -57.5q0 -31 -12.5 -58.5t-33.5 -48t-48.5 -32t-57.5 -11.5q-31 0 -58.5 12t-47.5 33t-31.5 48t-11.5 57zM311 203q0 -16 10.5 -19.5t18.5 -3.5q4 0 9 5l11.5 11.5t13 14t13.5 12.5q9 8 10.5 11t1.5 16q0 8 -8.5 12t-19.5 4q-6 0 -16.5 -6.5t-20 -16.5 t-16.5 -21t-7 -19zM481 874q0 -5 6 -13.5t11 -8.5q8 0 18 5t20 13t16.5 17.5t6.5 19.5q0 14 -13 16.5t-20 2.5q-12 -8 -22 -17q-8 -8 -15.5 -16.5t-7.5 -18.5z" />
<glyph unicode="@" horiz-adv-x="1745" d="M88 678q0 162 61.5 300.5t170 239.5t256 158.5t319.5 57.5q169 0 309.5 -51.5t241 -144t156 -222t55.5 -285.5q0 -100 -28 -182.5t-79 -142t-121.5 -92.5t-154.5 -33q-185 0 -250 159q-93 -145 -256 -145q-57 0 -104 21t-80 59.5t-51.5 92t-18.5 118.5q0 98 32.5 185 t88 152t130 103.5t157.5 38.5q22 0 39 -1.5t33.5 -5.5t33.5 -12t39 -20l6 43h172l-78 -530v-23q0 -28 10 -53t28 -43t42.5 -28.5t52.5 -10.5q53 0 96.5 24t74.5 68.5t48 106.5t17 137q0 132 -46.5 243t-129.5 191t-197.5 125t-251.5 45q-92 0 -176 -21.5t-156 -61.5 t-130 -97t-99.5 -127t-63.5 -152t-22 -172q0 -137 51.5 -255.5t142 -206t213 -137.5t263.5 -50q51 0 99 6.5t96.5 20.5t99 35.5t104.5 52.5l45 -82q-27 -17 -47.5 -29t-38 -21t-35 -16.5t-38.5 -15.5q-153 -62 -328 -62q-172 0 -319 57t-254.5 157.5t-168.5 237t-61 296.5z M700 606q0 -40 9.5 -73.5t27 -57.5t41.5 -37.5t53 -13.5q34 0 65 17.5t56 48.5t42.5 74.5t23.5 94.5l37 277q-17 12 -30.5 20t-26.5 12.5t-26 6.5t-28 2q-51 0 -95.5 -29t-77.5 -79t-52 -117.5t-19 -145.5z" />
<glyph unicode="A" horiz-adv-x="1022" d="M41 141q0 14 4.5 33.5t9.5 32.5l320 1034q8 28 18.5 53t27 43.5t42 29.5t63.5 11q57 0 93 -35.5t55 -101.5l295 -1036q5 -19 8.5 -33.5t3.5 -34.5q0 -31 -11.5 -56t-32.5 -43t-49 -28t-61 -10q-112 0 -137 96l-41 170h-270l-49 -164q-6 -19 -20.5 -37.5t-35 -32.5 t-44.5 -23t-48 -9q-31 0 -56.5 10.5t-44.5 29.5t-29.5 44.5t-10.5 56.5zM74 209q-1 -4 -1 -7q1 -6 3 -8q4 -6 12 -8q4 -1 8 -1l6 1q8 2 11 9l12 38q3 11 -6 16t-23 5q-2 0 -6 -3t-4 -5zM412 1292q0 -11 4.5 -20.5t19.5 -9.5q6 0 18 9.5t24.5 21t22 21.5t9.5 11q0 25 -16 27 q-3 1 -6 1q-13 1 -27 -7q-18 -10 -33.5 -26t-15.5 -28zM449 549h139l-68 285z" />
<glyph unicode="B" horiz-adv-x="997" d="M123 184v1002q0 80 39.5 126t101.5 46h221q69 0 134 -28t116 -77.5t82 -117.5t31 -148q0 -45 -9.5 -82.5t-25.5 -70t-37.5 -61t-46.5 -54.5q91 -66 140 -143.5t49 -180.5q0 -85 -31 -157.5t-86 -125t-131.5 -82.5t-167.5 -30h-226q-49 0 -79 13.5t-46.5 37.5t-22 58 t-5.5 75zM156 1260q0 -7 6 -12t12 -5q7 0 20 8.5t25.5 20t21.5 22t9 13.5q0 26 -27 26q-6 0 -17 -6.5t-22.5 -16.5t-19.5 -23t-8 -27zM424 293q0 -8 2.5 -9t7.5 -1h96q26 0 47 9.5t36 26.5t23.5 40t8.5 49q0 29 -13 57t-34 49.5t-48 35t-54 13.5h-60q-6 0 -9 -1t-3 -9v-260z M424 852q0 -5 3.5 -7.5t8.5 -2.5h62q24 0 42 9.5t30.5 24.5t19 34.5t6.5 39.5q0 32 -10 56t-26 41t-36.5 25.5t-42.5 8.5h-45q-12 0 -12 -12v-217zM526 811q0 -8 7 -15.5t12 -7.5q10 0 23.5 6t26 16t21.5 21.5t9 22.5q0 9 -6.5 14.5t-14.5 5.5q-1 0 -13.5 -7.5t-27 -17.5 t-26 -20.5t-11.5 -17.5zM567 254q0 -9 7.5 -17t13.5 -8q8 0 24 9t32.5 22.5t29 29.5t12.5 29q0 8 -6.5 15.5t-15.5 7.5t-15.5 -6.5t-13.5 -16t-17 -20t-26 -18.5q-6 -4 -15.5 -9.5t-9.5 -17.5z" />
<glyph unicode="C" horiz-adv-x="991" d="M69 608q1 64 1 137v113t6 100.5t22 96.5t47 100q29 48 69.5 87.5t88 67.5t99.5 43t104 15q58 0 108.5 -15t91.5 -40t73 -57t53.5 -67t33 -69.5t11.5 -64.5t-12 -56t-31.5 -45t-45 -30t-53.5 -11q-55 0 -84.5 26.5t-54.5 74.5q-9 17 -18 31t-20.5 24t-26 15.5t-35.5 5.5 q-66 0 -104.5 -73t-41.5 -212q-3 -133 -3.5 -209.5t-0.5 -85.5q0 -56 11.5 -100t32.5 -74t49.5 -46t62.5 -16q18 0 35.5 5.5t32 16t25 26t13.5 36.5q5 34 18 58t31.5 39.5t42.5 22.5t50 7q29 0 55 -10t46 -29t32 -44.5t12 -57.5q0 -62 -26 -124.5t-76 -112t-124 -80.5 t-169 -31q-67 0 -128 20.5t-112.5 58t-91.5 90.5t-64 118q-17 45 -24.5 96t-9.5 108q-1 38 -1 79v42zM143 1083q0 -8 8.5 -12t20.5 -4q2 0 5.5 3t6.5 7.5t5.5 9t3.5 7.5q37 69 89.5 115t106.5 69q8 3 15.5 5.5t7.5 10.5q0 7 -1.5 18t-11.5 11q-24 0 -52.5 -13t-56.5 -34.5 t-55 -48t-47 -53t-32.5 -50.5t-12.5 -41zM649 408q0 -8 6 -14.5t13 -6.5q10 0 22.5 7t23.5 15q13 10 27 21q0 23 -9 26t-23 3q-5 0 -15 -6t-20 -14t-17.5 -17t-7.5 -14z" />
<glyph unicode="D" horiz-adv-x="1024" d="M123 168v1038q0 28 11 55t33.5 48.5t55.5 35t78 13.5h213q34 0 73 -9t78 -26.5t76 -41.5t66 -54q72 -75 113 -206t41 -302q0 -34 -1.5 -84.5t-7.5 -109t-17.5 -122t-31.5 -124t-50 -114t-73 -91.5q-42 -40 -98 -60q-43 -16 -97 -15q-16 0 -32 1h-252q-87 0 -132.5 43.5 t-45.5 124.5zM160 1255q0 -7 3.5 -12.5t10.5 -7t17 3t22 18.5q6 8 14 13t14.5 10t11.5 10t5 13q0 6 -6 15t-12 9q-14 0 -28 -7.5t-25.5 -19t-19 -24t-7.5 -21.5zM424 315q0 -11 5.5 -11.5t14.5 -0.5h78q40 0 72.5 29t50.5 80q17 43 26 95.5t13 106.5q3 43 3 86v22 q-1 54 -5.5 100.5t-11 83.5t-13.5 57q-21 61 -61 89.5t-100 28.5h-68q-3 0 -3.5 -3t-0.5 -5v-758zM569 254q0 -6 1.5 -16.5t17.5 -10.5q13 0 32 11.5t37 29t30.5 37t12.5 35.5q0 11 -5 18t-17 7q-8 0 -16 -10.5t-11 -16.5q-6 -12 -14 -25.5t-33 -25.5q-8 -3 -21.5 -12 t-13.5 -21z" />
<glyph unicode="E" horiz-adv-x="926" d="M123 145v1074q0 24 8.5 49.5t27.5 47.5t48 36t69 14h367q36 0 63 -13t45.5 -33.5t27.5 -45.5t9 -49q0 -68 -39 -111t-104 -43h-221v-211h197q71 0 107 -42.5t36 -108.5q0 -32 -12.5 -59.5t-33.5 -47.5t-48 -31.5t-56 -11.5h-190v-258h248q75 0 110 -42.5t35 -108.5 q0 -34 -13 -62t-32.5 -47.5t-43 -30t-44.5 -10.5h-399q-34 0 -63.5 11t-51.5 30.5t-34.5 46t-12.5 57.5zM156 1260q0 -7 5.5 -12t14.5 -5q4 0 17 10t27.5 23.5t26 26t11.5 16.5q0 8 -9.5 14t-17.5 6q-5 0 -17.5 -6.5t-25 -18t-22.5 -25.5t-10 -29z" />
<glyph unicode="F" horiz-adv-x="924" d="M123 152v1062q0 30 11.5 57.5t33 48.5t52 33.5t69.5 12.5h381q24 0 50 -11.5t47 -31t34.5 -44.5t13.5 -52q0 -75 -38.5 -115.5t-106.5 -40.5h-246v-211h188q34 0 62 -13.5t48 -35t31 -48t11 -52.5q0 -30 -8.5 -57.5t-27 -48.5t-47 -33.5t-67.5 -12.5h-190v-407 q0 -44 -15 -73t-37.5 -46.5t-48 -25t-47.5 -7.5q-153 0 -153 152zM160 1264q0 -5 7 -12t13 -7q11 0 17 8t8 11q6 8 14 14t14.5 11t11.5 10t5 12q0 11 -6 17.5t-17 6.5q-3 0 -14 -6t-22.5 -16t-21 -22.5t-9.5 -26.5z" />
<glyph unicode="G" horiz-adv-x="1012" d="M82 633q0 179 14 302t45 191q25 55 64.5 100t90 77t109.5 49.5t123 17.5t115 -11.5t87 -32.5t55.5 -51t19.5 -67q0 -31 -12.5 -60t-33 -49.5t-46 -30.5t-51.5 -5q-12 2 -23 7t-24.5 10t-32.5 8.5t-47 3.5q-54 0 -90 -40t-56.5 -103t-28.5 -141q-5 -59 -5 -118 q0 -19 1 -38q2 -78 11.5 -146t23.5 -111q11 -33 33.5 -60.5t52.5 -43.5t65.5 -16t71.5 22v258q-43 5 -72.5 19.5t-48.5 34.5t-27.5 44t-8.5 49q0 35 11 62.5t30.5 47t46 30t57.5 10.5h160q62 0 100.5 -39.5t38.5 -105.5v-504q0 -45 -23.5 -81t-68.5 -61q-23 -12 -55.5 -24 t-69 -21.5t-75.5 -15.5t-74 -6q-119 0 -209 46t-150 140q-29 46 -47.5 96.5t-29 107t-14 118.5t-3.5 131zM150 1061q0 -9 11 -11.5t19 -2.5q5 0 11.5 14.5t11.5 23.5q18 39 36 66.5t39 48t46.5 36.5t58.5 32q23 11 38 18t15 23q0 9 -6 15.5t-14 6.5q-19 0 -46 -12t-56.5 -32 t-59 -47t-52.5 -57t-37.5 -61.5t-14.5 -60.5zM487 756q0 -8 6.5 -15.5t14.5 -7.5q6 0 15.5 7t18 16t15 18.5t6.5 13.5q0 10 -4.5 16.5t-15.5 6.5q-6 0 -15.5 -6.5t-18.5 -15t-15.5 -18t-6.5 -15.5z" />
<glyph unicode="H" horiz-adv-x="1075" d="M123 150v1064q0 75 37 113.5t112 38.5q76 0 114 -38.5t38 -113.5v-354h227v354q0 75 37 113.5t113 38.5q75 0 113 -38.5t38 -113.5v-1064q0 -150 -151 -150q-150 0 -150 150v423h-227v-423q0 -150 -152 -150q-149 0 -149 150zM160 1276q0 -4 0.5 -9.5t2 -10.5t5 -9 t10.5 -4q9 0 15 4.5t11 11t10.5 14t14.5 13.5l15 9t10 16q0 11 -7 17.5t-18 6.5t-23.5 -7t-22.5 -16.5t-16.5 -19.5t-6.5 -16zM682 1276q0 -4 0.5 -9.5t2 -10.5t5 -9t10.5 -4q9 0 15 4.5t11 11t11 14t15 13.5q5 3 14.5 9t9.5 16q0 11 -6.5 17.5t-17.5 6.5q-12 0 -24 -7 t-22.5 -16.5t-17 -19.5t-6.5 -16z" />
<glyph unicode="I" horiz-adv-x="547" d="M123 150v1064q0 75 37 113.5t112 38.5q76 0 114 -38.5t38 -113.5v-1064q0 -150 -152 -150q-149 0 -149 150zM160 1276q0 -4 0.5 -9.5t2 -10.5t5 -9t10.5 -4q9 0 15 4.5t11 11t10.5 14t14.5 13.5l15 9t10 16q0 11 -7 17.5t-18 6.5t-23.5 -7t-22.5 -16.5t-16.5 -19.5 t-6.5 -16z" />
<glyph unicode="J" horiz-adv-x="940" d="M68 338q0 33 11.5 61.5t30 48.5t43.5 31t52 8q39 -3 59 -18.5t31.5 -37t18.5 -45t19 -44t34 -33.5t63 -14q17 0 34.5 5.5t31.5 15.5t23 24t9 31v843q0 75 38.5 113.5t113.5 38.5t112 -38.5t37 -113.5v-841q0 -77 -29.5 -146t-80 -120.5t-118 -82t-144.5 -30.5 q-88 0 -159.5 32t-122.5 82t-79 111t-28 119zM110 403q0 -4 2 -9q1 -5 5.5 -9t13.5 -4q5 0 14 5.5t17 12.5t14 14t6 9q0 23 -11 27.5t-24.5 -1t-24.5 -16t-11 -18.5zM477 252q0 -6 6 -15.5t13 -9.5q18 0 34 10t28.5 23.5t20 28t7.5 24.5q0 14 -12 17.5t-21 3.5q-3 0 -6.5 -5 t-9 -12t-12.5 -15t-17 -15q-8 -6 -19.5 -14.5t-11.5 -20.5zM565 1276q0 -8 3.5 -20.5t17.5 -12.5q10 0 15.5 4.5t10 11t9.5 14t14 13.5q5 3 14.5 9t9.5 16q0 11 -5 17.5t-17 6.5t-24.5 -7t-23 -16.5t-17.5 -19.5t-7 -16z" />
<glyph unicode="K" horiz-adv-x="1040" d="M123 150v1064q0 75 37 113.5t112 38.5q76 0 114 -38.5t38 -113.5v-266l213 352q17 28 47 46t72 18q24 0 52 -9.5t52.5 -28t41 -45t16.5 -60.5q0 -11 -4.5 -26.5t-10.5 -25.5l-256 -417l295 -539q9 -17 12.5 -31t3.5 -32q0 -36 -13 -63.5t-34.5 -47t-49 -29.5t-56.5 -10 q-43 0 -76 18.5t-51 53.5l-209 399l-45 -63v-258q0 -150 -152 -150q-149 0 -149 150zM160 1276q0 -4 0.5 -9.5t2 -10.5t5 -9t10.5 -4q9 0 15 4.5t11 11t10.5 14t14.5 13.5l15 9t10 16q0 11 -7 17.5t-18 6.5t-23.5 -7t-22.5 -16.5t-16.5 -19.5t-6.5 -16zM647 1278 q0 -27 29 -27q1 0 12 8.5t23.5 20.5t23 24t10.5 19q0 9 -8.5 13.5t-17.5 4.5q-8 0 -20 -8.5t-23.5 -19.5t-20 -21t-8.5 -14z" />
<glyph unicode="L" horiz-adv-x="889" d="M123 166v1048q0 75 37 113.5t112 38.5q76 0 114 -38.5t38 -113.5v-927h246q35 0 61 -14.5t43 -36t25 -47t8 -48.5q0 -25 -11.5 -50t-30.5 -45.5t-43.5 -33t-51.5 -12.5h-404q-26 0 -51.5 10t-46 30t-33 51.5t-12.5 74.5zM160 1276q0 -4 0.5 -9.5t2 -10.5t5 -9t10.5 -4 q9 0 15 4.5t11 11t10.5 14t14.5 13.5l15 9t10 16q0 11 -7 17.5t-18 6.5t-23.5 -7t-22.5 -16.5t-16.5 -19.5t-6.5 -16z" />
<glyph unicode="M" horiz-adv-x="1407" d="M123 150v1060q0 35 12.5 63t33 48t46.5 30.5t53 10.5q20 0 40 -5.5t37.5 -15t31 -22t20.5 -27.5l303 -610l304 606q17 34 52 54t77 20q33 0 60.5 -13.5t48 -35t31.5 -47.5t11 -52v-1064q0 -150 -151 -150q-150 0 -150 150v458l-137 -231l51 -105q6 -12 7 -23.5t1 -25.5 q0 -24 -9.5 -50t-29 -47t-48.5 -34.5t-68 -13.5q-42 0 -78 23t-56 69l-192 426v-446q0 -150 -152 -150q-149 0 -149 150zM156 1272q0 -9 6.5 -17t15.5 -8q3 0 14.5 7.5t23.5 17.5t22 20t10 15q0 15 -4.5 21.5t-26.5 6.5q-6 0 -16.5 -7t-20 -17t-17 -20.5t-7.5 -18.5z M1014 1262q0 -7 6 -14t12 -7q11 0 24.5 9t25.5 21t20 25t8 21q0 14 -11.5 17t-21.5 3q-6 0 -16.5 -7t-21 -18t-18 -24t-7.5 -26z" />
<glyph unicode="N" horiz-adv-x="1112" d="M123 150v1073q0 20 11 44t30 44.5t44.5 34.5t53.5 14q47 0 81 -18t60 -60l287 -461v389q0 150 150 150q151 0 151 -150v-1060q0 -150 -151 -150q-150 0 -150 150v145l-266 424v-569q0 -150 -152 -150q-149 0 -149 150zM162 1267.5q0 -5.5 1.5 -11t5.5 -9.5t11 -4 q9 0 15 4.5t11.5 11t11 14t13.5 13.5l15 9t10 16q0 11 -6 17.5t-19 6.5q-10 0 -22.5 -7t-22.5 -16.5t-17 -19.5t-7 -16v-8.5zM717 1278q0 -4 0.5 -9.5t2.5 -10.5t6 -9t11 -4q10 0 16 4t10.5 10.5t9.5 13.5t13 13q5 3 15 10t10 17q0 11 -5 17.5t-18 6.5q-11 0 -23.5 -7 t-23 -16.5t-17.5 -19.5t-7 -16z" />
<glyph unicode="O" horiz-adv-x="1018" d="M66 727q0 69 4 131t15 118t30 106.5t49 97.5q60 93 148.5 140.5t197.5 47.5q71 0 136 -23t119 -67t94.5 -107.5t60.5 -144.5q14 -54 21 -140.5t7 -201.5q0 -68 -4 -135.5t-12 -120.5q-15 -103 -52.5 -184.5t-93.5 -137t-128.5 -85t-157.5 -29.5q-65 0 -126 20t-112 58 t-90 92t-61 123q-17 52 -31 167t-14 275zM141 1087q0 -6 9 -12t20 -6q8 0 14.5 9t8.5 14q23 46 51 77t55.5 51.5t52.5 33.5t43 22q13 6 20 13t7 26q0 8 -6.5 13t-14.5 5q-19 0 -46 -12t-56 -32.5t-57 -46t-50.5 -53t-36.5 -54t-14 -48.5zM348 598q0 -7 -1 -13q1 -59 5 -109 q4 -54 17 -95t39 -68q17 -18 42 -30.5t48 -12.5q49 0 81.5 23t51.5 71.5t27 125t8 184.5q0 101 -4.5 179t-21 130.5t-48.5 79.5t-86 27q-28 0 -58.5 -16t-50.5 -42q-18 -21 -27.5 -49.5t-14.5 -63.5t-6 -77.5t-1 -91.5v-152zM547 242q0 -11 7.5 -19t16.5 -8q10 0 29 11 t37.5 27.5t32.5 36t14 36.5q0 8 -7.5 14t-17.5 6q-12 0 -18.5 -7t-9.5 -13q-17 -26 -31 -38t-33 -22q-6 -3 -13 -7.5t-7 -16.5z" />
<glyph unicode="P" horiz-adv-x="965" d="M123 150v1093q0 23 9.5 45.5t28.5 39.5t47.5 27.5t65.5 10.5h238q79 0 147 -29.5t117.5 -83.5t78 -129.5t28.5 -167.5q0 -27 -0.5 -50.5t-3 -45.5t-8.5 -44t-17 -48q-20 -46 -53 -84.5t-74.5 -66t-89.5 -43t-98 -15.5h-115v-409q0 -150 -152 -150q-149 0 -149 150z M152 1280q0 -14 5.5 -21.5t20.5 -7.5q2 0 13 9t23 20t22 20.5t10 10.5q0 18 -6.5 24t-22.5 6q-6 0 -17 -8t-21.5 -18t-18.5 -20t-8 -15zM424 842h80q25 0 45 10.5t33.5 27t20.5 37t7 41.5q0 24 -6.5 46.5t-20.5 40t-35 28t-50 10.5h-74v-241zM555 811q0 -14 10.5 -16 t18.5 -2q4 0 14.5 8t22 19t20 23t8.5 19q0 17 -9 20t-22 3q-4 0 -10 -5.5t-12 -13.5t-13 -15.5t-14 -12.5q-8 -7 -11 -11t-3 -16z" />
<glyph unicode="Q" horiz-adv-x="1018" d="M66 727q0 69 4 131t15 118t30 106.5t49 97.5q60 93 148.5 140.5t197.5 47.5q71 0 136 -23t119 -67t94.5 -107.5t60.5 -144.5q14 -54 21 -140.5t7 -201.5q0 -68 -4 -135.5t-12 -120.5q-21 -136 -80 -235q12 -16 23 -31.5t19 -32.5t12.5 -36.5t4.5 -45.5q0 -19 -10.5 -41.5 t-29.5 -41.5t-46.5 -31.5t-62.5 -12.5q-22 0 -41 7.5t-35.5 20t-31 28.5t-27.5 34q-58 -18 -127 -18q-65 0 -126 20t-112 58t-90 92t-61 123q-17 52 -31 167t-14 275zM141 1087q0 -6 9 -12t20 -6q8 0 14.5 9t8.5 14q23 46 51 77t55.5 51.5t52.5 33.5t43 22q13 6 20 13t7 26 q0 8 -6.5 13t-14.5 5q-19 0 -46 -12t-56 -32.5t-57 -46t-50.5 -53t-36.5 -54t-14 -48.5zM348 598q-1 -6 -1 -13q0 -60 5 -109q4 -55 17 -95.5t39 -67.5q8 -9 25 -17t28 -13q-1 2 -4.5 7t-7.5 11.5t-7.5 13t-5.5 9.5q-11 29 3 60t41.5 53.5t63.5 31.5q14 3 26 3q22 0 42 -9 q17 -8 24.5 -15.5t12.5 -15.5q10 47 13.5 106.5t3.5 135.5q0 101 -4.5 179t-21 130.5t-48.5 79.5t-86 27q-28 0 -58.5 -16t-50.5 -42q-18 -21 -27.5 -49.5t-14.5 -63.5t-6 -77.5t-1 -91.5v-152z" />
<glyph unicode="R" horiz-adv-x="1018" d="M123 152v1050q0 33 10.5 62t30 51t48 34.5t64.5 12.5h273q70 0 136.5 -30.5t118 -85t83 -129t31.5 -163.5q0 -70 -13 -123.5t-39 -95.5t-64 -76t-89 -65l215 -387q6 -13 7 -22t1 -23q0 -39 -12.5 -69t-33 -50.5t-46.5 -31.5t-53 -11q-19 0 -38.5 5.5t-36.5 14.5t-30 21.5 t-20 26.5l-242 467v-388q0 -35 -13 -62.5t-34 -46t-48 -28.5t-55 -10q-72 0 -111.5 39.5t-39.5 112.5zM160 1266q0 -11 8 -17t20 -6q7 0 16 14t23 23t20.5 13.5t6.5 23.5q0 6 -5.5 14t-15.5 8q-12 0 -25 -7.5t-23.5 -19t-17.5 -24t-7 -22.5zM424 811h100q27 0 48.5 10 t37 27.5t23.5 41.5t8 52q0 30 -9.5 55t-24 43.5t-32 28.5t-34.5 10h-117v-268zM573 780q0 -11 10 -16.5t21 -5.5q9 0 24 10.5t28.5 24.5t23.5 29.5t10 25.5q0 12 -4 21.5t-18 9.5q-6 0 -13 -6t-14 -15t-14.5 -19t-16.5 -18q-11 -11 -24 -18t-13 -23z" />
<glyph unicode="S" horiz-adv-x="989" d="M82 334q0 25 10.5 50.5t29 46t45 33.5t58.5 13q29 0 49.5 -6t37 -18.5t29.5 -31t26 -42.5q11 -21 23.5 -41t27.5 -35.5t34 -25t44 -9.5q24 0 48.5 10t44 28t31.5 42.5t11 54.5q-1 55 -18.5 90.5t-47 58.5t-69 38t-84.5 28q-144 44 -217.5 142.5t-73.5 240.5 q0 72 30 139.5t81.5 120t121.5 84t150 31.5q74 0 136 -24.5t107.5 -59.5t71 -73.5t25.5 -67.5q0 -38 -11.5 -67.5t-31 -49.5t-45 -30.5t-54.5 -10.5q-37 0 -61.5 14t-46.5 35q-20 20 -40.5 37t-45.5 17q-24 0 -43.5 -10t-33 -25.5t-21 -34t-7.5 -35.5q0 -30 11.5 -51.5 t32.5 -37t50 -27.5t64 -23q92 -28 157.5 -66.5t107.5 -90t61.5 -117.5t19.5 -150q0 -100 -33 -181t-90 -138t-132.5 -88t-159.5 -31q-61 0 -115.5 17.5t-100 46.5t-81.5 65.5t-61 75t-38.5 75t-13.5 64.5zM125 393q0 -12 6 -20t19 -8q4 0 12 7t16.5 16t14.5 17t6 9 q0 8 -5.5 17t-13.5 9q-13 0 -23.5 -6t-17.5 -14.5t-10.5 -16t-3.5 -10.5zM166 1118q0 -12 3.5 -22.5t23.5 -10.5q8 0 13.5 10t8.5 15q12 21 26.5 45t34.5 48t48 46t65 37q23 9 28 15t5 26q0 8 -7.5 11t-15.5 3q-23 0 -49.5 -13t-52.5 -33.5t-49.5 -46t-42 -50t-29 -46 t-10.5 -34.5zM551 233q0 -5 5 -10.5t13 -5.5q16 0 35.5 11.5t37 28t29 35.5t11.5 34q0 8 -3 16t-11 8q-16 0 -21.5 -2t-13.5 -16t-18 -29.5t-33 -28.5q-13 -6 -22 -13.5t-9 -27.5z" />
<glyph unicode="T" horiz-adv-x="932" d="M55 1214q0 34 12.5 62t32 48t43.5 31t47 11h549q34 0 60 -14.5t44 -36t27 -46t9 -44.5q0 -31 -10.5 -59.5t-28.5 -51t-41.5 -36t-50.5 -13.5h-132v-915q0 -69 -42 -109.5t-107 -40.5q-37 0 -65 13.5t-47.5 34.5t-29.5 47t-10 52v918h-116q-28 0 -54.5 12t-46 32 t-31.5 47.5t-12 57.5zM92 1270q0 -8 6 -15.5t13 -7.5q11 0 17 3.5t10 8.5t7 10t7 9q4 3 10.5 6.5t12.5 7.5t10.5 9.5t4.5 11.5q0 20 -9 23t-27 3q-5 0 -15 -7t-20.5 -17t-18.5 -22t-8 -23z" />
<glyph unicode="U" horiz-adv-x="1075" d="M123 385v829q0 36 13.5 64t35 47.5t48 30t52.5 10.5q34 0 62 -12t48 -33t31 -48.5t11 -58.5v-831q0 -26 12.5 -45.5t31 -32.5t40 -19t39.5 -5q44 2 75 30.5t31 71.5v831q0 36 12.5 64.5t33.5 48t48.5 29.5t57.5 10q24 0 51 -7.5t49 -25.5t36 -47q13 -27 13 -66v-6v-827 q0 -75 -34 -146t-91.5 -127t-134 -90t-162.5 -34q-66 0 -138 30t-132.5 82.5t-99.5 125t-39 157.5zM160 1272q0 -9 3.5 -17t10 -11.5t16 0.5t21.5 20q5 7 12.5 12.5t14.5 10t11.5 8.5t4.5 8q0 13 -1 20t-4 10t-9 3.5t-17 0.5q-5 0 -15.5 -7t-21 -17t-18.5 -21.5t-8 -19.5z M578 248q0 -27 24 -27q11 0 27.5 9t31.5 21.5t26 26.5t11 23q0 16 -8.5 21.5t-23.5 5.5q-4 0 -8.5 -4.5t-9.5 -11t-10.5 -13t-10.5 -10.5q-6 -4 -14 -8t-16 -9t-13.5 -10.5t-5.5 -13.5zM690 1272q0 -9 4 -17q4 -7 10 -11q3 -2 7 -2t10 2q10 4 22 20q6 7 13 12.5t13 10 t10.5 8.5t4.5 8q0 13 -0.5 20t-3.5 10t-9 3.5t-17 0.5q-6 0 -16.5 -7t-21 -17t-18.5 -21.5t-8 -19.5z" />
<glyph unicode="V" horiz-adv-x="1014" d="M41 1210q0 29 10.5 56.5t29.5 50t47 36t62 13.5q23 0 46 -7.5t42 -21t33.5 -31t20.5 -38.5l184 -625l166 614q6 24 19 44t31 34.5t39.5 22.5t45.5 8q36 0 65 -12.5t49 -32.5t31 -44t11 -48q0 -20 -1 -34t-7 -34l-301 -1024q-9 -31 -21.5 -56t-30 -43t-40.5 -28t-54 -10 q-34 0 -59 9.5t-42 27t-29 42.5t-21 56l-314 1024q-2 8 -7 23.5t-5 27.5zM76 1260q0 -7 6 -14t14 -7q7 0 20.5 10.5t26.5 23t23 23t10 11.5q0 8 -2.5 18t-13.5 10q-18 0 -33 -8.5t-26.5 -20.5t-18 -25t-6.5 -21zM713 1260q0 -7 6 -14t14 -7q6 0 19.5 10.5t27 23t23.5 23 t10 11.5q0 8 -1.5 18t-12.5 10q-18 0 -33.5 -9t-27 -21t-18.5 -24.5t-7 -20.5z" />
<glyph unicode="W" horiz-adv-x="1460" d="M41 1212q0 26 9.5 53.5t29 50t49 36.5t68.5 14q46 0 84.5 -27.5t52.5 -78.5l186 -656l72 230l-107 366q-3 13 -3.5 21t-0.5 20q0 18 9 39.5t28.5 40.5t50 32t74.5 13q57 0 89 -25.5t46 -80.5l172 -662l178 662q14 54 51.5 80t102.5 26q26 0 50.5 -12t44.5 -32.5t32 -46.5 t12 -54v-11t-2 -10l-317 -1094q-14 -46 -53.5 -76t-96.5 -30q-51 0 -86.5 26t-52.5 80l-80 252l-74 -249q-17 -56 -56 -82.5t-83 -26.5q-24 0 -46.5 7t-42 21t-34 34.5t-22.5 46.5l-324 1054q-2 8 -6 22.5t-4 26.5zM78 1266q0 -21 28 -21q1 0 11 8.5t22 19t21.5 21t9.5 13.5 q0 8 -2.5 17t-13.5 9q-15 0 -29 -8t-24.5 -19.5t-16.5 -22.5t-6 -17zM516 1266q0 -7 4 -13.5t10 -9.5q3 -2 7 -1q5 0 9 1q8 3 17 14q9 12 18 18.5t16 11t11 8t4 8.5q0 11 -5.5 20.5t-16.5 9.5q-10 0 -23 -6t-24 -16t-19 -22t-8 -23zM1159 1270q0 -7 3.5 -14.5t9.5 -10.5 q3 -1 7 -1q3 0 9 2q10 4 22 18q13 15 27 26t14 13q0 11 -1.5 22.5t-16.5 11.5q-13 0 -26.5 -8t-24 -19.5t-17 -22.5t-6.5 -17z" />
<glyph unicode="X" horiz-adv-x="1081" d="M68 160q0 11 3.5 24t8.5 21l264 512l-225 444q-10 19 -10 33.5v34.5q0 22 10.5 46t30 44.5t46.5 33.5t60 13q45 0 79.5 -19t51.5 -51l156 -301l151 301q7 15 20.5 27.5t30 22t35.5 15t37 5.5q36 0 65 -12.5t49 -33t31 -45.5t11 -50q0 -19 -1.5 -33t-10.5 -31l-224 -444 l264 -512q7 -11 10 -20t3 -21q0 -37 -12 -67t-33 -51.5t-49 -33.5t-60 -12q-18 0 -37 5.5t-35.5 15t-30 22t-20.5 25.5l-194 378l-197 -376q-15 -31 -51 -50.5t-78 -19.5q-29 0 -56 10.5t-47.5 31t-33 50t-12.5 68.5zM145 1276q0 -17 8.5 -22t20.5 -5q2 0 12 8t21.5 18.5 t21 21t9.5 16.5q0 21 -14.5 22.5t-32 -8t-32 -24.5t-14.5 -27zM709 1272q0 -9 4 -17t10 -8q11 0 24 9.5t25 21.5q14 14 29 31q0 8 -3 18t-14 10q-13 0 -26.5 -8t-24.5 -18.5t-17.5 -21.5t-6.5 -17z" />
<glyph unicode="Y" horiz-adv-x="1036" d="M68 1214q0 33 11.5 61t32 48.5t48 31.5t59.5 11q50 0 86.5 -23.5t48.5 -58.5l160 -434l168 434q15 40 48 61t79 21q42 0 71.5 -14.5t49 -36t28.5 -45.5t9 -43q0 -17 -1 -28.5t-8 -27.5l-292 -665v-359q0 -29 -12 -55.5t-33 -47t-48.5 -32.5t-58.5 -12q-29 0 -56 12 t-47.5 32.5t-33 47.5t-12.5 58v356l-279 641q-5 12 -11.5 31t-6.5 36zM109 1268q0 -6 6.5 -12.5t15.5 -6.5q4 0 15.5 8.5t23.5 19.5q14 12 31 28q0 11 -5 21.5t-18 10.5q-6 0 -17.5 -5t-23 -14t-20 -22t-8.5 -28zM705 1268q0 -8 6.5 -14.5t15.5 -6.5q5 0 17 8.5t24 19.5 q14 12 31 28q0 11 -2.5 21.5t-18.5 10.5q-13 0 -26 -6t-23.5 -16t-17 -22t-6.5 -23z" />
<glyph unicode="Z" horiz-adv-x="934" d="M68 150q0 17 2 29t10 28l379 858h-211q-28 0 -54 11t-46.5 31.5t-33 48.5t-12.5 61q0 26 10.5 52.5t30.5 48t50 35t69 13.5h422q27 0 53 -12t46.5 -32t33 -46t12.5 -53q0 -19 -2 -31t-10 -29l-368 -862h274q27 0 52.5 -11t46 -31.5t32.5 -48t12 -60.5q0 -27 -11.5 -54 t-31 -48t-45.5 -34.5t-55 -13.5h-496q-31 0 -59.5 13t-50.5 34t-35.5 48t-13.5 55zM102 199q0 -10 4.5 -17.5t10.5 -7.5q12 0 18 1t9 4t4.5 9t5.5 15q5 11 8.5 17.5t3.5 17.5q0 6 -4 11t-10 5q-12 0 -18.5 -1.5t-10.5 -5.5t-6 -9.5t-6 -14.5q0 -2 -4.5 -10t-4.5 -14z M141 1268q0 -8 8 -15.5t17 -7.5q2 0 13.5 7.5t24 18t22.5 21.5t10 17q0 14 -8.5 20t-20.5 6q-4 0 -14.5 -6t-22 -16t-20.5 -22t-9 -23z" />
<glyph unicode="[" horiz-adv-x="874" d="M104 -59v1482q0 31 12.5 58t34.5 47t51.5 31.5t63.5 11.5h400q33 0 58 -11t41.5 -30.5t25 -46t8.5 -56.5q0 -65 -35.5 -104t-110.5 -39h-266v-1202h266q75 0 110.5 -39t35.5 -104q0 -26 -9 -52t-26.5 -46.5t-42 -33t-55.5 -12.5h-400q-34 0 -63.5 11.5t-51.5 31t-34.5 46 t-12.5 57.5zM137 1464q0 -6 5.5 -11t15.5 -5q4 0 17 10t27.5 23t26 25.5t11.5 17.5q0 8 -9.5 14t-17.5 6q-5 0 -17.5 -6.5t-25.5 -18t-23 -26t-10 -29.5z" />
<glyph unicode="\" horiz-adv-x="815" d="M84 1198v8q0 19 11 48t28 51q29 35 63.5 43t69.5 8q13 0 30.5 -7.5t34 -19.5t29.5 -28t19 -33l360 -1067q2 -6 5 -19t3 -22q0 -33 -11.5 -62t-33 -51t-52 -34.5t-69.5 -12.5q-17 0 -36 7.5t-36 19.5t-30 27.5t-18 31.5l-365 1104q-2 5 -2 8zM115 1198q1 -7 5.5 -12.5 t11.5 -8.5t14.5 -2t13.5 7q5 5 6 12t3 15t7.5 17t20.5 19q8 6 6 16.5t-9.5 19.5t-18 12.5t-21.5 -5.5q-4 -3 -12 -9.5t-15 -17.5t-11 -26.5t-1 -36.5z" />
<glyph unicode="]" horiz-adv-x="874" d="M76 -61q0 65 35.5 104t109.5 39h266v1202h-266q-74 0 -109.5 39t-35.5 104q0 29 8.5 55.5t25 46t41.5 31t58 11.5h399q34 0 63.5 -11.5t51.5 -31.5t34.5 -47t12.5 -58v-1482q0 -31 -12.5 -57.5t-34.5 -46t-51.5 -31t-63.5 -11.5h-399q-31 0 -55.5 12.5t-41.5 33 t-26.5 46.5t-9.5 52zM117 1464q0 -6 5.5 -11t14.5 -5q4 0 17 10t27 23t25 25.5t11 17.5q0 8 -8 14t-16 6q-6 0 -18.5 -6.5t-25 -18t-22.5 -26t-10 -29.5zM125 -25q0 -6 6 -11t14 -5q4 0 17 10t27 23.5t25 26t11 16.5q0 8 -8 14t-16 6q-6 0 -18.5 -6.5t-25 -17.5t-22.5 -25.5 t-10 -30.5z" />
<glyph unicode="^" horiz-adv-x="1024" d="M123 922l307 444h164l307 -444h-190l-199 292l-199 -292h-190z" />
<glyph unicode="_" horiz-adv-x="956" d="M0 -358h956v-154h-956v154z" />
<glyph unicode="`" horiz-adv-x="469" d="M82 1374q0 28 10.5 50.5t26.5 38t34.5 24t34.5 8.5q27 0 47.5 -7t35 -16.5t23.5 -21t13 -20.5l72 -164q8 -17 8 -33q0 -29 -10.5 -52.5t-26.5 -40t-36 -25.5t-40 -9q-42 0 -70.5 21t-39.5 44l-76 170q-5 10 -5.5 17t-0.5 16zM104 1411q0 -5 7.5 -11.5t13.5 -6.5 q11 0 13 4.5t5 9.5q4 6 11 10.5t13.5 10t11.5 11.5t5 15q0 6 -6 13.5t-12 7.5q-8 0 -18.5 -6t-20.5 -15.5t-16.5 -21t-6.5 -21.5z" />
<glyph unicode="a" horiz-adv-x="879" d="M76 315q0 119 58 207.5t169 128.5l209 76q0 12 -1 29.5t-7.5 34t-21 28.5t-40.5 12q-21 0 -37 -9t-32 -19.5t-35 -19.5t-47 -9q-25 0 -49 10t-43 27.5t-31 40.5t-12 49q0 43 14 71.5t49 53.5q20 14 46 26t56 21t62 14t63 5q62 0 120.5 -23.5t105 -70.5t74.5 -116t28 -161 v-576q0 -34 -11.5 -60.5t-30.5 -45.5t-41.5 -29t-45.5 -10q-34 0 -60.5 14t-49.5 37q-35 -18 -73 -34.5t-87 -16.5q-55 0 -109 21t-96 61.5t-68 99t-26 133.5zM129 453q0 -8 7 -16.5t14 -8.5q15 0 21 10t15 27q10 18 24 35.5t29.5 32.5t32 27t31.5 18q11 5 26 12t15 22 q0 10 -6.5 16.5t-15.5 6.5q-25 0 -58.5 -21t-63.5 -50t-50.5 -60t-20.5 -51zM211 989q0 -23 16.5 -28.5t28.5 8.5q6 8 12 11.5t11.5 7t8.5 7.5t3 13q-1 18 -13 20q-4 1 -7 1q-9 0 -20 -4q-15 -6 -27.5 -17t-12.5 -19zM324 336q0 -16 6 -32.5t17.5 -29.5t28 -21.5t38.5 -8.5 q20 0 37.5 9t30.5 23t20.5 32.5t7.5 37.5v119l-127 -45q-26 -9 -42.5 -32.5t-16.5 -51.5zM463 215q0 -6 7 -12t15 -6q5 0 15 5t20.5 13t18.5 18t8 19q0 11 -8 17.5t-19 6.5q-16 -9 -28 -20q-11 -9 -20 -19.5t-9 -21.5z" />
<glyph unicode="b" horiz-adv-x="918" d="M104 360v891q0 33 11 57.5t30 41t44.5 24.5t54.5 8q27 0 53 -7t46 -22t32 -39.5t12 -60.5v-178q22 6 56.5 13.5t72.5 7.5q170 0 259 -124.5t89 -373.5q0 -103 -7.5 -187.5t-29.5 -150.5q-21 -62 -56.5 -111t-83 -83t-104 -52t-118.5 -18q-78 0 -144 29t-114 78.5 t-75.5 115.5t-27.5 141zM135 1296q0 -9 6 -17.5t13 -8.5q9 0 14.5 4t10 9t8 11t8.5 9q5 5 14.5 8t9.5 18q0 8 -3.5 17.5t-12.5 9.5q-15 0 -27.5 -8t-21.5 -18t-14 -20t-5 -14zM387 354q0 -18 7.5 -32t19 -24.5t26 -16t29.5 -5.5q37 0 59.5 28t35 72.5t17 99.5t5.5 108 q0 18 1 46t-1.5 58.5t-9 61.5t-20.5 56t-36.5 40.5t-56.5 15.5q-32 0 -54 -17t-22 -48v-443zM494 231q0 -12 6.5 -19t15.5 -7t24 5.5t29.5 16t25.5 26.5t11 38q0 9 -10 11.5t-18 2.5q-2 0 -6.5 -5t-11 -12.5t-16.5 -15.5t-22 -14l-17 -8.5t-11 -18.5z" />
<glyph unicode="c" horiz-adv-x="858" d="M74 467q0 134 6 234t35 169q21 52 53.5 93.5t74.5 70.5t92 44.5t105 15.5q72 0 130 -24t98.5 -59t62 -75.5t21.5 -73.5q0 -31 -12.5 -56t-30.5 -42t-39 -26t-39 -9q-25 0 -43.5 4t-33 12t-26.5 20t-24 28q-26 34 -70 34q-26 0 -44 -13t-29 -44.5t-16 -84t-5 -130.5 q0 -64 6 -117.5t18.5 -91.5t32.5 -59t47 -21q25 0 44 15.5t34 40.5q20 34 46 51.5t69 17.5q33 0 59 -11.5t43.5 -29.5t27 -40t9.5 -44q0 -43 -24.5 -90t-68.5 -86t-103.5 -64.5t-130.5 -25.5q-82 0 -151 30t-119 88.5t-77.5 146t-27.5 202.5zM141 872q0 -17 8 -21.5t23 -4.5 q6 0 13 13.5t12 21.5q13 24 32 45.5t41.5 39.5t45.5 30.5t44 17.5q11 3 23 7t12 21q0 13 -10.5 19t-26.5 6q-27 0 -64 -23.5t-71 -55.5t-58 -64.5t-24 -51.5zM557 319q0 -17 7.5 -20.5t17.5 -3.5q3 0 11.5 5.5t17 13.5t15.5 16.5t7 13.5q0 12 -10 16.5t-21 4.5 q-1 0 -8.5 -3.5t-15.5 -10t-14.5 -15t-6.5 -17.5z" />
<glyph unicode="d" horiz-adv-x="909" d="M45 598q0 249 89 373.5t259 124.5q38 0 73 -7.5t56 -13.5v178q0 36 12 60.5t32 39.5t46 22t54 7q29 0 54.5 -8t44 -24.5t29.5 -41t11 -57.5v-891q0 -75 -27.5 -141t-75.5 -115.5t-114 -78.5t-144 -29q-62 0 -118.5 18t-103.5 52t-83 83t-57 111q-22 66 -29.5 150.5 t-7.5 187.5zM123 852q0 -5 6 -10.5t14 -5.5q11 0 20 14t15 27q25 49 63 83t76 50q7 3 16 6.5t16.5 8t12.5 10t5 12.5q0 12 -7 17t-18 7q-17 2 -41 -7t-50 -24.5t-50.5 -37.5t-43.5 -46.5t-29 -51.5q-7 -19 -6 -37q0 -8 1 -15zM323 630q1 -28 1 -46q1 -53 5.5 -108 t16.5 -99.5t34.5 -72.5t59.5 -28q15 0 29.5 5.5t26 16t19 24.5t7.5 32v443q0 31 -22 48t-54 17q-34 0 -56.5 -15.5t-36.5 -40.5t-21 -56q-6 -32 -8 -62q-1 -20 -1 -39v-19zM483 233q0 -12 5.5 -19t19.5 -7q7 0 20.5 9.5t27 22.5t24 25t10.5 17q0 26 -25 26q-5 0 -11 -4.5 t-13 -11.5t-13.5 -14t-13.5 -13q-8 -6 -19.5 -12t-11.5 -19zM561 1294q0 -9 4.5 -15.5t14.5 -6.5q4 0 14.5 7.5t22 17t20 18t8.5 10.5q0 22 -13 26q-5 1 -9 1q-9 0 -20 -4q-16 -8 -29 -23.5t-13 -30.5z" />
<glyph unicode="e" horiz-adv-x="856" d="M78 520q0 94 5 172.5t17 130.5q15 63 44 113t70 84.5t92.5 53t111.5 18.5q80 0 143.5 -29t108 -76t68.5 -107.5t24 -123.5q0 -43 -13 -85t-36 -78t-55 -65t-70 -47l-240 -108q2 -53 23.5 -80t56.5 -27q29 0 56.5 24.5t74.5 78.5q14 17 31 20.5t39 3.5q32 0 58.5 -10 t45.5 -27t30 -40.5t11 -49.5q0 -43 -23.5 -90t-66.5 -86t-103.5 -64.5t-134.5 -25.5q-165 0 -272 125q-33 39 -52 81.5t-29 90.5t-12.5 103.5t-2.5 119.5zM139 864q0 -9 10.5 -12.5t18.5 -3.5q3 0 7 5t8 11.5t7.5 14t6.5 12.5q21 42 52.5 69t63.5 41q13 5 27 13t14 26 q0 11 -9.5 16t-18.5 5t-26 -8t-38 -22.5t-42.5 -33.5t-39.5 -41t-29.5 -45.5t-11.5 -46.5zM340 690q0 -8 1 -25t1 -26l131 66q12 6 17.5 21.5t5.5 29.5q0 37 -22.5 56t-51.5 19q-82 0 -82 -141zM471 664q0 -8 4.5 -16.5t9.5 -8.5q15 0 28.5 7.5t23 17.5t15 20t5.5 14 q0 11 -7 19t-18 8q-2 0 -12 -8.5t-21 -19t-19.5 -20.5t-8.5 -13zM553 315q0 -9 9.5 -12.5t19.5 -3.5q13 7 24 15q9 7 16 16t7 20q0 6 -8.5 11.5t-14.5 5.5q-4 0 -13 -4.5t-18 -11.5t-15.5 -16.5t-6.5 -19.5z" />
<glyph unicode="f" horiz-adv-x="733" d="M104 152v868q0 66 26.5 129.5t75.5 113t118.5 79.5t156.5 30q86 0 127 -36.5t41 -90.5q0 -33 -10.5 -58t-27 -42.5t-37 -26.5t-39.5 -10q-23 -1 -49 -1t-48 -7.5t-36.5 -27t-14.5 -58.5q0 -19 -1 -31t1 -31h133q30 0 54 -11.5t41.5 -30.5t26.5 -43t9 -50q0 -30 -12.5 -55 t-31.5 -42.5t-42.5 -27.5t-46.5 -10h-131v-539q0 -28 -11 -54t-30 -45.5t-44 -31.5t-54 -12q-25 0 -50.5 9t-46.5 27.5t-34 47.5t-13 68zM156 1141q0 -11 12.5 -14t21.5 -3q5 0 11 9t8 14q23 49 57.5 78.5t77.5 48.5q9 3 19 11.5t10 21.5q0 8 -6.5 15t-14.5 7 q-16 0 -36.5 -10.5t-42.5 -27t-43 -37.5t-37.5 -41.5t-26.5 -39.5t-10 -32z" />
<glyph unicode="g" horiz-adv-x="891" d="M68 82q0 33 8.5 60.5t21.5 51t29.5 43t32.5 37.5q-26 38 -43 68.5t-26.5 62t-13 68t-3.5 86.5q0 119 7.5 203.5t24.5 124.5q18 43 52 80.5t75 65.5t84 44.5t80 16.5h267q17 0 38 -10t40 -27t31.5 -39.5t12.5 -48.5q0 -41 -12.5 -65t-28.5 -46q6 -16 13 -36t12 -45.5 t8.5 -58t3.5 -73.5q0 -106 -11 -180.5t-39.5 -126.5t-77.5 -86.5t-124 -61.5q-3 -8 -6.5 -17.5t-10 -17.5t-16.5 -13t-26 -5h-72q-35 0 -52 -15t-17 -38q0 -35 31.5 -48t99.5 -13q18 0 42 4t49.5 8.5t50.5 8t44 3.5q26 0 49 -10t41 -28.5t28.5 -43.5t10.5 -55 q0 -88 -80 -123t-247 -35q-94 0 -165 25t-119 69.5t-72.5 105t-24.5 130.5zM120 849q4 -15 21 -15q14 0 22 10.5t13 21.5q12 24 28.5 45.5t35 39t36.5 29.5t33 17q9 3 16.5 6t13.5 6.5t9.5 10t3.5 16.5q0 8 -5.5 15.5t-14.5 7.5q-16 0 -43.5 -14t-57.5 -38t-58 -54.5 t-44 -63.5q-9 -19 -9 -33v-7zM123 190q0 -11 7.5 -15.5t16.5 -4.5q5 0 14 7.5t18 17.5t15.5 20t6.5 14q0 20 -12 21t-27 -8t-27 -24.5t-12 -27.5zM330 688q0 -71 1.5 -122.5t10.5 -84.5t29 -49t57 -16q17 0 34 8t31 23.5t22.5 40t8.5 57.5q0 14 -2 48t-2 81q0 75 -18 117.5 t-72 42.5q-48 0 -74 -38.5t-26 -107.5zM459 383q0 -12 6.5 -17.5t17.5 -5.5q10 0 25 9.5t28.5 23t23 27t9.5 20.5q0 10 -5.5 17.5t-14.5 7.5q-11 0 -17.5 -6t-9.5 -13q-5 -9 -11.5 -17t-25.5 -17q-6 -3 -16 -10t-10 -19z" />
<glyph unicode="h" horiz-adv-x="936" d="M104 147v1102q0 26 10 48t28 39t42.5 26.5t53.5 9.5q35 0 63 -11.5t47 -30t29 -42t10 -47.5v-176q26 9 59 18t68 9q62 0 119 -26t101 -72t70.5 -109t26.5 -137v-601q0 -35 -12.5 -62.5t-32 -46t-43.5 -28.5t-47 -10q-26 0 -51 10.5t-45 30t-32.5 46.5t-12.5 60v605 q0 15 -8.5 30t-21.5 27t-29 19.5t-31 7.5q-32 0 -55 -12.5t-23 -37.5v-639q0 -32 -12 -59t-31.5 -46.5t-45.5 -30.5t-54 -11t-53 10t-44.5 29t-31 46.5t-11.5 61.5zM137 1284q0 -22 25 -22q5 0 15 7.5t20 17t17 19.5t7 15q0 21 -13 23q-3 1 -6 1q-11 -1 -23 -7 q-16 -8 -29 -23.5t-13 -30.5z" />
<glyph unicode="i" horiz-adv-x="494" d="M104 147v820q0 25 10 47.5t28 39t42.5 26.5t53.5 10q35 0 63 -11.5t47 -30.5t29 -42.5t10 -47.5v-811q0 -32 -12 -59t-31.5 -46.5t-45.5 -30.5t-54 -11t-53 10t-44.5 29t-31 46.5t-11.5 61.5zM104 1241q0 29 11.5 54.5t31 45.5t45.5 31.5t54 11.5q27 0 52.5 -12t45 -32 t31.5 -45.5t12 -53.5t-9.5 -52.5t-28 -43t-44.5 -29t-59 -10.5q-29 0 -55 11.5t-45.5 30.5t-30.5 43.5t-11 49.5zM137 1001q0 -22 25 -22q5 0 15 7.5t20 17t17 19.5t7 15q0 22 -13 24.5t-29 -6.5t-29 -24.5t-13 -30.5zM139 1288q0 -11 7 -15.5t18 -4.5q5 0 15 7.5t20 17 t17 19.5t7 15q0 21 -13 23q-3 1 -6 1q-11 0 -23 -7q-16 -9 -29 -25t-13 -31z" />
<glyph unicode="j" horiz-adv-x="580" d="M61 -166q0 17 5.5 35t13.5 33.5t17 26t16 12.5q20 4 35 15.5t25 29t15 39t5 43.5v878q0 23 10 48t29 45t45 33t57 13t57 -12t44.5 -30.5t29 -41.5t10.5 -45v-884q0 -57 -8 -101.5t-26.5 -81t-47.5 -68.5t-71 -63q-31 -23 -62 -39t-63 -16q-31 0 -56 11.5t-43 30.5 t-27.5 42t-9.5 47zM193 1241q0 29 11 54.5t30 45.5t44.5 31.5t53.5 11.5t53.5 -12t45.5 -32t32 -45.5t12 -53.5t-10 -52.5t-28.5 -43t-45 -29t-59.5 -10.5q-29 0 -54.5 11.5t-44 30.5t-29.5 43.5t-11 49.5zM225 1288q0 -11 7 -15.5t18 -4.5q5 0 15 7.5t20 17t17 19.5t7 15 q0 21 -13 23q-3 1 -6 1q-10 0 -23 -7q-16 -9 -29 -25t-13 -31zM229 995q0 -7 5 -12.5t12 -8.5q5 -1 9 -1t7 1q9 2 17 11q11 12 18.5 17.5t12 9t7 7t2.5 11.5q0 21 -14 24h-7q-11 0 -24 -6q-17 -9 -31 -24t-14 -29z" />
<glyph unicode="k" horiz-adv-x="948" d="M104 150v1087q0 26 10.5 51t29.5 44t44.5 30.5t55.5 11.5q27 0 53 -11.5t46 -30t32 -42t12 -47.5v-465l217 277q19 23 43.5 30t54.5 7q28 0 52 -9.5t42 -27.5t28 -44t10 -59q0 -12 -4 -28.5t-13 -28.5l-209 -260l246 -428q8 -13 10 -23t2 -24q0 -42 -12 -72.5t-32.5 -50 t-46 -28.5t-52.5 -9q-15 0 -31.5 5.5t-32.5 14t-29 19.5t-20 22l-186 332l-37 -43v-217q0 -29 -13 -53.5t-33.5 -42t-46 -27.5t-50.5 -10q-22 0 -47 8.5t-45.5 26.5t-34 46.5t-13.5 68.5zM143 1284q0 -7 3.5 -14t10.5 -10.5t16 -0.5t20 17q6 7 12.5 11t12.5 7.5t9.5 8.5 t3.5 14t-7 16.5t-15 7.5q-16 0 -28.5 -7.5t-20.5 -17t-12.5 -19t-4.5 -13.5zM600 1006q0 -11 6.5 -16t16.5 -5q11 0 19 10t13 15q6 5 10.5 8t6.5 6t3 8t1 15q0 8 -11 11t-20 3q-3 0 -10.5 -6t-15 -14.5t-13.5 -18t-6 -16.5z" />
<glyph unicode="l" horiz-adv-x="494" d="M104 150v1087q0 26 10.5 51t29.5 44t44.5 30.5t55.5 11.5q27 0 53 -11.5t46 -30t32 -42t12 -47.5v-1110q0 -29 -13 -53.5t-33.5 -42t-46 -27.5t-50.5 -10q-22 0 -47 8.5t-45.5 26.5t-34 46.5t-13.5 68.5zM143 1284q0 -7 3 -14q4 -6 11 -10q4 -2 8 -2t8 1q9 3 20 17 q6 7 12.5 11t12.5 7.5t9.5 8.5t3.5 14t-7 16.5t-15 7.5q-16 0 -28.5 -7.5t-20.5 -17t-12.5 -19t-4.5 -13.5z" />
<glyph unicode="m" horiz-adv-x="1352" d="M104 139v613q0 32 9 69.5t28 75t48.5 73t69.5 62.5t92 43.5t116 16.5q35 0 60.5 -4t48.5 -13t46.5 -24t53.5 -37q26 19 48 33.5t46 24.5t53 15t70 5q82 0 147.5 -32t111 -80.5t69.5 -105.5t24 -108v-627q0 -26 -11.5 -51t-30 -44.5t-42.5 -31.5t-49 -12q-34 0 -61.5 13.5 t-47 33.5t-30 44.5t-10.5 45.5v615q0 9 -5.5 20.5t-15 21t-22 16.5t-27.5 7q-11 0 -24 -4.5t-24.5 -13t-19.5 -21t-8 -28.5v-611q0 -28 -10.5 -53.5t-29 -44.5t-43.5 -30t-54 -11q-34 0 -60.5 12.5t-45.5 32.5t-29 44t-10 48v615q0 10 -5.5 21.5t-15.5 21t-23.5 16 t-29.5 6.5q-14 0 -27 -6.5t-23.5 -16.5t-17 -21.5t-6.5 -22.5v-613q0 -32 -12.5 -57.5t-33 -43t-46 -27t-51.5 -9.5q-30 0 -55.5 12.5t-44.5 32t-29.5 44.5t-10.5 50zM160 866q0 -6 4.5 -12t9.5 -6q14 0 19 1t14 17q16 32 35.5 56t40.5 42t41 30t38 18q10 3 22.5 9.5 t12.5 20.5q0 21 -20 21q-18 0 -41 -10.5t-47 -27t-47.5 -37.5t-41.5 -43t-29 -42.5t-11 -36.5zM705 987q0 -6 7.5 -10t16.5 -4q6 0 27.5 14t44.5 27q8 3 17 9.5t9 20.5q0 7 -7 14t-13 7q-3 0 -19.5 -6t-34.5 -16.5t-33 -25t-15 -30.5z" />
<glyph unicode="n" horiz-adv-x="946" d="M104 139v613q0 65 26 126.5t73 109.5t113 77t147 29q96 0 166.5 -30t124.5 -95q42 -50 64 -104t22 -99v-629q0 -32 -13 -57.5t-34 -43t-47 -27t-52 -9.5q-30 0 -55 12.5t-43.5 32t-28.5 44.5t-10 50v613q0 10 -5 23t-15.5 24.5t-27 19.5t-40.5 8q-16 0 -31 -7.5t-26 -19 t-18 -25t-7 -25.5v-613q0 -32 -12.5 -57.5t-33 -43t-46 -27t-51.5 -9.5q-30 0 -55.5 12.5t-44.5 32t-29.5 44.5t-10.5 50zM162 862q0 -8 8.5 -11t17.5 -3q8 0 14 9t9 15q22 51 59.5 84.5t96.5 55.5q9 3 21.5 10.5t12.5 15.5q0 23 -22 23q-27 0 -64.5 -20t-71 -50t-57.5 -65 t-24 -64z" />
<glyph unicode="o" horiz-adv-x="893" d="M78 547q0 90 4 164t22 131q19 57 52.5 103.5t78 80t98 52t113.5 18.5q82 0 150.5 -29.5t118.5 -87t78 -143t28 -197.5v-136t-4 -117t-12.5 -99t-26.5 -82q-21 -46 -54.5 -84.5t-76 -66t-93 -43t-105.5 -15.5q-60 0 -115.5 19.5t-101.5 55.5t-80 86.5t-52 112.5 q-11 42 -16.5 113t-5.5 164zM139 860q0 -8 8 -14t17 -6q11 0 21 13t16 24q31 55 71.5 87.5t71.5 45.5q12 5 27.5 11t15.5 23q0 14 -9.5 17.5t-19.5 3.5q-18 0 -41 -11.5t-47.5 -30t-48 -41.5t-41.5 -45.5t-29.5 -43t-11.5 -33.5zM344 532q0 -59 3 -109.5t13.5 -87.5 t31.5 -58t57 -21q60 0 85 50t25 149q0 98 -2 170t-12.5 119t-32 69.5t-61.5 22.5q-41 0 -63 -20t-31.5 -59t-11 -95.5t-1.5 -129.5zM494 229q0 -11 5.5 -17.5t16.5 -6.5q10 0 25 9.5t29 22.5t24 27.5t10 24.5q0 22 -22 22q-7 0 -13 -5t-12 -12t-12.5 -15.5t-14.5 -14.5 q-9 -6 -22.5 -15.5t-13.5 -19.5z" />
<glyph unicode="p" horiz-adv-x="922" d="M104 -162v914q0 64 27 125.5t75.5 109.5t115.5 77.5t147 29.5q54 0 104.5 -13.5t93 -38.5t76 -59t54.5 -76q29 -59 39 -146t10 -208q0 -140 -13 -238t-47 -157q-20 -34 -50 -63t-66.5 -49.5t-78 -32t-83.5 -11.5q-37 0 -67.5 7.5t-53.5 15.5v-187q0 -32 -12.5 -58 t-33 -44t-46 -27.5t-51.5 -9.5q-30 0 -55.5 12.5t-44.5 32t-29.5 44.5t-10.5 50zM156 864q0 -8 5.5 -16t10.5 -8q20 0 26.5 8.5t18.5 30.5q26 45 61.5 76t81.5 51q8 3 20.5 10.5t12.5 15.5q0 11 -8.5 18t-19.5 7q-26 0 -62 -24t-68.5 -56t-55.5 -64t-23 -49zM387 356 q0 -45 20 -69.5t62 -24.5q36 0 58 16.5t33.5 48t15.5 76t4 99.5q0 34 -5 97.5t-10 154.5q-1 14 -8.5 28t-20 25.5t-29.5 19t-36 7.5q-16 0 -31 -6t-27 -16t-19 -23t-7 -27v-406zM504 227q0 -9 6 -15.5t12 -6.5q15 0 32.5 9t32.5 22.5t25.5 29.5t10.5 31q0 8 -9.5 12t-23.5 4 q-3 0 -8 -6t-11.5 -14t-15 -17t-18.5 -14q-8 -4 -20.5 -11t-12.5 -24z" />
<glyph unicode="q" horiz-adv-x="909" d="M78 565q0 107 5.5 184.5t22.5 122.5q18 47 51.5 87.5t78.5 70.5t99.5 47t113.5 17q73 0 137.5 -28t113 -78.5t77 -119.5t28.5 -151v-879q0 -32 -12.5 -58t-33 -44t-46 -27.5t-51.5 -9.5q-30 0 -55.5 12t-44.5 31.5t-29.5 44.5t-10.5 51v187q-21 -11 -37.5 -16t-30.5 -6.5 t-27 -1t-28 0.5q-25 0 -52 5t-53 14.5t-49.5 23t-41.5 29.5q-40 35 -64.5 84t-38 110.5t-18 135.5t-4.5 161zM135 868q0 -9 7.5 -16.5t17.5 -7.5q11 0 18 10.5t12 19.5q11 22 27.5 41.5t35 35t36 27t30.5 17.5q6 2 13 5.5t14 8.5t11.5 10.5t4.5 12.5q0 8 -5.5 16.5 t-14.5 8.5q-14 0 -35 -10t-44 -26t-46 -36t-41 -41t-29.5 -41t-11.5 -35zM334 604q0 -85 2.5 -149t13 -107t32.5 -64.5t60 -21.5q35 0 57.5 16t22.5 33v400q0 25 -3 47.5t-12 39t-24 26.5t-39 10q-63 0 -86.5 -55t-23.5 -175zM481 231q0 -9 7 -16.5t16 -7.5q14 0 29.5 10.5 t15.5 20.5q0 11 -2 19.5t-19 8.5q-23 0 -35 -12.5t-12 -22.5z" />
<glyph unicode="r" horiz-adv-x="739" d="M104 139v621q0 61 29.5 120.5t81 106.5t121 76t149.5 29q88 0 137.5 -37.5t49.5 -100.5q0 -31 -11.5 -57.5t-30 -46t-43 -30.5t-50.5 -11h-68q-22 0 -37.5 -8t-25.5 -19.5t-14.5 -24.5t-4.5 -22v-598q0 -32 -12.5 -57.5t-33 -43t-46 -27t-51.5 -9.5q-30 0 -55.5 12.5 t-44.5 32t-29.5 44.5t-10.5 50zM160 856q0 -6 2 -16.5t14 -10.5q17 0 22 5.5t11 19.5q23 54 63 91.5t97 60.5q9 3 18.5 8.5t9.5 19.5q0 8 -5 14.5t-13 6.5q-28 0 -65.5 -22.5t-71.5 -54t-58 -65.5t-24 -57z" />
<glyph unicode="s" horiz-adv-x="868" d="M82 274q0 21 10.5 43t30 40.5t47 30t61.5 11.5q32 0 55 -18.5t42 -46.5q20 -29 42 -50.5t56 -21.5q23 0 39.5 7t28 17.5t18 23t8.5 22.5q4 16 4 29q0 33 -22 56q-31 32 -96 52q-68 21 -119 47.5t-85.5 62t-51.5 82.5t-17 111q0 61 24.5 119t68.5 103.5t106.5 73.5 t138.5 28q57 0 109.5 -16t92 -42t63.5 -58.5t24 -64.5t-10.5 -59t-28.5 -46t-41 -29.5t-47 -10.5q-37 0 -58 10.5t-38 24.5q-14 11 -31 21t-43 10q-15 0 -27.5 -6.5t-21.5 -17t-14 -23.5t-5 -27q0 -21 8.5 -34.5t23 -22.5t33.5 -14.5t40 -10.5q72 -17 125.5 -50t89.5 -75.5 t53.5 -92.5t17.5 -100q0 -76 -27 -143t-76 -116.5t-118 -78t-153 -28.5q-68 0 -128 24.5t-105 64.5t-71 89.5t-26 99.5zM133 328q0 -10 6.5 -15.5t16.5 -5.5q5 0 15.5 5t20.5 11.5t17.5 14t7.5 12.5q0 14 -8 19.5t-21 5.5q-3 0 -12 -4t-18.5 -11t-17 -15.5t-7.5 -16.5z M188 893q0 -9 4 -20t15 -11q20 0 27 12.5t12 24.5q30 67 102 98q9 4 19.5 9t19.5 10.5t15 12t6 13.5q0 8 -7.5 15.5t-15.5 7.5q-23 0 -56.5 -19.5t-65 -47t-53.5 -57t-22 -48.5zM471 231q0 -8 7.5 -15t15.5 -7t21 7t26 17t22.5 20t9.5 17q0 10 -7.5 19.5t-16.5 9.5 q-3 0 -15.5 -8t-26.5 -19.5t-25 -23t-11 -17.5z" />
<glyph unicode="t" horiz-adv-x="713" d="M82 379v848q0 32 13 57.5t33.5 43.5t46.5 28t52 10q29 0 54.5 -12t44 -31.5t29 -44.5t10.5 -51v-135h127q30 0 55.5 -12t44 -30.5t29 -41t10.5 -43.5q0 -31 -11.5 -57t-31 -45.5t-46.5 -30.5t-59 -11h-118v-469q0 -6 4.5 -19t14 -26.5t25 -24t37.5 -10.5h50q32 0 56 -14 t40 -34t23.5 -42t7.5 -39q0 -69 -44 -106t-130 -37q-76 0 -143 28.5t-116.5 79t-78.5 120t-29 151.5zM119 1278q0 -11 4.5 -20t15.5 -9q2 0 14 8.5t25.5 20.5t24 23.5t10.5 17.5q0 9 -6 15.5t-14 6.5q-10 0 -23 -6.5t-24 -16.5t-19 -21t-8 -19z" />
<glyph unicode="u" horiz-adv-x="946" d="M104 340v614q0 32 12.5 57.5t33.5 43.5t47 27.5t53 9.5q30 0 55 -12.5t43.5 -32t28.5 -44.5t10 -51v-598q0 -42 26.5 -64t61.5 -22q15 0 30 6t27 16.5t19.5 23.5t7.5 28v612q0 32 12.5 57.5t32.5 43.5t45.5 27.5t52.5 9.5q30 0 55.5 -12.5t44.5 -32t29.5 -44.5t10.5 -51 v-598q0 -78 -28 -143t-76.5 -111.5t-115 -72t-143.5 -25.5q-91 0 -161 30.5t-117.5 78.5t-72 108.5t-24.5 120.5zM145 1012q0 -11 8 -19t19 -8q1 0 12 8.5t24 19.5t23.5 21.5t10.5 14.5q0 8 -6.5 15t-14.5 7q-12 0 -25.5 -6.5t-25 -16t-18.5 -19.5t-7 -17zM520 242 q0 -8 8 -15.5t11 -7.5q18 0 34 9.5t28.5 23t20 27.5t7.5 22t-8 17.5t-17 9.5q-12 0 -23 -15t-20 -26q-12 -14 -26.5 -22t-14.5 -23zM600 1012q0 -11 8 -19t19 -8q1 0 12 8.5t23.5 19.5t23 21.5t10.5 14.5q0 8 -7 15t-15 7q-12 0 -25.5 -6.5t-24 -16t-17.5 -19.5t-7 -17z" />
<glyph unicode="v" horiz-adv-x="967" d="M82 958q0 32 12.5 57t32.5 42t45.5 26t52.5 9q54 0 87.5 -22.5t47.5 -72.5l123 -428l123 414q17 57 50 83t85 26q31 0 57 -11t45.5 -29.5t30.5 -43t11 -50.5l1 -17q0 -6 -3 -13l-267 -819q-17 -54 -48 -81.5t-81 -27.5q-58 0 -87.5 29.5t-45.5 79.5l-264 819 q-2 3 -5 13.5t-3 16.5zM125 995q0 -6 8.5 -12t16.5 -6q2 0 12.5 10t21.5 21q13 13 29 30q0 7 -5 17t-13 10q-13 0 -25.5 -5.5t-22.5 -15t-16 -22t-6 -27.5zM647 995q0 -6 8.5 -12t16.5 -6q2 0 12.5 10t22.5 21q14 13 30 30q0 7 -5 17t-13 10q-13 0 -26 -5.5t-23 -15 t-16.5 -22t-6.5 -27.5z" />
<glyph unicode="w" horiz-adv-x="1372" d="M82 948q0 65 38 104.5t113 39.5q16 0 34.5 -6t35.5 -17.5t30.5 -28.5t20.5 -39l140 -446l57 172l-57 180q-2 6 -5.5 19t-3.5 22q0 29 10 55t28.5 45.5t46 31.5t61.5 12q18 0 38 -6.5t38 -18t31.5 -26.5t19.5 -33l131 -445l133 455q5 15 17 28.5t28.5 23.5t36 16t39.5 6 q34 0 61 -11t46 -30t29.5 -44t10.5 -53q0 -5 -1 -13t-3 -13l-262 -819q-17 -53 -46.5 -81t-76.5 -28q-57 0 -93.5 25.5t-53.5 80.5l-70 222l-66 -219q-15 -54 -46.5 -81.5t-82.5 -27.5q-54 0 -87 25.5t-52 80.5l-256 781q-3 11 -7.5 28.5t-4.5 32.5zM121 1006q0 -10 6 -17.5 t14 -7.5q7 0 18.5 8.5t22.5 19.5t19 21t8 14q0 10 -7.5 16.5t-15.5 6.5q-9 0 -20.5 -7.5t-21 -17.5t-16.5 -20.5t-7 -15.5zM526 1006q0 -10 6.5 -17.5t14.5 -7.5q7 0 18 8.5t21.5 19.5t18 21t7.5 14q0 10 -6 16.5t-14 6.5q-9 0 -20.5 -7.5t-21.5 -17.5t-17 -20.5t-7 -15.5z M1049 1008q0 -11 5.5 -19t14.5 -8q16 0 21 9.5t12 17.5q5 5 11 8.5t12 6.5t10 8t4 13q0 10 -6 17.5t-17 7.5q-7 0 -18.5 -6.5t-22.5 -16t-18.5 -20t-7.5 -18.5z" />
<glyph unicode="x" horiz-adv-x="965" d="M82 147q0 8 2.5 21t7.5 22l209 375l-186 322q-10 17 -14.5 30t-4.5 33q0 27 11.5 52.5t31.5 45.5t46.5 32t56.5 12q22 0 38.5 -3t29 -11t23.5 -21t21 -33l125 -231l123 233q16 28 49.5 47t67.5 19q27 0 52.5 -10.5t45 -30t31.5 -47t12 -62.5q0 -14 -5 -29t-11 -26 l-182 -322l208 -375q8 -14 10.5 -25.5t2.5 -27.5q0 -26 -10 -50.5t-29 -44t-45.5 -31t-59.5 -11.5q-40 0 -68 15t-46 51l-146 286l-145 -299q-13 -25 -44 -39t-69 -14q-29 0 -54.5 11t-44 30.5t-29.5 46.5t-11 59zM113 176q0 -3 2.5 -9.5t7.5 -6.5q15 0 25 6t16 15t8 19 t2 17q0 9 -11.5 12.5t-21.5 3.5q-3 0 -7.5 -5.5t-9 -13.5t-8 -18.5t-3.5 -19.5zM131 997q0 -7 4.5 -13t11.5 -8h4q5 0 12 2q9 4 19 17q8 10 14.5 15t11.5 9t8 8.5t3 14.5t-10.5 12.5t-18.5 2.5t-18.5 -7.5t-19.5 -17.5t-15 -20t-6 -15zM614 1004q0 -19 9 -22t20 -3 q1 0 10 7.5t20 17t20 19.5t9 15q0 23 -22 23q-12 0 -23.5 -8t-21 -17.5t-15.5 -19t-6 -12.5z" />
<glyph unicode="y" horiz-adv-x="981" d="M82 952q0 24 9.5 49t28 45t44.5 33t59 13q45 0 80 -22t49 -60l129 -338l170 364q11 25 44 40.5t71 15.5q33 0 59 -12.5t44.5 -32.5t28 -44.5t9.5 -48.5q0 -12 -4.5 -28t-9.5 -25l-473 -1079q-17 -40 -49 -62t-70 -22q-31 0 -58.5 10t-47.5 29t-31.5 44.5t-11.5 57.5 q0 13 2.5 28.5t7.5 26.5l170 388l-238 579q-3 9 -7.5 23t-4.5 28zM117 995q0 -7 4 -13.5t11 -8.5q3 -1 6 -1q5 0 12 2q9 4 20 17q15 20 25 26t10 19q0 21 -21 21q-12 0 -24 -6.5t-21.5 -16.5t-15.5 -20.5t-6 -18.5zM657 995q0 -11 8 -16.5t19 -5.5q8 0 18 9.5t20 20.5 q11 13 23 29q0 9 -4.5 19t-15.5 10q-12 0 -24.5 -7.5t-22 -18t-15.5 -22t-6 -18.5z" />
<glyph unicode="z" horiz-adv-x="854" d="M96 150q0 11 5 26t10 25l280 608h-119q-27 0 -52 11.5t-44 30.5t-30 44t-11 53q0 29 13 55t34 45.5t47.5 31.5t53.5 12h319q13 0 36 -7t45 -24t38 -44.5t16 -68.5q0 -8 -1.5 -18.5t-6.5 -20.5l-289 -626h187q24 0 47.5 -11.5t42 -31t30 -44.5t11.5 -51q0 -29 -12 -55 t-31.5 -46t-45 -32t-51.5 -12h-372q-29 0 -56 10.5t-48 30t-33.5 47t-12.5 62.5zM139 197q0 -13 6 -21t17 -8q7 0 12.5 5.5t9.5 14t6.5 18t2.5 17.5q0 6 -4.5 11.5t-10.5 5.5q-12 0 -20 -6t-12 -14t-5.5 -14.5t-1.5 -8.5zM178 997q0 -3 4 -9q4 -5 10 -8q4 -2 9 -2h5 q8 2 17 13q6 8 13.5 12.5t13.5 8.5t10 9t4 13q0 10 -4.5 16.5t-15.5 6.5q-7 0 -18.5 -4.5t-22 -13t-18 -19.5t-7.5 -23z" />
<glyph unicode="{" horiz-adv-x="795" d="M82 682q0 65 37 103t108 55q0 15 1 27t1 28q0 139 -3 223t-3 115q0 68 26.5 129t71.5 107.5t105 74t127 27.5q40 0 71 -12t52 -32.5t32 -46.5t11 -55q0 -34 -14.5 -60t-34.5 -44t-42.5 -27.5t-37.5 -9.5q-11 0 -18.5 1t-18.5 1q-10 0 -21 -4t-20 -11t-14.5 -16.5 t-5.5 -21.5v-438q0 -21 -5 -35t-20 -26t-42 -24t-71 -28q42 -14 69 -25.5t42.5 -24t21 -27.5t5.5 -36v-436q0 -24 15.5 -35.5t37 -16t44 -5.5t36.5 -4q21 -6 38 -19t29.5 -31t19.5 -39t7 -42q0 -29 -10.5 -55t-31.5 -46.5t-52 -32.5t-72 -12q-67 0 -128 27t-106.5 73.5 t-72.5 108t-27 129.5q0 23 5 108t5 230q0 16 -1 28t-1 27q-72 19 -108.5 56.5t-36.5 99.5zM121 737q0 -6 3.5 -12.5t10 -9t16 1t21.5 18.5q11 13 26 22t15 15q0 9 -4.5 21t-15.5 12q-8 0 -20 -6t-23.5 -15.5t-20 -22t-8.5 -24.5zM258.5 1346.5q-5.5 -27.5 28.5 -27.5 q6 0 12 8.5t8 13.5q26 53 61.5 87t86.5 53q15 6 21.5 11t6.5 24q0 8 -12 12t-25 4q-8 0 -26 -8.5t-39 -23.5t-42.5 -34.5t-37.5 -42.5q-37 -49 -42.5 -76.5z" />
<glyph unicode="|" horiz-adv-x="649" d="M262 -55v1474h123v-1474h-123z" />
<glyph unicode="}" horiz-adv-x="795" d="M82 -59q0 21 7.5 44t21.5 42.5t36 33t50 15.5q15 1 34.5 2t37 6.5t29 16.5t11.5 32v436q0 22 5.5 37t21 27.5t42 23.5t68.5 25q-43 16 -69.5 28t-41.5 24t-20.5 26t-5.5 35v438q0 12 -6 21.5t-15 16.5t-19.5 11t-20.5 4q-5 0 -18 -1t-19 -1q-15 0 -37.5 9.5t-42.5 27.5 t-34.5 44t-14.5 60q0 28 10.5 54t31.5 46.5t52 33t72 12.5q67 0 128 -27t107.5 -73.5t74.5 -108t28 -129.5q0 -22 -7.5 -107.5t-7.5 -230.5q0 -16 1 -28t1 -27q72 -17 109 -55t37 -103q0 -62 -36.5 -99.5t-109.5 -56.5q0 -15 -1 -27t-1 -28q0 -142 7.5 -227t7.5 -111 q0 -67 -27.5 -128.5t-74 -108t-107.5 -74t-129 -27.5q-40 0 -71 12t-52 32.5t-32 46.5t-11 55zM115 -33q0 -6 6 -11t14 -5q4 0 17 10t27.5 23t26 25.5t11.5 17.5q0 8 -9.5 14t-17.5 6q-5 0 -17.5 -6.5t-25 -17.5t-22.5 -25.5t-10 -30.5zM121 1458q0 -6 6 -11t14 -5 q4 0 17 9.5t27 22.5t25 25t11 17q0 8 -8.5 14t-17.5 6q-6 0 -18 -6.5t-24.5 -17t-22 -25t-9.5 -29.5z" />
<glyph unicode="~" horiz-adv-x="1024" d="M156 449q42 77 92 119t123 42q43 0 81.5 -13t73 -28t65 -28t56.5 -13q23 0 40 8.5t30 23.5t23.5 34.5t21.5 40.5l106 -113q-43 -77 -97 -119.5t-128 -42.5q-40 0 -78 12t-72.5 27t-64.5 27t-53 12q-22 0 -39 -8.5t-30.5 -23.5t-24.5 -34.5t-21 -41.5z" />
<glyph unicode="&#xa0;" />
<glyph unicode="&#xa1;" horiz-adv-x="465" d="M82 -41v594q0 149 149 149q152 0 152 -149v-594q0 -149 -152 -149q-149 0 -149 149zM82 942q0 32 12 59.5t32.5 48t47.5 32.5t57 12q32 0 59.5 -13t48 -34t32.5 -48.5t12 -56.5q0 -31 -12 -58.5t-33 -47.5t-48.5 -31.5t-58.5 -11.5q-30 0 -57 12t-47.5 32t-32.5 47 t-12 58zM113 608q0 -4 0.5 -9.5t2.5 -10.5t6 -9t11 -4q10 0 15.5 4.5t10 11t9.5 14t14 13.5q5 4 15 10t10 15q0 11 -6 19t-17 8t-23.5 -7.5t-23 -17.5t-17.5 -20.5t-7 -16.5zM117 993q0 -8 3 -12.5t7.5 -6.5t9 -2.5t8.5 -0.5t9.5 4.5t11.5 11.5t13 14t14 13q9 8 10.5 11.5 t1.5 14.5q0 8 -8 12.5t-19 4.5q-6 0 -16.5 -7t-20 -16.5t-17 -20.5t-7.5 -20z" />
<glyph unicode="&#xa2;" horiz-adv-x="813" d="M66 696q0 47 19 96t51.5 94t75 82t89.5 60v31q0 24 7 46.5t21.5 39.5t36.5 27t52 10q21 0 40.5 -8.5t34.5 -24.5t24 -38t9 -48v-25q53 -24 90.5 -52t60.5 -56t33.5 -55t10.5 -50q0 -21 -9.5 -43t-26 -40t-39.5 -29t-50 -11q-22 0 -38.5 4.5t-32 16t-32.5 29.5t-40 45 q-8 9 -17 8.5t-20 -0.5q-28 0 -45.5 -17.5t-27 -51t-12.5 -81.5t-3 -110q0 -42 2.5 -106.5t7.5 -145.5q1 -15 8 -30t18.5 -26.5t26.5 -18.5t31 -7q22 0 42 12t30 37q4 11 12.5 22.5t22.5 21.5t32.5 16t42.5 6q23 0 46 -10t41.5 -27t30 -39.5t11.5 -48.5q0 -28 -12 -58 t-38.5 -60t-67.5 -58t-99 -52v-28q0 -22 -8 -43.5t-23.5 -39t-37 -28t-48.5 -10.5q-31 0 -53 11.5t-36 28t-20.5 35.5t-6.5 33v60q-81 45 -121 88.5t-56 90t-16.5 99t-3.5 115.5q-6 108 -13 187t-7 124zM129 838q0 -20 10 -23.5t21 -3.5q6 0 13.5 10.5t10.5 18.5 q14 31 40 56t63 50q8 6 17 14.5t9 22.5q0 18 -18 18q-17 0 -45 -18.5t-55 -44t-46.5 -53.5t-19.5 -47zM338 1114q0 -9 2.5 -19t17.5 -10q4 0 15 6.5t22 15t20 16t9 10.5q0 9 -2 19.5t-16 10.5q-15 0 -27.5 -6t-21.5 -14.5t-14 -16.5t-5 -12zM512 250q0 -11 7.5 -15t17.5 -4 q2 0 9.5 4t15.5 10t15 13t7 12q0 17 -8.5 22t-22.5 5q-1 0 -8 -3.5t-14 -9.5t-13 -14.5t-6 -19.5z" />
<glyph unicode="&#xa3;" horiz-adv-x="963" d="M104 702q0 63 37 101.5t109 56.5q-5 38 -8.5 81.5t-3.5 86.5q0 66 27 127t72.5 108t107 75t130.5 28q41 0 72 -12t52 -32.5t31.5 -46.5t10.5 -54q0 -33 -14 -59.5t-34.5 -44.5t-42.5 -28t-38 -10q-11 0 -18.5 1t-18.5 1q-21 0 -41 -15.5t-20 -37.5q0 -8 -1 -14.5t1 -14.5 l16 -143h134q30 0 55.5 -13.5t44.5 -35t30 -47.5t11 -51q0 -29 -11 -56t-30 -47.5t-44.5 -32.5t-53.5 -12h-148q-6 -102 -12.5 -165.5t-11.5 -94.5h239q26 0 52 -11t47 -30.5t34 -45.5t13 -56q0 -34 -13.5 -63t-34.5 -50t-46 -33t-48 -12h-403q-28 0 -54.5 12.5t-47.5 33 t-33.5 46t-12.5 51.5q0 17 6.5 46t15.5 77.5t18 119.5t14 171q-68 19 -102 56t-34 89zM143 756q0 -6 3.5 -12.5t10 -8.5t16.5 2t22 19q5 7 12 12t13.5 9t11 7.5t4.5 6.5q0 9 -5 20.5t-16 11.5q-7 0 -19.5 -6t-24 -15.5t-20 -21.5t-8.5 -24zM280.5 1141.5 q-5.5 -27.5 28.5 -27.5q6 0 12.5 9t8.5 14q26 52 61 86t86 53q16 6 22.5 11t6.5 24q0 8 -12.5 12t-24.5 4q-9 0 -26 -8.5t-38 -23.5t-42.5 -34.5t-38.5 -41.5q-38 -50 -43.5 -77.5z" />
<glyph unicode="&#xa4;" />
<glyph unicode="&#xa5;" horiz-adv-x="1110" d="M104 1214q0 32 11.5 60t32 48.5t48.5 32t60 11.5q50 0 86.5 -23.5t48.5 -58.5l160 -434l168 434q15 40 47.5 61t79.5 21q41 0 71 -14.5t49.5 -36t28.5 -45.5t9 -43q0 -17 -1 -28.5t-8 -27.5l-239 -557h96q34 0 60 -15t43.5 -36.5t26.5 -46t9 -43.5q0 -31 -10.5 -59.5 t-28 -51t-41.5 -36t-51 -13.5h-158v-166q0 -29 -12 -55.5t-32.5 -47t-48 -32.5t-58.5 -12q-29 0 -56 12t-48 32.5t-33.5 47.5t-12.5 58v163h-147q-28 0 -53.5 12t-45.5 32.5t-32 47.5t-12 58q0 34 12.5 61.5t32 47.5t44 31t48.5 11h98l-223 533q-5 12 -12 30.5t-7 36.5z M145 1268q0 -6 7 -12.5t16 -6.5q4 0 15.5 8.5t23.5 19.5q14 12 31 28q0 11 -5.5 21.5t-17.5 10.5q-6 0 -17.5 -5t-23.5 -14t-20.5 -22t-8.5 -28zM150 520q0 -8 5.5 -16t10.5 -8q11 0 17.5 3.5t11 8.5t7.5 10.5t7 9.5t10 8l12 8t10.5 8.5t4.5 10.5q0 20 -9.5 23.5t-27.5 3.5 q-4 0 -13.5 -7t-19.5 -17.5t-18 -22.5t-8 -23zM741 1268q0 -8 7 -14.5t16 -6.5q5 0 17 8.5t24 19.5q14 12 31 28q0 11 -2.5 21.5t-18.5 10.5q-13 0 -26.5 -6t-24 -16t-17 -22t-6.5 -23z" />
<glyph unicode="&#xa6;" />
<glyph unicode="&#xa7;" />
<glyph unicode="&#xa8;" horiz-adv-x="784" d="M82 1245q0 26 10.5 49t27.5 40t40.5 27.5t48.5 10.5t48.5 -10.5t41.5 -28t28.5 -40.5t10.5 -48q0 -24 -9 -46.5t-25.5 -39.5t-40.5 -27t-54 -10q-26 0 -49 11t-40.5 28.5t-27.5 39.5t-10 44zM113 1288q0 -11 7.5 -16.5t16.5 -5.5q6 0 15.5 7t18.5 16.5t15.5 19t6.5 14.5 q0 20 -12.5 22t-27.5 -6t-27.5 -22.5t-12.5 -28.5zM446 1247q0 26 10.5 49t28.5 40t41.5 27.5t48.5 10.5q26 0 49 -10.5t40 -28t27.5 -40.5t10.5 -48q0 -24 -8.5 -46.5t-25 -39.5t-40 -27t-53.5 -10q-25 0 -48.5 10.5t-41.5 28t-28.5 39.5t-10.5 45zM479 1288 q0 -11 6.5 -15.5t16.5 -4.5q5 0 14.5 7t18.5 17t15.5 19.5t6.5 13.5q0 20 -12 22t-27 -6.5t-27 -23.5t-12 -29z" />
<glyph unicode="&#xa9;" horiz-adv-x="1575" d="M78 676q0 98 25.5 189t71.5 170t110.5 143.5t143.5 110.5t170 71.5t189 25.5t188.5 -25.5t169.5 -71.5t143.5 -110.5t110.5 -143.5t71.5 -170t25.5 -189t-25.5 -188.5t-71.5 -169t-110.5 -143.5t-143.5 -111t-169.5 -71.5t-188.5 -25.5t-189 25.5t-170 71.5t-143.5 111 t-110.5 143.5t-71.5 169t-25.5 188.5zM217 676q0 -75 21 -146.5t59 -135t91 -116.5t116.5 -91t135.5 -59.5t148 -21.5q115 0 218.5 46.5t181.5 125.5t124 182t46 216q0 76 -21 148t-59 135.5t-90.5 116.5t-116 91t-135 59t-148.5 21q-76 0 -148 -21t-135.5 -59t-116.5 -91 t-91 -116.5t-59 -135.5t-21 -148zM524 727v68t4 60t14 58t29 60q18 29 42 52t52 40t59.5 26t63.5 9q53 0 94.5 -19t70 -47.5t44 -61t15.5 -59.5q0 -37 -26 -61.5t-60 -24.5t-51 17t-31 43q-10 20 -23.5 33.5t-38.5 13.5q-32 0 -50 -23t-27 -67.5t-11 -110t-2 -149.5 q0 -68 26 -105t68 -37q10 0 21 3t20.5 9t16.5 15.5t8 22.5q6 40 30 58.5t56 18.5q34 0 60 -23.5t26 -62.5q0 -37 -16 -75t-46.5 -68t-75 -49t-102.5 -19q-40 0 -77 12.5t-68 35.5t-55 55t-39 71q-20 54 -20.5 124t-0.5 157z" />
<glyph unicode="&#xaa;" />
<glyph unicode="&#xab;" horiz-adv-x="946" d="M82 692q0 3 1.5 9.5l3 13l3 13t2.5 9.5l115 340q6 18 19.5 34.5t31.5 29t38.5 19.5t41.5 7q35 0 63.5 -13.5t49 -35t32 -47.5t11.5 -51q0 -11 -0.5 -18.5t-4.5 -18.5l-98 -291l101 -315q5 -13 3.5 -23t-1.5 -22q0 -18 -11 -40.5t-32 -41.5t-51 -32t-68 -13q-19 0 -39 7 t-38 19.5t-31.5 30.5t-20.5 39l-111 336q-3 9 -6.5 27.5t-3.5 27.5zM231 1071q0 -12 8.5 -18t22.5 -6q5 0 10.5 5t12 12t13 14.5t13.5 11.5q5 2 15 6.5t10 13.5q0 12 -5.5 21.5t-19.5 9.5q-8 0 -21.5 -7.5t-26.5 -18.5t-22.5 -23t-9.5 -21zM453 696q0 8 4 23.5t6 21.5 l112 340q6 18 19.5 34t31.5 27.5t39 18t42 6.5q35 0 63.5 -12.5t49.5 -32.5t32.5 -45t11.5 -51q0 -11 -1.5 -19.5t-4.5 -19.5l-98 -291l102 -313q5 -12 3.5 -22.5t-1.5 -22.5q0 -18 -11 -41t-32 -43.5t-51.5 -34.5t-69.5 -14q-19 0 -39 7.5t-37.5 21t-31.5 32t-21 39.5 l-108 338q-3 9 -6.5 26.5t-3.5 26.5zM600 1077q0 -14 9 -19t22 -5q5 0 10.5 5t12 12t13 14.5t13.5 11.5q3 2 15 7t12 13q0 13 -5 22t-20 9q-9 0 -22.5 -7.5t-27 -18.5t-23 -23t-9.5 -21z" />
<glyph unicode="&#xac;" horiz-adv-x="1460" />
<glyph unicode="&#xad;" horiz-adv-x="770" d="M82 672q0 34 12 61.5t31.5 47.5t43.5 31t48 11h332q34 0 60 -14.5t43.5 -36t26.5 -46t9 -44.5q0 -31 -10.5 -59.5t-28 -51t-41.5 -36t-51 -13.5h-332q-27 0 -53 12t-46 32.5t-32 47.5t-12 58zM119 729q0 -8 6 -16t12 -8q11 0 17.5 3.5t10.5 8.5t6.5 10.5t6.5 9.5 q4 3 10.5 6.5t13 8t11 9.5t4.5 11q0 20 -9 23.5t-28 3.5q-4 0 -14 -7t-20.5 -17.5t-18.5 -22.5t-8 -23z" />
<glyph unicode="&#xae;" horiz-adv-x="1272" d="M100 834q0 110 42 207t114 169t168.5 114t206.5 42t206.5 -42t168.5 -114t113.5 -169t41.5 -207t-41.5 -206.5t-113.5 -168.5t-168.5 -114t-206.5 -42t-206.5 42t-168.5 114t-114 168.5t-42 206.5zM219 834q0 -85 32.5 -160t88 -131t131 -88.5t160.5 -32.5q86 0 161 32.5 t130.5 88.5t87.5 131t32 160q0 86 -32 161t-87.5 131t-130.5 88.5t-161 32.5q-85 0 -160.5 -32.5t-131 -88.5t-88 -131t-32.5 -161zM473 606v453q0 26 17.5 46.5t48.5 20.5h118q30 0 58.5 -13t50.5 -36t35.5 -55t13.5 -70q0 -61 -23 -95t-67 -58l94 -170q6 -9 6 -19 q0 -31 -20.5 -50t-46.5 -19q-14 0 -28.5 9t-20.5 21l-107 199v-166q0 -29 -19.5 -46t-43.5 -17q-31 0 -48.5 16.5t-17.5 48.5zM602 889h43q23 0 36 17t13 40q0 26 -13 42t-30 16h-49v-115z" />
<glyph unicode="&#xaf;" />
<glyph unicode="&#xb0;" horiz-adv-x="670" d="M76 1118q0 48 19 94.5t53.5 83t82 58.5t105.5 22q54 0 101.5 -20t82 -55t54.5 -82t20 -101q0 -51 -19.5 -98t-54 -83t-81.5 -57.5t-103 -21.5q-50 0 -97 20.5t-83 56t-58 82.5t-22 101zM125 1206q0 -5 6.5 -10.5t11.5 -5.5q16 0 21.5 9t13.5 22q14 24 38 43.5t44 27.5 q6 3 18.5 9.5t12.5 17.5t-4 17.5t-17 6.5q-15 0 -40 -14t-48 -34.5t-40 -44.5t-17 -44zM262 1118q0 -29 21 -51.5t53 -22.5q15 0 28 6t23.5 16t16.5 23.5t6 28.5q0 28 -20 52t-54 24q-16 0 -29.5 -7t-23.5 -18t-15.5 -24.5t-5.5 -26.5zM369 1012q0 -14 8 -18.5t14 -4.5 q9 0 20.5 6.5t22 16t18 20t7.5 17.5q0 10 -3.5 14.5t-9 6t-11 1.5h-9.5q-1 0 -10 -8t-19.5 -18t-19 -19.5t-8.5 -13.5z" />
<glyph unicode="&#xb1;" horiz-adv-x="1124" />
<glyph unicode="&#xb2;" />
<glyph unicode="&#xb3;" />
<glyph unicode="&#xb4;" horiz-adv-x="469" d="M82 1233q0 6 3 17t5 16l72 164q4 9 13 20.5t23.5 21t35 16.5t47.5 7q14 0 32.5 -8t35 -23.5t27.5 -38t11 -51.5q0 -9 -0.5 -16t-5.5 -17l-76 -170q-11 -23 -39.5 -44t-70.5 -21q-19 0 -39 9t-36.5 25.5t-27 40t-10.5 52.5zM174 1411q0 -5 7 -11.5t14 -6.5q11 0 13 4.5 t5 9.5q4 7 11 11.5t13.5 9.5t11.5 11t5 15q0 6 -6 13.5t-12 7.5q-8 0 -18.5 -6t-20.5 -15.5t-16.5 -21t-6.5 -21.5z" />
<glyph unicode="&#xb6;" horiz-adv-x="1094" d="M68 956q0 47 11.5 93t32 88t50 78t65.5 61q76 54 191 72t276 18h353v-113h-142v-1587h-135v1587h-162v-1587h-135v854q-202 20 -303.5 128.5t-101.5 307.5z" />
<glyph unicode="&#xb7;" horiz-adv-x="465" d="M82 678q0 32 12 59.5t32 47.5t47.5 32t57.5 12t57.5 -12t48.5 -32.5t33.5 -48t12.5 -58.5t-12.5 -58.5t-33.5 -48t-48.5 -32t-57.5 -11.5q-31 0 -58.5 12t-47.5 33t-31.5 48t-11.5 57zM115 731q0 -15 10 -18.5t18 -3.5q4 0 9.5 4.5t11.5 11.5t12.5 14t13.5 13 q10 8 11.5 11t1.5 15q0 8 -8 12.5t-19 4.5q-6 0 -16.5 -7t-20 -16.5t-17 -20.5t-7.5 -20z" />
<glyph unicode="&#xb8;" />
<glyph unicode="&#xb9;" />
<glyph unicode="&#xba;" />
<glyph unicode="&#xbb;" horiz-adv-x="946" d="M80.5 360.5q-1.5 10.5 3.5 22.5l102 313l-98 291q-3 11 -4.5 19.5t-1.5 19.5q0 25 11.5 50t32 45.5t49.5 33t65 12.5q20 0 40.5 -6t38.5 -17.5t32 -27t20 -35.5l112 -340q3 -8 7 -23t4 -22q0 -9 -4 -27t-7 -26l-108 -338q-7 -21 -20.5 -39t-30.5 -31.5t-37 -21.5t-41 -8 q-37 0 -67.5 13.5t-52 33.5t-33 43t-11.5 43q0 12 -1.5 22.5zM121 1071q0 -24 31 -24q5 0 10.5 5t11.5 12t13 14.5t14 11.5q5 2 14.5 7t9.5 13q0 12 -5 21.5t-19 9.5q-9 0 -22.5 -7.5t-26 -18.5t-22 -23t-9.5 -21zM451.5 354q-1.5 10 3.5 23l100 315l-98 291 q-3 11 -3.5 18.5t-0.5 18.5q0 24 11 50t31.5 47.5t49 35.5t63.5 14q19 0 39.5 -7t39 -19t32.5 -28.5t20 -35.5l115 -340q3 -8 6.5 -24t3.5 -21q0 -4 -1 -12t-2.5 -16t-3 -15.5t-3.5 -11.5l-111 -336q-7 -21 -20 -38.5t-30 -30t-37.5 -20t-41.5 -7.5q-36 0 -65.5 12t-51 30.5 t-33 41t-11.5 43.5q0 12 -1.5 22zM492 1073q0 -12 8 -18t22 -6q5 0 10.5 5t12 12t13 14.5t13.5 11.5q5 2 16 6.5t11 13.5q0 12 -5.5 21.5t-19.5 9.5q-8 0 -22 -7.5t-27 -18.5t-22.5 -23t-9.5 -21z" />
<glyph unicode="&#xbc;" />
<glyph unicode="&#xbd;" />
<glyph unicode="&#xbe;" />
<glyph unicode="&#xbf;" horiz-adv-x="903" d="M104 80q0 75 15 125t41.5 87t61.5 67.5t75 66.5q19 17 28 30t12 26.5t2 30.5t-1 42q0 74 36.5 112t110.5 38q27 0 52.5 -11t45 -32t31 -51t11.5 -68q0 -119 -42.5 -204.5t-119.5 -137.5q-13 -9 -26.5 -17.5t-24.5 -19.5t-18 -25.5t-7 -34.5q0 -22 7.5 -40t20.5 -30.5 t29 -19t33 -6.5q35 0 53.5 17t34.5 36q25 28 52.5 43t64.5 15q21 0 45.5 -10t45.5 -28t34.5 -43.5t13.5 -55.5q0 -41 -26.5 -85.5t-72.5 -81.5t-108 -61t-133 -24q-79 0 -148 30t-120 79.5t-80 112.5t-29 128zM131 143q0 -11 5.5 -18.5t15.5 -7.5q14 0 19.5 10.5t8.5 19.5 q9 25 18 46t21.5 40.5t29 38t38.5 37.5l6.5 6.5t3.5 8.5q0 9 -2.5 19.5t-13.5 10.5q-13 0 -29 -11.5t-33 -30.5t-32.5 -42.5t-28 -47t-20 -44.5t-7.5 -35zM326 942q0 32 12 59.5t32.5 48t47.5 32.5t57 12q32 0 59.5 -12.5t48 -33.5t32.5 -48.5t12 -57.5q0 -31 -12.5 -58.5 t-33.5 -47.5t-48.5 -31.5t-57.5 -11.5t-57 12t-47.5 32t-32.5 47t-12 58zM369 997q0 -17 10 -20.5t18 -3.5q4 0 9.5 4.5t11.5 11.5t12.5 14t13.5 13q10 8 11.5 12t1.5 16q0 8 -9 12.5t-20 4.5q-6 0 -16 -7t-19.5 -16.5t-16.5 -20.5t-7 -20zM526 -23q0 -5 6 -12.5t11 -7.5 q8 0 18 5t20 13t16.5 17.5t6.5 19.5q0 14 -13 15.5t-20 1.5q-12 -8 -22 -17q-8 -8 -15.5 -17t-7.5 -18z" />
<glyph unicode="&#xc0;" horiz-adv-x="1212" d="M137 141q0 14 5 33.5t10 32.5l319 1034q9 28 19 53t27 43.5t42 29.5t64 11q57 0 92.5 -35.5t54.5 -101.5l295 -1036q5 -19 8.5 -33.5t3.5 -34.5q0 -31 -11.5 -56t-32 -43t-48.5 -28t-61 -10q-113 0 -138 96l-41 170h-270l-49 -164q-5 -19 -20 -37.5t-35 -32.5t-44 -23 t-48 -9q-31 0 -57 10.5t-45 29.5t-29.5 44.5t-10.5 56.5zM170 209q-3 -9 2 -14.5t12.5 -8t15 -0.5t9.5 9l12 38q3 11 -5.5 16t-22.5 5q-2 0 -6.5 -3t-4.5 -5zM426 1669q0 27 10 49.5t26 38t34.5 24.5t35.5 9q27 0 47.5 -7t35 -17t23.5 -21.5t13 -20.5l72 -163q8 -17 8 -33 q0 -30 -10.5 -54t-27 -40.5t-36.5 -25.5t-39 -9q-20 0 -37.5 6t-32 15.5t-25 21t-15.5 22.5l-76 170q-5 10 -5.5 18t-0.5 17zM449 1704q0 -5 7 -10.5t13 -5.5q11 0 13 3.5t5 8.5q4 7 11 11.5t13.5 9.5t11.5 11t5 15q0 6 -6 13t-12 7q-9 0 -19.5 -6t-19.5 -15.5t-15.5 -20.5 t-6.5 -21zM508 1292q0 -11 4.5 -20.5t19.5 -9.5q6 0 18 9.5t24.5 21t22 21.5t9.5 11q0 25 -15.5 27.5t-33.5 -7t-33.5 -25.5t-15.5 -28zM545 549h139l-68 285z" />
<glyph unicode="&#xc1;" horiz-adv-x="1212" d="M137 141q0 14 5 33.5t10 32.5l319 1034q9 28 19 53t27 43.5t42 29.5t64 11q57 0 92.5 -35.5t54.5 -101.5l295 -1036q5 -19 8.5 -33.5t3.5 -34.5q0 -31 -11.5 -56t-32 -43t-48.5 -28t-61 -10q-113 0 -138 96l-41 170h-270l-49 -164q-5 -19 -20 -37.5t-35 -32.5t-44 -23 t-48 -9q-31 0 -57 10.5t-45 29.5t-29.5 44.5t-10.5 56.5zM170 209q-3 -9 2 -14.5t12.5 -8t15 -0.5t9.5 9l12 38q3 11 -5.5 16t-22.5 5q-2 0 -6.5 -3t-4.5 -5zM477 1528q0 6 3 17t5 16l72 163q4 9 13 20t23.5 21.5t35 17.5t47.5 7q15 0 33.5 -8t34.5 -24t27 -38t11 -51 q0 -9 0.5 -17t-4.5 -18l-76 -170q-11 -24 -41.5 -44.5t-70.5 -20.5q-18 0 -37.5 9t-36.5 25.5t-28 40.5t-11 54zM508 1292q0 -11 4.5 -20.5t19.5 -9.5q6 0 18 9.5t24.5 21t22 21.5t9.5 11q0 25 -15.5 27.5t-33.5 -7t-33.5 -25.5t-15.5 -28zM545 549h139l-68 285zM569 1704 q0 -5 7.5 -10.5t13.5 -5.5q11 0 13 3.5t5 8.5q4 6 11 10.5t13.5 9.5t11.5 11.5t5 15.5q0 6 -6 13t-12 7q-9 0 -19.5 -6t-20 -15.5t-16 -20.5t-6.5 -21z" />
<glyph unicode="&#xc2;" horiz-adv-x="1212" d="M137 141q0 14 5 33.5t10 32.5l319 1034q9 28 19 53t27 43.5t42 29.5t64 11q57 0 92.5 -35.5t54.5 -101.5l295 -1036q5 -19 8.5 -33.5t3.5 -34.5q0 -31 -11.5 -56t-32 -43t-48.5 -28t-61 -10q-113 0 -138 96l-41 170h-270l-49 -164q-5 -19 -20 -37.5t-35 -32.5t-44 -23 t-48 -9q-31 0 -57 10.5t-45 29.5t-29.5 44.5t-10.5 56.5zM170 209q-3 -9 2 -14.5t12.5 -8t15 -0.5t9.5 9l12 38q3 11 -5.5 16t-22.5 5q-2 0 -6.5 -3t-4.5 -5zM328 1501q0 14 4.5 30t15.5 25l209 164q28 23 59 23q11 0 27.5 -5t32.5 -18l207 -164q14 -11 17 -24.5t3 -30.5 q0 -32 -10.5 -56.5t-27.5 -40.5t-38 -24t-41 -8q-23 0 -39 4.5t-36 20.5l-95 71l-96 -71q-18 -14 -35.5 -19.5t-40.5 -5.5q-18 0 -38.5 7.5t-38 23.5t-28.5 40t-11 58zM358 1532q0 -11 10.5 -16.5t24.5 10.5q14 15 28.5 23.5t14.5 13.5q0 17 -3.5 20.5t-20.5 3.5 q-15 -8 -27 -17q-11 -8 -19 -17.5t-8 -20.5zM508 1292q0 -11 4.5 -20.5t19.5 -9.5q6 0 18 9.5t24.5 21t22 21.5t9.5 11q0 25 -15.5 27.5t-33.5 -7t-33.5 -25.5t-15.5 -28zM545 549h139l-68 285z" />
<glyph unicode="&#xc3;" horiz-adv-x="1212" d="M137 141q0 14 5 33.5t10 32.5l319 1034q9 28 19 53t27 43.5t42 29.5t64 11q57 0 92.5 -35.5t54.5 -101.5l295 -1036q5 -19 8.5 -33.5t3.5 -34.5q0 -31 -11.5 -56t-32 -43t-48.5 -28t-61 -10q-113 0 -138 96l-41 170h-270l-49 -164q-5 -19 -20 -37.5t-35 -32.5t-44 -23 t-48 -9q-31 0 -57 10.5t-45 29.5t-29.5 44.5t-10.5 56.5zM170 209q-3 -9 2 -14.5t12.5 -8t15 -0.5t9.5 9l12 38q3 11 -5.5 16t-22.5 5q-2 0 -6.5 -3t-4.5 -5zM258 1497q0 23 13.5 55t39.5 60.5t64 48.5t86 20q14 0 28 -3.5t25 -8.5l188 -78q5 -2 15.5 -6t21.5 -4 q20 0 31.5 16.5t22.5 36t25.5 36t41.5 16.5q16 0 30 -7.5t24 -20t16 -28.5t6 -33q0 -33 -16.5 -68t-44 -64t-63.5 -47.5t-75 -18.5q-14 0 -35.5 5t-35.5 11l-152 64q-14 6 -33.5 13t-27.5 7q-23 0 -34 -14.5t-20.5 -32.5t-22.5 -32.5t-42 -14.5q-12 0 -25.5 5t-25 16 t-18.5 28.5t-7 42.5zM279 1524q0 -5 8 -10t14 -5q14 0 18 8.5t7 16.5q8 20 27 40t40 36q6 5 11.5 6.5t5.5 9.5q0 6 -3.5 17.5t-11.5 11.5q-12 0 -32 -14t-38.5 -34.5t-32 -43t-13.5 -39.5zM508 1292q0 -11 4.5 -20.5t19.5 -9.5q6 0 18 9.5t24.5 21t22 21.5t9.5 11 q0 25 -15.5 27.5t-33.5 -7t-33.5 -25.5t-15.5 -28zM545 549h139l-68 285zM807 1624q0 -5 4.5 -7.5t9.5 -2.5q2 0 8.5 5t13.5 12t12 13t5 7q0 16 -16 16q-6 0 -12.5 -4t-12 -10.5t-9 -14t-3.5 -14.5z" />
<glyph unicode="&#xc4;" horiz-adv-x="1212" d="M137 141q0 14 5 33.5t10 32.5l319 1034q9 28 19 53t27 43.5t42 29.5t64 11q57 0 92.5 -35.5t54.5 -101.5l295 -1036q5 -19 8.5 -33.5t3.5 -34.5q0 -31 -11.5 -56t-32 -43t-48.5 -28t-61 -10q-113 0 -138 96l-41 170h-270l-49 -164q-5 -19 -20 -37.5t-35 -32.5t-44 -23 t-48 -9q-31 0 -57 10.5t-45 29.5t-29.5 44.5t-10.5 56.5zM170 209q-3 -9 2 -14.5t12.5 -8t15 -0.5t9.5 9l12 38q3 11 -5.5 16t-22.5 5q-2 0 -6.5 -3t-4.5 -5zM297 1522q0 25 10.5 48t27.5 40.5t40.5 28t48.5 10.5q26 0 49 -10.5t41 -28.5t28.5 -41t10.5 -47q0 -25 -9 -47 t-25.5 -39t-40.5 -27t-54 -10q-25 0 -48.5 10.5t-40.5 28t-27.5 39.5t-10.5 45zM328 1565q0 -11 6.5 -16t15.5 -5q6 0 15.5 7t19 16t16.5 18.5t7 13.5q0 20 -12.5 22.5t-27.5 -5.5t-27.5 -22.5t-12.5 -28.5zM508 1292q0 -11 4.5 -20.5t19.5 -9.5q6 0 18 9.5t24.5 21t22 21.5 t9.5 11q0 25 -15.5 27.5t-33.5 -7t-33.5 -25.5t-15.5 -28zM545 549h139l-68 285zM662 1524q0 25 10.5 48t27.5 40.5t40 28t48 10.5q26 0 49.5 -10.5t41.5 -28.5t28.5 -41t10.5 -47q0 -25 -9 -47t-26 -39t-41 -27t-54 -10q-26 0 -49 10.5t-40 28t-27 39.5t-10 45zM692 1567 q0 -11 6.5 -17t16.5 -6q5 0 14.5 7t19 17t16.5 19.5t7 14.5q0 20 -12.5 22t-27.5 -6t-27.5 -22.5t-12.5 -28.5z" />
<glyph unicode="&#xc5;" horiz-adv-x="1212" d="M137 141q0 14 5 33.5t10 32.5l319 1034q9 28 19 53t27 43.5t42 29.5t64 11q57 0 92.5 -35.5t54.5 -101.5l295 -1036q5 -19 8.5 -33.5t3.5 -34.5q0 -31 -11.5 -56t-32 -43t-48.5 -28t-61 -10q-113 0 -138 96l-41 170h-270l-49 -164q-5 -19 -20 -37.5t-35 -32.5t-44 -23 t-48 -9q-31 0 -57 10.5t-45 29.5t-29.5 44.5t-10.5 56.5zM170 209q-3 -9 2 -14.5t12.5 -8t15 -0.5t9.5 9l12 38q3 11 -5.5 16t-22.5 5q-2 0 -6.5 -3t-4.5 -5zM430 1587q0 37 14.5 72t40 62.5t61.5 44t79 16.5q41 0 76 -15t61.5 -41.5t41.5 -62t15 -76.5q0 -43 -18 -80 t-46 -64.5t-61.5 -43t-64.5 -15.5q-25 0 -59 13.5t-65 39.5t-53 64t-22 86zM481 1671q0 -6 4 -13t11 -7q15 0 20.5 2.5t15.5 17.5q11 14 23 23t12 20q0 13 -8 18t-14 5q-8 0 -19 -7.5t-21 -18t-17 -21.5t-7 -19zM508 1292q0 -11 4.5 -20.5t19.5 -9.5q6 0 18 9.5t24.5 21 t22 21.5t9.5 11q0 25 -15.5 27.5t-33.5 -7t-33.5 -25.5t-15.5 -28zM545 549h139l-68 285zM551 1587q0 -29 21 -51.5t53 -22.5q29 0 51 21.5t22 52.5q0 28 -19.5 51t-53.5 23q-16 0 -29.5 -6.5t-23.5 -17t-15.5 -24t-5.5 -26.5z" />
<glyph unicode="&#xc6;" horiz-adv-x="1415" d="M41 160q0 11 3.5 25t6.5 22l332 1050q35 109 147 109h363q18 0 41 -10t44 -29.5t35.5 -48t14.5 -64.5q0 -25 -10.5 -51.5t-31 -48t-49.5 -35.5t-65 -14h-137l62 -211h200q26 0 53.5 -10.5t50 -30t36.5 -47.5t14 -64q0 -33 -11.5 -60.5t-32.5 -47t-49.5 -30.5t-62.5 -11 h-110l76 -252h253q31 0 58 -12t47 -32.5t31.5 -48t11.5 -58.5q0 -28 -12 -55t-32.5 -48t-47.5 -34t-56 -13h-370q-31 0 -55.5 10t-43 26t-30.5 35t-17 38l-41 163h-274l-55 -190q-5 -16 -17.5 -31t-29 -26t-36.5 -18t-40 -7q-35 0 -65 12t-52 33.5t-34.5 51t-12.5 63.5z M76 205q0 -8 2.5 -16.5t11.5 -8.5q20 0 24.5 5t10.5 22q3 9 5.5 14t2.5 15q0 6 -7.5 12t-16.5 6q-10 0 -16.5 -7t-10 -16t-5 -16.5t-1.5 -9.5zM418 1268q0 -11 9.5 -15t18.5 -4q2 0 11 8t19 18q11 11 26 25q0 10 -3.5 21.5t-13.5 11.5q-13 0 -25 -7t-21.5 -16.5t-15 -21 t-5.5 -20.5zM451 555h143l-70 276z" />
<glyph unicode="&#xc7;" horiz-adv-x="993" d="M70 690q0 146 15 253.5t44 172.5q26 54 65.5 99t89.5 77t108 50t120 18q87 0 156 -32t116 -79t72 -100.5t25 -97.5q0 -34 -13.5 -61.5t-34.5 -47t-45.5 -30.5t-46.5 -11q-42 0 -77 17t-48 43q-11 24 -21.5 46t-23.5 38.5t-31.5 26t-45.5 9.5q-148 0 -148 -325 q0 -51 4 -139.5t10 -213.5q2 -27 13.5 -52t30 -45t43.5 -32t53 -12q15 0 32 4.5t31 11.5t24.5 16t12.5 19q7 29 15 57.5t24 51t43.5 37t73.5 14.5q30 0 56 -10t44.5 -27.5t29.5 -42.5t11 -55q0 -60 -23.5 -118t-66.5 -107q-21 -24 -42 -41t-43 -30t-43 -23t-42 -19l-43 -106 q-6 -15 -19.5 -29.5t-32 -26t-40.5 -19t-45 -7.5q-28 0 -55 9.5t-48 27t-34 42t-13 54.5q0 23 5 43t10 32q-27 16 -52.5 33t-49 38t-45 49t-40.5 67q-23 46 -36 98t-19.5 111.5t-8 127.5t-1.5 146zM141 1085q0 -9 6 -16.5t17 -7.5q20 0 27.5 14.5t13.5 28.5q8 18 26 42 t42 46.5t50.5 41t51.5 26.5q6 2 13 4t12.5 5t9.5 8.5t4 14.5q0 11 -8 18t-17 7q-18 0 -44 -12.5t-53.5 -33t-54.5 -46t-48.5 -51t-34.5 -49t-13 -40.5zM643 377q0 -9 8 -15t19 -6q12 0 20 13t21 22q15 11 18.5 16.5t3.5 20.5q0 8 -10 12t-21 4q-4 0 -14 -6t-20 -16 t-17.5 -21.5t-7.5 -23.5z" />
<glyph unicode="&#xc8;" horiz-adv-x="1116" d="M219 145v1074q0 24 8.5 49.5t27.5 47.5t48 36t70 14h366q36 0 63.5 -13t46 -33.5t27.5 -45.5t9 -49q0 -34 -10.5 -62t-29.5 -48.5t-45.5 -32t-58.5 -11.5h-221v-211h197q71 0 107 -42.5t36 -108.5q0 -32 -12.5 -59.5t-33.5 -47.5t-48 -31.5t-55 -11.5h-191v-258h248 q75 0 110 -42.5t35 -108.5q0 -34 -12.5 -62t-32 -47.5t-43 -30t-45.5 -10.5h-399q-34 0 -63.5 11t-51.5 30.5t-34.5 46t-12.5 57.5zM252 1260q0 -7 5.5 -12t14.5 -5q4 0 17.5 10t27.5 23.5t25.5 26t11.5 16.5q0 8 -9 14t-17 6q-6 0 -18.5 -6.5t-25 -18t-22.5 -25.5t-10 -29z M375 1669q0 27 10 49.5t26 38t34.5 24.5t35.5 9q27 0 47.5 -7t35 -17t23.5 -21.5t13 -20.5l72 -163q8 -17 8 -33q0 -29 -11 -53t-27.5 -41t-36.5 -26t-38 -9q-20 0 -38 6t-32.5 15.5t-25.5 21t-16 22.5l-74 170q-5 10 -5.5 18t-0.5 17zM397 1704q0 -5 6.5 -10.5t12.5 -5.5 q11 0 14 3.5t6 8.5q4 6 10.5 10.5t13 9.5t11 11.5t4.5 15.5q0 8 -6 14t-12 6q-9 0 -19.5 -6t-19.5 -15.5t-15 -20.5t-6 -21z" />
<glyph unicode="&#xc9;" horiz-adv-x="1116" d="M219 145v1074q0 24 8.5 49.5t27.5 47.5t48 36t70 14h366q36 0 63.5 -13t46 -33.5t27.5 -45.5t9 -49q0 -34 -10.5 -62t-29.5 -48.5t-45.5 -32t-58.5 -11.5h-221v-211h197q71 0 107 -42.5t36 -108.5q0 -32 -12.5 -59.5t-33.5 -47.5t-48 -31.5t-55 -11.5h-191v-258h248 q75 0 110 -42.5t35 -108.5q0 -34 -12.5 -62t-32 -47.5t-43 -30t-45.5 -10.5h-399q-34 0 -63.5 11t-51.5 30.5t-34.5 46t-12.5 57.5zM252 1260q0 -7 5.5 -12t14.5 -5q4 0 17.5 10t27.5 23.5t25.5 26t11.5 16.5q0 8 -9 14t-17 6q-6 0 -18.5 -6.5t-25 -18t-22.5 -25.5t-10 -29z M434 1516q0 6 3 16.5t5 15.5l74 164q4 9 13 20t23.5 21.5t35 17.5t47.5 7q15 0 33.5 -8t34.5 -24t27 -38t11 -51q0 -9 -0.5 -17.5t-5.5 -17.5l-76 -170q-11 -25 -40.5 -45.5t-69.5 -20.5q-18 0 -38 9t-37 26t-28.5 41t-11.5 54zM526 1692q0 -5 7.5 -11t13.5 -6q11 0 14 4 t6 9q4 6 10.5 10.5t13 9.5t11 11.5t4.5 15.5q0 6 -6 13t-12 7q-9 0 -19.5 -6t-20 -15.5t-16 -20.5t-6.5 -21z" />
<glyph unicode="&#xca;" horiz-adv-x="1116" d="M219 145v1074q0 24 8.5 49.5t27.5 47.5t48 36t70 14h366q36 0 63.5 -13t46 -33.5t27.5 -45.5t9 -49q0 -34 -10.5 -62t-29.5 -48.5t-45.5 -32t-58.5 -11.5h-221v-211h197q71 0 107 -42.5t36 -108.5q0 -32 -12.5 -59.5t-33.5 -47.5t-48 -31.5t-55 -11.5h-191v-258h248 q75 0 110 -42.5t35 -108.5q0 -34 -12.5 -62t-32 -47.5t-43 -30t-45.5 -10.5h-399q-34 0 -63.5 11t-51.5 30.5t-34.5 46t-12.5 57.5zM252 1260q0 -7 5.5 -12t14.5 -5q4 0 17.5 10t27.5 23.5t25.5 26t11.5 16.5q0 8 -9 14t-17 6q-6 0 -18.5 -6.5t-25 -18t-22.5 -25.5t-10 -29z M258 1530q0 14 4 29t17 24l206 166q27 20 60 20q11 0 27.5 -4t31.5 -16l207 -166q14 -11 17 -23.5t3 -29.5q0 -33 -10.5 -57.5t-27 -41t-36.5 -24.5t-40 -8q-23 0 -39.5 5t-36.5 19l-96 72l-96 -72q-19 -14 -36 -19t-40 -5q-18 0 -38.5 8t-37.5 24t-28 40.5t-11 58.5z M289 1559q0 -11 10.5 -16.5t24.5 9.5q14 16 27.5 24t13.5 13q0 17 -4 22t-19 5q-15 -9 -26 -19q-10 -8 -18.5 -18t-8.5 -20z" />
<glyph unicode="&#xcb;" horiz-adv-x="1116" d="M219 145v1074q0 24 8.5 49.5t27.5 47.5t48 36t70 14h366q36 0 63.5 -13t46 -33.5t27.5 -45.5t9 -49q0 -34 -10.5 -62t-29.5 -48.5t-45.5 -32t-58.5 -11.5h-221v-211h197q71 0 107 -42.5t36 -108.5q0 -32 -12.5 -59.5t-33.5 -47.5t-48 -31.5t-55 -11.5h-191v-258h248 q75 0 110 -42.5t35 -108.5q0 -34 -12.5 -62t-32 -47.5t-43 -30t-45.5 -10.5h-399q-34 0 -63.5 11t-51.5 30.5t-34.5 46t-12.5 57.5zM252 1260q0 -7 5.5 -12t14.5 -5q4 0 17.5 10t27.5 23.5t25.5 26t11.5 16.5q0 8 -9 14t-17 6q-6 0 -18.5 -6.5t-25 -18t-22.5 -25.5t-10 -29z M252 1520q0 25 10.5 48t27.5 40.5t40.5 28t48.5 10.5t48.5 -11t41.5 -29t28.5 -40.5t10.5 -46.5q0 -25 -9 -47t-25.5 -39t-40.5 -27t-54 -10q-26 0 -49 11t-40.5 28t-27.5 39.5t-10 44.5zM283 1563q0 -11 7.5 -16t16.5 -5q6 0 15 7t18 16.5t15.5 19t6.5 14.5q0 20 -12.5 22 t-27 -6.5t-27 -23t-12.5 -28.5zM616 1522q0 25 10.5 48t28 40.5t40.5 28t48 10.5q26 0 49 -10.5t41 -28.5t28.5 -41t10.5 -47q0 -25 -9 -47.5t-26 -39.5t-41 -26.5t-53 -9.5q-25 0 -48 10.5t-40.5 28t-28 39.5t-10.5 45zM647 1565q0 -11 7.5 -16t17.5 -5q5 0 14.5 6.5 t18.5 15.5t15.5 18.5t6.5 14.5q0 20 -12.5 22.5t-27.5 -5.5t-27.5 -22.5t-12.5 -28.5z" />
<glyph unicode="&#xcc;" horiz-adv-x="743" d="M219 150v1064q0 75 37 113.5t113 38.5q75 0 113 -38.5t38 -113.5v-1064q0 -150 -151 -150q-150 0 -150 150zM219 1669q0 27 10.5 49.5t26 38t34.5 24.5t36 9q27 0 47 -7t34.5 -17t23.5 -21.5t13 -20.5l72 -163q8 -17 8 -33q0 -29 -10.5 -53t-27 -41t-36.5 -26t-38 -9 q-41 0 -70.5 21t-40.5 44l-76 170q-5 10 -5.5 18t-0.5 17zM242 1704q0 -5 7 -10.5t13 -5.5q11 0 13 3.5t6 8.5q4 6 11 10.5t13.5 9.5t11.5 11.5t5 15.5q0 8 -6.5 14t-12.5 6q-8 0 -18.5 -6t-20 -15.5t-16 -20.5t-6.5 -21zM256 1276q0 -4 0.5 -9.5t2 -10.5t5 -9t10.5 -4 q9 0 15 4.5t11 11t11 14t15 13.5q5 3 14.5 9t9.5 16q0 11 -6.5 17.5t-17.5 6.5q-12 0 -24 -7t-22.5 -16.5t-17 -19.5t-6.5 -16z" />
<glyph unicode="&#xcd;" horiz-adv-x="745" d="M219 150v1064q0 75 37 113.5t113 38.5q75 0 113 -38.5t38 -113.5v-1064q0 -150 -151 -150q-150 0 -150 150zM223 1528q0 6 3 17t5 16l72 163q4 9 13 20.5t23.5 21.5t35 17t47.5 7q15 0 33.5 -8t34.5 -24t27 -38t11 -51q0 -9 -0.5 -17t-5.5 -18l-76 -170 q-5 -11 -15.5 -22.5t-25 -21t-32 -15.5t-37.5 -6q-18 0 -37.5 9t-36.5 25.5t-28 40.5t-11 54zM256 1276q0 -4 0.5 -9.5t2 -10.5t5 -9t10.5 -4q9 0 15 4.5t11 11t11 14t15 13.5q5 3 14.5 9t9.5 16q0 11 -6.5 17.5t-17.5 6.5q-12 0 -24 -7t-22.5 -16.5t-17 -19.5t-6.5 -16z M315 1704q0 -5 7.5 -10.5t13.5 -5.5q11 0 13 3.5t5 8.5q4 6 11 10.5t13.5 9.5t11.5 11.5t5 15.5q0 8 -6 14t-12 6q-9 0 -19.5 -6t-20 -15.5t-16 -20.5t-6.5 -21z" />
<glyph unicode="&#xce;" horiz-adv-x="1012" d="M219 1530q0 14 5 29t16 24l206 166q27 20 60 20q11 0 27.5 -4t31.5 -16l209 -166q14 -11 17.5 -23.5t3.5 -29.5q0 -32 -11 -56.5t-28 -41t-37.5 -25t-40.5 -8.5q-23 0 -39.5 5t-36.5 19l-96 72l-94 -72q-20 -15 -36.5 -19.5t-39.5 -4.5q-18 0 -39 8t-38 24t-28.5 40.5 t-11.5 58.5zM250 1559q0 -11 10.5 -16.5t24.5 9.5q14 16 28.5 24t14.5 13q0 16 -4 21.5t-21 5.5q-15 -9 -26 -19q-10 -8 -18.5 -18t-8.5 -20zM350 150v1064q0 75 38 113.5t114 38.5q75 0 112 -38.5t37 -113.5v-1064q0 -150 -149 -150q-152 0 -152 150zM387 1276 q0 -8 3.5 -20.5t17.5 -12.5q9 0 14.5 4.5t10 11t10 14t14.5 13.5q5 3 14.5 9t9.5 16q0 11 -5.5 17.5t-16.5 6.5q-12 0 -24.5 -7t-23 -16.5t-17.5 -19.5t-7 -16z" />
<glyph unicode="&#xcf;" horiz-adv-x="1057" d="M219 1505q0 26 10.5 49t28 40t40.5 27.5t48 10.5q26 0 49 -10.5t41 -28t28.5 -40.5t10.5 -48t-9 -47.5t-26 -39t-41 -26.5t-53 -10q-25 0 -48 10.5t-40.5 28t-28 39.5t-10.5 45zM250 1546q0 -11 7.5 -15.5t16.5 -4.5q6 0 15.5 7t18.5 16.5t15.5 19t6.5 14.5 q0 20 -12.5 22t-27.5 -6.5t-27.5 -23.5t-12.5 -29zM387 150v1064q0 75 38 113.5t114 38.5q75 0 112 -38.5t37 -113.5v-1064q0 -150 -149 -150q-152 0 -152 150zM424 1276q0 -4 0.5 -9.5t2 -10.5t5 -9t10.5 -4q10 0 16 4.5t11.5 11t10.5 14t14 13.5q5 3 14.5 9t9.5 16 q0 11 -5 17.5t-17 6.5t-24.5 -7t-23 -16.5t-17.5 -19.5t-7 -16zM584 1507q0 26 10.5 49t28.5 40t41.5 27.5t48.5 10.5q24 0 47 -10.5t41 -28t28.5 -40.5t10.5 -48q0 -24 -8.5 -46.5t-25 -39.5t-40 -27t-53.5 -10q-26 0 -49.5 10.5t-41 28t-28 39.5t-10.5 45zM616 1548 q0 -11 7 -15.5t16 -4.5q5 0 14.5 7t18.5 17t15.5 19.5t6.5 13.5q0 20 -12 22t-27 -6.5t-27 -23.5t-12 -29z" />
<glyph unicode="&#xd0;" />
<glyph unicode="&#xd1;" horiz-adv-x="1305" d="M219 150v1073q0 20 11 44t30 44.5t44.5 34.5t53.5 14q47 0 81.5 -18t60.5 -60l286 -461v389q0 150 150 150q151 0 151 -150v-1060q0 -150 -151 -150q-150 0 -150 150v145l-266 424v-569q0 -150 -151 -150q-150 0 -150 150zM262 1257q0 -8 3.5 -20t17.5 -12q10 0 15.5 4.5 t10 11t9.5 14t14 13.5q5 3 14.5 9t9.5 15q0 11 -5.5 19t-16.5 8q-12 0 -24.5 -7.5t-23 -17.5t-17.5 -20.5t-7 -16.5zM307 1513q0 23 13.5 54.5t39.5 60t64 48.5t86 20q14 0 29 -4t26 -9l187 -77q5 -2 16.5 -5.5t22.5 -3.5q20 0 31 16t21.5 35.5t24.5 35.5t41 16 q16 0 30 -7.5t24 -19.5t16 -27.5t6 -31.5q0 -34 -16.5 -69t-44 -64t-63.5 -47.5t-75 -18.5q-15 0 -36 4t-35 11l-150 65q-7 3 -16.5 6l-19 6t-17 4.5t-10.5 1.5q-23 0 -33.5 -14.5t-19.5 -31.5t-22 -31.5t-42 -14.5q-12 0 -26 5t-25.5 16t-19 28.5t-7.5 42.5zM328 1540 q0 -5 8 -9.5t14 -4.5q14 0 18 8t7 16q8 19 27 39t40 35q7 5 12 6.5t5 9.5t-2.5 18.5t-12.5 10.5q-12 0 -31.5 -14t-38.5 -34t-32.5 -42t-13.5 -39zM813 1278q0 -8 3.5 -20.5t17.5 -12.5q10 0 15.5 4t10 10.5t9.5 13.5t14 13q5 3 14.5 10t9.5 17q0 11 -5 17.5t-17 6.5 t-24.5 -7t-23 -16.5t-17.5 -19.5t-7 -16zM856 1640q0 -5 4.5 -8.5t9.5 -3.5q3 0 9 5t13 12t12 13t5 7q0 16 -14 16q-5 0 -12 -3.5t-13 -9.5t-10 -13.5t-4 -14.5z" />
<glyph unicode="&#xd2;" horiz-adv-x="1235" d="M174 760q0 150 32.5 263.5t91 190t141 115.5t182.5 39q54 0 106.5 -14t99 -41.5t86 -67.5t68.5 -92q47 -88 62.5 -187.5t15.5 -215.5t-5 -217.5t-30 -192.5q-48 -170 -155 -259t-259 -89q-64 0 -124 19t-110.5 56.5t-90 92t-64.5 125.5q-28 78 -37.5 196t-9.5 279z M252 1087q0 -6 9 -12t20 -6q8 0 14 9t8 14q23 46 51 77t56 51.5t53 33.5t43 22q12 6 19 13t7 26q0 8 -6 13t-14 5q-19 0 -46 -12t-56 -32.5t-57.5 -46t-50.5 -53t-36 -54t-14 -48.5zM455 1669q0 27 10 49.5t26 38t34.5 24.5t35.5 9q27 0 47.5 -7t35 -17t23.5 -21.5t13 -20.5 l72 -163q8 -17 8 -33q0 -29 -11 -53t-27.5 -41t-36.5 -26t-38 -9q-20 0 -37.5 6t-32 15.5t-25 21t-15.5 22.5l-76 170q-5 10 -5.5 18t-0.5 17zM457 598.5q0 -68.5 5 -123t17.5 -95t38.5 -67.5q17 -18 42 -30.5t48 -12.5q49 0 81.5 23t51.5 71.5t27 125t8 184.5 q0 101 -4.5 179t-21 130.5t-48 79.5t-86.5 27q-27 0 -57.5 -16t-50.5 -42q-35 -43 -43 -113t-8 -169v-151.5zM477 1704q0 -5 7 -10.5t14 -5.5q11 0 13 3.5t5 8.5q4 6 11 10.5t13.5 9.5t11.5 11.5t5 15.5q0 8 -6 14t-12 6q-9 0 -19.5 -6t-20 -15.5t-16 -20.5t-6.5 -21z M657 242q0 -11 8 -19t17 -8q10 0 29 11t37.5 27.5t32.5 36t14 36.5q0 8 -8 14t-17 6q-12 0 -19 -7t-10 -13q-17 -26 -31 -38t-32 -22q-6 -3 -13.5 -7.5t-7.5 -16.5z" />
<glyph unicode="&#xd3;" horiz-adv-x="1235" d="M174 760q0 150 32.5 263.5t91 190t141 115.5t182.5 39q54 0 106.5 -14t99 -41.5t86 -67.5t68.5 -92q47 -88 62.5 -187.5t15.5 -215.5t-5 -217.5t-30 -192.5q-48 -170 -155 -259t-259 -89q-64 0 -124 19t-110.5 56.5t-90 92t-64.5 125.5q-28 78 -37.5 196t-9.5 279z M252 1087q0 -6 9 -12t20 -6q8 0 14 9t8 14q23 46 51 77t56 51.5t53 33.5t43 22q12 6 19 13t7 26q0 8 -6 13t-14 5q-19 0 -46 -12t-56 -32.5t-57.5 -46t-50.5 -53t-36 -54t-14 -48.5zM457 598.5q0 -68.5 5 -123t17.5 -95t38.5 -67.5q17 -18 42 -30.5t48 -12.5q49 0 81.5 23 t51.5 71.5t27 125t8 184.5q0 101 -4.5 179t-21 130.5t-48 79.5t-86.5 27q-27 0 -57.5 -16t-50.5 -42q-35 -43 -43 -113t-8 -169v-151.5zM475 1528q0 6 3 17t5 16l72 163q4 9 13 20.5t23.5 21.5t35 17t47.5 7q15 0 33.5 -8t34.5 -24t27 -38t11 -51q0 -9 -0.5 -17t-5.5 -18 l-76 -170q-5 -11 -15.5 -22.5t-25 -21t-32 -15.5t-37.5 -6q-18 0 -37.5 9t-36.5 25.5t-28 40.5t-11 54zM567 1704q0 -5 7.5 -10.5t13.5 -5.5q11 0 13 3.5t5 8.5q4 6 11 10.5t13.5 9.5t11.5 11.5t5 15.5q0 8 -6 14t-12 6q-9 0 -19.5 -6t-20 -15.5t-16 -20.5t-6.5 -21z M657 242q0 -11 8 -19t17 -8q10 0 29 11t37.5 27.5t32.5 36t14 36.5q0 8 -8 14t-17 6q-12 0 -19 -7t-10 -13q-17 -26 -31 -38t-32 -22q-6 -3 -13.5 -7.5t-7.5 -16.5z" />
<glyph unicode="&#xd4;" horiz-adv-x="1235" d="M174 760q0 150 32.5 263.5t91 190t141 115.5t182.5 39q54 0 106.5 -14t99 -41.5t86 -67.5t68.5 -92q47 -88 62.5 -187.5t15.5 -215.5t-5 -217.5t-30 -192.5q-48 -170 -155 -259t-259 -89q-64 0 -124 19t-110.5 56.5t-90 92t-64.5 125.5q-28 78 -37.5 196t-9.5 279z M252 1087q0 -6 9 -12t20 -6q8 0 14 9t8 14q23 46 51 77t56 51.5t53 33.5t43 22q12 6 19 13t7 26q0 8 -6 13t-14 5q-19 0 -46 -12t-56 -32.5t-57.5 -46t-50.5 -53t-36 -54t-14 -48.5zM332 1530q0 14 4 29t16 24l207 166q27 20 59 20q11 0 27.5 -4t32.5 -16l207 -166 q14 -11 17 -23.5t3 -29.5q0 -33 -10.5 -57.5t-27 -41t-36.5 -24.5t-40 -8q-23 0 -39.5 5t-36.5 19l-97 72l-96 -72q-18 -14 -35.5 -19t-40.5 -5q-18 0 -38.5 8t-37 24t-27.5 40.5t-11 58.5zM362 1559q0 -11 10.5 -16.5t24.5 9.5q14 16 27.5 24t13.5 13q0 17 -3.5 22t-18.5 5 q-15 -9 -27 -19q-11 -8 -19 -18t-8 -20zM457 598.5q0 -68.5 5 -123t17.5 -95t38.5 -67.5q17 -18 42 -30.5t48 -12.5q49 0 81.5 23t51.5 71.5t27 125t8 184.5q0 101 -4.5 179t-21 130.5t-48 79.5t-86.5 27q-27 0 -57.5 -16t-50.5 -42q-35 -43 -43 -113t-8 -169v-151.5z M657 242q0 -11 8 -19t17 -8q10 0 29 11t37.5 27.5t32.5 36t14 36.5q0 8 -8 14t-17 6q-12 0 -19 -7t-10 -13q-17 -26 -31 -38t-32 -22q-6 -3 -13.5 -7.5t-7.5 -16.5z" />
<glyph unicode="&#xd5;" horiz-adv-x="1235" d="M174 760q0 150 32.5 263.5t91 190t141 115.5t182.5 39q54 0 106.5 -14t99 -41.5t86 -67.5t68.5 -92q47 -88 62.5 -187.5t15.5 -215.5t-5 -217.5t-30 -192.5q-48 -170 -155 -259t-259 -89q-64 0 -124 19t-110.5 56.5t-90 92t-64.5 125.5q-28 78 -37.5 196t-9.5 279z M252 1087q0 -6 9 -12t20 -6q8 0 14 9t8 14q23 46 51 77t56 51.5t53 33.5t43 22q12 6 19 13t7 26q0 8 -6 13t-14 5q-19 0 -46 -12t-56 -32.5t-57.5 -46t-50.5 -53t-36 -54t-14 -48.5zM283 1497q0 23 13.5 55t40 60.5t64.5 48.5t86 20q14 0 28.5 -3.5t25.5 -8.5l188 -78 q6 -2 16 -6t21 -4q20 0 31 16.5t22 36t26 36t42 16.5q16 0 30 -8t24 -20.5t16 -28.5t6 -32q0 -33 -16 -68t-43.5 -64t-63.5 -47.5t-76 -18.5q-14 0 -35 5t-37 11l-151 64q-7 3 -16 6.5t-18 6.5t-16.5 5t-11.5 2q-23 0 -33.5 -14.5t-20 -32.5t-23 -32.5t-42.5 -14.5 q-12 0 -25.5 5t-25 16t-19 28.5t-7.5 42.5zM303 1524q0 -5 8 -10t15 -5q14 0 17.5 8.5t6.5 16.5q8 20 28 40t42 36q6 5 11 6.5t5 9.5q0 6 -4 17.5t-12 11.5q-12 0 -32 -14t-39 -34.5t-32.5 -43t-13.5 -39.5zM457 598.5q0 -68.5 5 -123t17.5 -95t38.5 -67.5q17 -18 42 -30.5 t48 -12.5q49 0 81.5 23t51.5 71.5t27 125t8 184.5q0 101 -4.5 179t-21 130.5t-48 79.5t-86.5 27q-27 0 -57.5 -16t-50.5 -42q-35 -43 -43 -113t-8 -169v-151.5zM657 242q0 -11 8 -19t17 -8q10 0 29 11t37.5 27.5t32.5 36t14 36.5q0 8 -8 14t-17 6q-12 0 -19 -7t-10 -13 q-17 -26 -31 -38t-32 -22q-6 -3 -13.5 -7.5t-7.5 -16.5zM831 1624q0 -6 6 -8t11 -2q2 0 8 5t12.5 12t11.5 13t5 7q0 16 -15 16q-11 0 -25 -14.5t-14 -28.5z" />
<glyph unicode="&#xd6;" horiz-adv-x="1235" d="M176 715q0 99 7.5 180.5t27.5 146.5q23 76 62.5 136.5t92.5 102.5t117.5 64.5t137.5 22.5q54 0 106.5 -14t99 -41.5t86 -67.5t68.5 -92q46 -84 63 -182.5t17 -216.5q0 -104 -6.5 -190.5t-14.5 -139.5q-15 -102 -52 -182t-93 -135.5t-128 -85t-157 -29.5q-60 0 -117.5 18 t-107 51.5t-89 81.5t-63.5 109q-24 63 -40.5 181t-16.5 282zM252 1087q0 -6 9 -12t20 -6q8 0 14 9t8 14q23 46 51 77t56 51.5t53 33.5t43 22q12 6 19 13t7 26q0 8 -6 13t-14 5q-19 0 -46 -12t-56 -32.5t-57.5 -46t-50.5 -53t-36 -54t-14 -48.5zM295 1516q0 25 10.5 48.5 t27.5 41.5t40.5 28.5t48.5 10.5t48.5 -11.5t41.5 -29.5t28.5 -41t10.5 -47q0 -25 -9 -47t-25.5 -38.5t-40.5 -26t-54 -9.5q-26 0 -49 10.5t-40.5 27.5t-27.5 39t-10 44zM326 1559q0 -11 7.5 -16t16.5 -5q6 0 15.5 7t18.5 16.5t15.5 19t6.5 14.5q0 20 -12.5 22t-27.5 -6.5 t-27.5 -23t-12.5 -28.5zM458.5 598.5q-0.5 -68.5 4 -123t17 -95t38.5 -67.5q17 -18 42 -30.5t48 -12.5q49 0 82 23t52.5 71.5t27.5 125t8 184.5q0 101 -5 179t-21.5 130.5t-48.5 79.5t-87 27q-27 0 -57.5 -16t-50.5 -42q-18 -21 -27.5 -49.5t-14.5 -63.5t-6 -77.5t-1 -91.5 q0 -83 -0.5 -151.5zM657 242q0 -11 8 -19t17 -8q10 0 29 11t37.5 27.5t32.5 36t14 36.5q0 8 -8 14t-17 6q-12 0 -19 -7t-10 -13q-17 -26 -31 -38t-32 -22q-6 -3 -13.5 -7.5t-7.5 -16.5zM659 1518q0 25 10.5 48.5t28 41.5t40.5 28.5t48 10.5q26 0 49 -11t41 -29t28.5 -41.5 t10.5 -47.5q0 -25 -9 -47.5t-26 -38.5t-41 -25.5t-53 -9.5q-25 0 -48 10t-40.5 27t-28 39t-10.5 45zM690 1561q0 -11 7.5 -16t17.5 -5q5 0 14.5 7t18.5 16.5t15.5 19t6.5 14.5q0 20 -12.5 22t-27.5 -6.5t-27.5 -23t-12.5 -28.5z" />
<glyph unicode="&#xd7;" />
<glyph unicode="&#xd8;" horiz-adv-x="1096" d="M68 141q0 17 1.5 30.5t10.5 27.5l74 116q-25 141 -29 261t-4 225q0 52 0.5 96t6.5 85t19.5 81.5t38.5 85.5q28 49 67.5 89t87 68.5t101.5 44t109 15.5q68 0 118.5 -18.5t92.5 -38.5l33 30q17 16 41 21.5t49 5.5q31 0 57 -12t44.5 -31.5t29 -44.5t10.5 -51 q0 -20 -2.5 -34.5t-11.5 -31.5l-58 -98q14 -91 22.5 -171t8.5 -147q0 -103 -17 -240t-55 -292q-9 -39 -44 -77t-86 -68.5t-111.5 -49t-120.5 -18.5q-37 0 -67.5 5.5t-57 14.5t-48.5 20l-42 21q-13 -13 -25 -24.5t-26.5 -19.5t-32.5 -12.5t-43 -4.5q-30 0 -56 12t-44.5 31.5 t-29.5 45t-11 52.5zM100 188q0 -7 3.5 -10.5t8.5 -5t10 -2t9 -0.5q3 0 7.5 5t9 12t7.5 15t3 13q0 8 -6.5 13t-14.5 5q-7 0 -14 -6t-12 -14t-8 -15t-3 -10zM188 1096q0 -11 4.5 -20t18.5 -9q15 0 21.5 11t11.5 22q9 22 25.5 45.5t37.5 44.5t44 38t44 25q10 4 20.5 8t19.5 9 t14.5 13.5t5.5 21.5q0 8 -5.5 13t-13.5 5q-20 0 -46 -12t-53.5 -31.5t-54.5 -44t-47.5 -50t-33.5 -49t-13 -40.5zM403 836q0 -23 1.5 -55t1.5 -60l210 346q-15 11 -30.5 15.5t-38.5 4.5q-25 0 -53 -15.5t-48 -41.5q-30 -40 -36.5 -88t-6.5 -106zM479 307q13 -8 30 -14t46 -6 q49 0 74 16t36 40t13 51.5t6 51.5q10 62 12.5 102.5t2.5 64.5q0 28 -3 44zM600 254q0 -9 6.5 -16t14.5 -7q12 0 31 11.5t37 28t31 34t13 29.5q0 9 -5.5 17.5t-16.5 8.5q-14 0 -21 -9t-10 -15q-12 -19 -26 -30t-26 -18.5t-20 -14.5t-8 -19zM795 1294q0 -22 20 -22q6 0 13 4 t13.5 9.5t10.5 12t4 11.5q0 11 -5.5 17.5t-16.5 6.5q-5 0 -11.5 -4t-12.5 -10t-10.5 -12.5t-4.5 -12.5z" />
<glyph unicode="&#xd9;" horiz-adv-x="1268" d="M219 385v829q0 36 13.5 64t35 47.5t48.5 30t53 10.5q34 0 61.5 -12t47.5 -33t31 -48.5t11 -58.5v-831q0 -26 12.5 -45.5t31 -32.5t40 -19t39.5 -5q22 1 41.5 9t34 21.5t23 32t8.5 39.5v831q0 36 12.5 64.5t33 48t48 29.5t57.5 10q25 0 51.5 -7.5t49 -25.5t36.5 -47 t13 -72v-827q0 -75 -34 -146t-92 -127t-134.5 -90t-161.5 -34q-44 0 -91.5 13.5t-93 38.5t-86.5 60.5t-72 79.5t-49 95t-18 108zM256 1272q0 -9 3.5 -17t10 -11.5t16 0.5t21.5 20q6 7 13 12.5t14 10t11.5 8.5t4.5 8q0 13 -1 20t-4 10t-9 3.5t-17 0.5q-5 0 -15.5 -7t-21 -17 t-18.5 -21.5t-8 -19.5zM465 1669q0 27 10 49.5t26 38t34.5 24.5t35.5 9q27 0 47.5 -7t35 -17t23.5 -21.5t13 -20.5l74 -163q8 -17 8 -33q0 -29 -11 -53t-28 -41t-37 -26t-39 -9q-20 0 -37.5 6t-32 15.5t-25 21t-15.5 22.5l-76 170q-5 10 -5.5 18t-0.5 17zM487 1704 q0 -5 7.5 -10.5t13.5 -5.5q11 0 14 3.5t6 8.5q4 6 10.5 10.5t13 9.5t11 11.5t4.5 15.5q0 8 -6 14t-12 6q-9 0 -19.5 -6t-20 -15.5t-16 -20.5t-6.5 -21zM674 248q0 -27 24 -27q11 0 27.5 9t32 21.5t26.5 26.5t11 23q0 16 -9 21.5t-24 5.5q-4 0 -8.5 -4.5t-9.5 -11t-10.5 -13 t-10.5 -10.5t-13.5 -8t-16.5 -9t-13.5 -10.5t-5.5 -13.5zM786 1272q0 -9 4 -17t11 -11.5t17 0.5t22 20q11 14 26 22.5t15 16.5q0 13 -1 20t-4 10t-9 3.5t-17 0.5q-5 0 -16 -7t-21.5 -17t-18.5 -21.5t-8 -19.5z" />
<glyph unicode="&#xda;" horiz-adv-x="1268" d="M219 385v829q0 36 13.5 64t35 47.5t48.5 30t53 10.5q34 0 61.5 -12t47.5 -33t31 -48.5t11 -58.5v-831q0 -26 12.5 -45.5t31 -32.5t40 -19t39.5 -5q22 1 41.5 9t34 21.5t23 32t8.5 39.5v831q0 36 12.5 64.5t33 48t48 29.5t57.5 10q25 0 51.5 -7.5t49 -25.5t36.5 -47 t13 -72v-827q0 -75 -34 -146t-92 -127t-134.5 -90t-161.5 -34q-44 0 -91.5 13.5t-93 38.5t-86.5 60.5t-72 79.5t-49 95t-18 108zM256 1272q0 -9 3.5 -17t10 -11.5t16 0.5t21.5 20q6 7 13 12.5t14 10t11.5 8.5t4.5 8q0 13 -1 20t-4 10t-9 3.5t-17 0.5q-5 0 -15.5 -7t-21 -17 t-18.5 -21.5t-8 -19.5zM455 1528q0 6 3 17t5 16l72 163q4 9 13 20.5t23.5 21.5t34.5 17t47 7q15 0 34 -8t35 -24t27 -38t11 -51q0 -9 -0.5 -17t-5.5 -18l-76 -170q-11 -23 -40.5 -44t-70.5 -21q-18 0 -38 9t-36.5 25.5t-27 40.5t-10.5 54zM547 1704q0 -5 7 -10.5t13 -5.5 q11 0 13.5 3.5t5.5 8.5q4 7 11 11.5t13.5 9.5t11.5 11t5 15q0 6 -6.5 13t-12.5 7q-8 0 -18.5 -6t-20 -15.5t-16 -20.5t-6.5 -21zM674 248q0 -27 24 -27q11 0 27.5 9t32 21.5t26.5 26.5t11 23q0 16 -9 21.5t-24 5.5q-4 0 -8.5 -4.5t-9.5 -11t-10.5 -13t-10.5 -10.5t-13.5 -8 t-16.5 -9t-13.5 -10.5t-5.5 -13.5zM786 1272q0 -9 4 -17t11 -11.5t17 0.5t22 20q11 14 26 22.5t15 16.5q0 13 -1 20t-4 10t-9 3.5t-17 0.5q-5 0 -16 -7t-21.5 -17t-18.5 -21.5t-8 -19.5z" />
<glyph unicode="&#xdb;" horiz-adv-x="1268" d="M219 385v829q0 36 13.5 64t35 47.5t48.5 30t53 10.5q34 0 61.5 -12t47.5 -33t31 -48.5t11 -58.5v-831q0 -26 12.5 -45.5t31 -32.5t40 -19t39.5 -5q22 1 41.5 9t34 21.5t23 32t8.5 39.5v831q0 36 12.5 64.5t33 48t48 29.5t57.5 10q25 0 51.5 -7.5t49 -25.5t36.5 -47 t13 -72v-827q0 -75 -34 -146t-92 -127t-134.5 -90t-161.5 -34q-44 0 -91.5 13.5t-93 38.5t-86.5 60.5t-72 79.5t-49 95t-18 108zM256 1272q0 -9 3.5 -17t10 -11.5t16 0.5t21.5 20q6 7 13 12.5t14 10t11.5 8.5t4.5 8q0 13 -1 20t-4 10t-9 3.5t-17 0.5q-5 0 -15.5 -7t-21 -17 t-18.5 -21.5t-8 -19.5zM354 1530q0 14 4 29t17 24l209 166q14 11 29 15.5t30 4.5q11 0 27.5 -4t31.5 -16l207 -166q14 -11 17.5 -23.5t3.5 -29.5q0 -33 -11 -57.5t-28 -41t-37.5 -24.5t-40.5 -8q-23 0 -39.5 4.5t-36.5 19.5l-94 72l-96 -72q-19 -14 -36 -19t-40 -5 q-18 0 -39 8t-38 24t-28.5 40.5t-11.5 58.5zM385 1559q0 -11 10.5 -16.5t24.5 9.5q14 16 28.5 24t14.5 13q0 17 -4.5 22t-20.5 5q-15 -9 -26 -19q-10 -8 -18.5 -18t-8.5 -20zM674 248q0 -27 24 -27q11 0 27.5 9t32 21.5t26.5 26.5t11 23q0 16 -9 21.5t-24 5.5 q-4 0 -8.5 -4.5t-9.5 -11t-10.5 -13t-10.5 -10.5t-13.5 -8t-16.5 -9t-13.5 -10.5t-5.5 -13.5zM786 1272q0 -9 4 -17t11 -11.5t17 0.5t22 20q11 14 26 22.5t15 16.5q0 13 -1 20t-4 10t-9 3.5t-17 0.5q-5 0 -16 -7t-21.5 -17t-18.5 -21.5t-8 -19.5z" />
<glyph unicode="&#xdc;" horiz-adv-x="1268" d="M219 385v829q0 36 13.5 64t35 47.5t48.5 30t53 10.5q34 0 61.5 -12t47.5 -33t31 -48.5t11 -58.5v-831q0 -26 12.5 -45.5t31 -32.5t40 -19t39.5 -5q22 1 41.5 9t34 21.5t23 32t8.5 39.5v831q0 36 12.5 64.5t33 48t48 29.5t57.5 10q25 0 51.5 -7.5t49 -25.5t36.5 -47 t13 -72v-827q0 -75 -34 -146t-92 -127t-134.5 -90t-161.5 -34q-44 0 -91.5 13.5t-93 38.5t-86.5 60.5t-72 79.5t-49 95t-18 108zM256 1272q0 -9 3.5 -17t10 -11.5t16 0.5t21.5 20q6 7 13 12.5t14 10t11.5 8.5t4.5 8q0 13 -1 20t-4 10t-9 3.5t-17 0.5q-5 0 -15.5 -7t-21 -17 t-18.5 -21.5t-8 -19.5zM328 1516q0 25 10.5 48.5t27.5 41.5t40.5 28.5t48.5 10.5t48.5 -11t41.5 -29t28.5 -41.5t10.5 -47.5q0 -25 -9 -47t-25.5 -38.5t-40.5 -26t-54 -9.5q-26 0 -49 10.5t-40.5 27.5t-27.5 39t-10 44zM358 1559q0 -11 8 -16t17 -5q5 0 14.5 7t18.5 16.5 t15.5 19t6.5 14.5q0 20 -12.5 22t-27.5 -6.5t-27.5 -23t-12.5 -28.5zM674 248q0 -27 24 -27q11 0 27.5 9t32 21.5t26.5 26.5t11 23q0 16 -9 21.5t-24 5.5q-4 0 -8.5 -4.5t-9.5 -11t-10.5 -13t-10.5 -10.5t-13.5 -8t-16.5 -9t-13.5 -10.5t-5.5 -13.5zM694 1518 q0 25 10.5 48.5t28 41.5t40.5 28.5t48 10.5q26 0 49 -11t41 -29t28.5 -41.5t10.5 -47.5q0 -25 -9 -47t-25.5 -38.5t-40.5 -26t-54 -9.5q-25 0 -48 10t-40.5 27t-28 39t-10.5 45zM725 1561q0 -11 6.5 -16t16.5 -5q5 0 14.5 7t19 17t16.5 19.5t7 13.5q0 20 -12.5 22 t-27.5 -6.5t-27.5 -23t-12.5 -28.5zM786 1272q0 -9 4 -17t11 -11.5t17 0.5t22 20q11 14 26 22.5t15 16.5q0 13 -1 20t-4 10t-9 3.5t-17 0.5q-5 0 -16 -7t-21.5 -17t-18.5 -21.5t-8 -19.5z" />
<glyph unicode="&#xdd;" />
<glyph unicode="&#xde;" />
<glyph unicode="&#xdf;" horiz-adv-x="1036" d="M104 147v889q0 63 30 123.5t81 107.5t119 76t145 29q93 0 164 -30t118.5 -78.5t72 -110t24.5 -123.5q0 -45 -7.5 -81.5t-21 -67t-32 -57.5t-39.5 -54q45 -34 81.5 -71.5t62 -80.5t39 -92t13.5 -106q0 -88 -34 -164.5t-88.5 -133.5t-123 -89.5t-137.5 -32.5 q-29 0 -55 11.5t-45.5 31t-31 45t-11.5 53.5q0 51 25.5 89t62.5 49q25 7 52.5 14.5t50.5 22.5t38 41t15 69t-18 74t-45.5 55.5t-59.5 45t-59.5 43t-45.5 50.5t-18 66q0 66 49 108q21 20 41 37t35.5 34t25 34.5t9.5 36.5q0 16 -6.5 32.5t-19.5 29.5t-31.5 21.5t-41.5 8.5 q-16 0 -30.5 -8.5t-26 -22t-18 -30.5t-6.5 -35v-856q0 -35 -14 -62.5t-36.5 -47t-50.5 -30t-57 -10.5q-20 0 -45 11t-47 31t-37 47t-15 58zM158 1137q0 -11 4.5 -18t12 -8t16 5t16.5 21q13 24 30.5 46.5t37 41.5t41.5 32.5t44 20.5q12 4 20.5 6.5t14 6.5t8.5 11.5t3 20.5 q0 6 -7.5 9t-13.5 3q-21 0 -46 -11t-50 -28.5t-49 -39t-42 -43.5t-29 -42t-11 -34zM465 813q0 -14 8 -19.5t21 -5.5q3 0 8.5 4.5t11.5 11t10 13.5t4 12q0 10 -7.5 15.5t-16.5 5.5q-3 0 -9.5 -4.5t-13 -10.5t-11.5 -12t-5 -10zM588 254q0 -9 7 -17t15 -8q10 0 27.5 10t34 25 t29 33t12.5 35q0 14 -15 14q-11 0 -17 -1.5t-10.5 -5.5t-8.5 -11t-11 -17q-9 -13 -20 -20t-20.5 -11.5t-16 -10t-6.5 -15.5z" />
<glyph unicode="&#xe0;" horiz-adv-x="827" d="M68 315q0 119 57.5 207.5t169.5 128.5l209 76q0 12 -1 29.5t-7.5 34t-21 28.5t-40.5 12q-21 0 -37 -9t-32.5 -19.5t-35.5 -19.5t-46 -9q-25 0 -49 10t-43.5 27.5t-31.5 40.5t-12 49q0 43 14.5 71.5t49.5 53.5q20 14 46 26t56 21t62 14t63 5q62 0 120.5 -23.5t105 -70.5 t74.5 -116t28 -161v-576q0 -34 -12 -60.5t-30.5 -45.5t-41.5 -29t-45 -10q-34 0 -61 14t-50 37q-34 -18 -72 -34.5t-87 -16.5q-55 0 -109 21t-96 61.5t-68 99t-26 133.5zM121 453q0 -8 7 -16.5t13 -8.5q16 0 22 10t15 27q10 18 24 35.5t29.5 32.5t32 27t31.5 18q11 5 26 12 t15 22q0 10 -6.5 16.5t-16.5 6.5q-25 0 -58 -21t-63 -50t-50.5 -60t-20.5 -51zM203 989q0 -23 16 -28.5t29 8.5q6 8 12 11.5t11.5 7t8.5 7.5t3 13q0 18 -12.5 20.5t-27.5 -3.5t-27.5 -17t-12.5 -19zM276 1374q0 27 10.5 49.5t26 38t34.5 24.5t36 9q27 0 47.5 -7t35 -16.5 t23.5 -21t13 -20.5l71 -164q5 -10 7 -17t2 -16q0 -29 -11 -52.5t-27.5 -40t-36.5 -25.5t-38 -9q-42 0 -71 21t-40 44l-75 170q-5 10 -6 17t-1 16zM299 1411q0 -5 7 -11.5t13 -6.5q11 0 13.5 4.5t5.5 9.5q4 7 11 11.5t13.5 9.5t11.5 11t5 15q0 6 -7 13.5t-14 7.5t-17.5 -6 t-19.5 -15.5t-15.5 -21t-6.5 -21.5zM315 336q0 -16 6 -32.5t17.5 -29.5t28.5 -21.5t39 -8.5q20 0 37.5 9t30.5 23t20.5 32.5t7.5 37.5v119l-127 -45q-26 -9 -43 -32.5t-17 -51.5zM455 215q0 -6 7 -12t15 -6q5 0 15 5t20.5 13t18.5 18t8 19q0 11 -8 17.5t-19 6.5 q-16 -9 -28 -20q-11 -9 -20 -19.5t-9 -21.5z" />
<glyph unicode="&#xe1;" horiz-adv-x="827" d="M68 315q0 119 57.5 207.5t169.5 128.5l209 76q0 12 -1 29.5t-7.5 34t-21 28.5t-40.5 12q-21 0 -37 -9t-32.5 -19.5t-35.5 -19.5t-46 -9q-25 0 -49 10t-43.5 27.5t-31.5 40.5t-12 49q0 43 14.5 71.5t49.5 53.5q20 14 46 26t56 21t62 14t63 5q62 0 120.5 -23.5t105 -70.5 t74.5 -116t28 -161v-576q0 -34 -12 -60.5t-30.5 -45.5t-41.5 -29t-45 -10q-34 0 -61 14t-50 37q-34 -18 -72 -34.5t-87 -16.5q-55 0 -109 21t-96 61.5t-68 99t-26 133.5zM121 453q0 -8 7 -16.5t13 -8.5q16 0 22 10t15 27q10 18 24 35.5t29.5 32.5t32 27t31.5 18q11 5 26 12 t15 22q0 10 -6.5 16.5t-16.5 6.5q-25 0 -58 -21t-63 -50t-50.5 -60t-20.5 -51zM203 989q0 -23 16 -28.5t29 8.5q6 8 12 11.5t11.5 7t8.5 7.5t3 13q0 18 -12.5 20.5t-27.5 -3.5t-27.5 -17t-12.5 -19zM276 1233q0 6 3.5 17t5.5 16l71 164q4 8 13 19.5t23.5 21.5t35 17t47.5 7 q15 0 33.5 -8t35 -23.5t27.5 -38t11 -51.5q0 -9 -1 -16t-6 -17l-75 -170q-11 -24 -41 -44.5t-70 -20.5q-18 0 -38 8.5t-36.5 25t-27.5 40t-11 53.5zM315 336q0 -16 6 -32.5t17.5 -29.5t28.5 -21.5t39 -8.5q20 0 37.5 9t30.5 23t20.5 32.5t7.5 37.5v119l-127 -45 q-26 -9 -43 -32.5t-17 -51.5zM369 1411q0 -6 7 -12t13 -6q11 0 13 4.5t6 9.5q4 6 11 10.5t13.5 10t11.5 11.5t5 15q0 6 -6.5 13.5t-12.5 7.5q-7 0 -17.5 -6t-20.5 -15.5t-16.5 -21t-6.5 -21.5zM455 215q0 -6 7 -12t15 -6q5 0 15 5t20.5 13t18.5 18t8 19q0 11 -8 17.5 t-19 6.5q-16 -9 -28 -20q-11 -9 -20 -19.5t-9 -21.5z" />
<glyph unicode="&#xe2;" horiz-adv-x="827" d="M68 315q0 119 57.5 207.5t169.5 128.5l209 76q0 12 -1 29.5t-7.5 34t-21 28.5t-40.5 12q-21 0 -37 -9t-32.5 -19.5t-35.5 -19.5t-46 -9q-25 0 -49 10t-43.5 27.5t-31.5 40.5t-12 49q0 43 14.5 71.5t49.5 53.5q20 14 46 26t56 21t62 14t63 5q62 0 120.5 -23.5t105 -70.5 t74.5 -116t28 -161v-576q0 -34 -12 -60.5t-30.5 -45.5t-41.5 -29t-45 -10q-34 0 -61 14t-50 37q-34 -18 -72 -34.5t-87 -16.5q-55 0 -109 21t-96 61.5t-68 99t-26 133.5zM121 453q0 -8 7 -16.5t13 -8.5q16 0 22 10t15 27q10 18 24 35.5t29.5 32.5t32 27t31.5 18q11 5 26 12 t15 22q0 10 -6.5 16.5t-16.5 6.5q-25 0 -58 -21t-63 -50t-50.5 -60t-20.5 -51zM147 1235q0 14 4.5 30t16.5 25l209 166q11 9 24 15t33 6q13 0 29.5 -5t30.5 -16l208 -166q14 -11 17.5 -24.5t3.5 -30.5q0 -32 -10.5 -56.5t-27 -40.5t-37.5 -24t-42 -8q-23 0 -40 5t-36 19 l-96 72l-94 -72q-19 -14 -36 -19t-40 -5q-19 0 -39.5 7.5t-38 23.5t-28.5 40t-11 58zM178 1266q0 -6 3 -10.5t8 -6.5t11 0t13 11q14 15 28.5 23t14.5 13q0 16 -4 20.5t-21 4.5q-15 -8 -26 -18q-10 -8 -18.5 -17.5t-8.5 -19.5zM203 989q0 -23 16 -28.5t29 8.5q6 8 12 11.5 t11.5 7t8.5 7.5t3 13q0 18 -12.5 20.5t-27.5 -3.5t-27.5 -17t-12.5 -19zM315 336q0 -16 6 -32.5t17.5 -29.5t28.5 -21.5t39 -8.5q20 0 37.5 9t30.5 23t20.5 32.5t7.5 37.5v119l-127 -45q-26 -9 -43 -32.5t-17 -51.5zM455 215q0 -6 7 -12t15 -6q5 0 15 5t20.5 13t18.5 18 t8 19q0 11 -8 17.5t-19 6.5q-16 -9 -28 -20q-11 -9 -20 -19.5t-9 -21.5z" />
<glyph unicode="&#xe3;" horiz-adv-x="827" d="M68 315q0 119 57.5 207.5t169.5 128.5l209 76q0 12 -1 29.5t-7.5 34t-21 28.5t-40.5 12q-21 0 -37 -9t-32.5 -19.5t-35.5 -19.5t-46 -9q-25 0 -49 10t-43.5 27.5t-31.5 40.5t-12 49q0 43 14.5 71.5t49.5 53.5q20 14 46 26t56 21t62 14t63 5q62 0 120.5 -23.5t105 -70.5 t74.5 -116t28 -161v-576q0 -34 -12 -60.5t-30.5 -45.5t-41.5 -29t-45 -10q-34 0 -61 14t-50 37q-34 -18 -72 -34.5t-87 -16.5q-55 0 -109 21t-96 61.5t-68 99t-26 133.5zM68 1208q0 23 13.5 55t39 61t63.5 49t86 20q14 0 28.5 -5t25.5 -10l188 -75q5 -2 16.5 -6.5t22.5 -4.5 q20 0 31 16.5t21.5 36t25 36t41.5 16.5q16 0 30 -7.5t24 -19.5t15.5 -28t5.5 -33q0 -34 -16.5 -69t-43.5 -64t-63 -47.5t-75 -18.5q-16 0 -37 4t-35 10l-149 66q-7 3 -17 6.5t-19.5 6.5t-17 5t-10.5 2q-23 0 -33.5 -14.5t-20 -32.5t-23 -32.5t-42.5 -14.5q-12 0 -25 5 t-24.5 16t-18.5 28.5t-7 42.5zM88 1235q0 -5 8 -9.5t15 -4.5q14 0 17.5 8t6.5 16q8 19 27 38.5t41 35.5q6 5 11 7.5t5 10.5t-3 18.5t-11 10.5q-12 0 -32 -14t-39 -34.5t-32.5 -43t-13.5 -39.5zM121 453q0 -8 7 -16.5t13 -8.5q16 0 22 10t15 27q10 18 24 35.5t29.5 32.5 t32 27t31.5 18q11 5 26 12t15 22q0 10 -6.5 16.5t-16.5 6.5q-25 0 -58 -21t-63 -50t-50.5 -60t-20.5 -51zM203 989q0 -23 16 -28.5t29 8.5q6 8 12 11.5t11.5 7t8.5 7.5t3 13q0 18 -12.5 20.5t-27.5 -3.5t-27.5 -17t-12.5 -19zM315 336q0 -16 6 -32.5t17.5 -29.5t28.5 -21.5 t39 -8.5q20 0 37.5 9t30.5 23t20.5 32.5t7.5 37.5v119l-127 -45q-26 -9 -43 -32.5t-17 -51.5zM455 215q0 -6 7 -12t15 -6q5 0 15 5t20.5 13t18.5 18t8 19q0 11 -8 17.5t-19 6.5q-16 -9 -28 -20q-11 -9 -20 -19.5t-9 -21.5zM616 1335q0 -5 5 -7.5t10 -2.5q2 0 8.5 5t13.5 12 t12 13t5 7q0 16 -15 16q-5 0 -12 -4t-13 -10.5t-10 -14t-4 -14.5z" />
<glyph unicode="&#xe4;" horiz-adv-x="848" d="M76 315q0 119 58 207.5t169 128.5l209 76q0 12 -1 29.5t-7.5 34t-21 28.5t-40.5 12q-21 0 -37 -9t-32 -19.5t-35 -19.5t-47 -9q-25 0 -49 10t-43 27.5t-31 40.5t-12 49q0 43 14 71.5t49 53.5q20 14 46 26t56 21t62 14t63 5q62 0 120.5 -23.5t105 -70.5t74.5 -116t28 -161 v-576q0 -34 -11.5 -60.5t-30.5 -45.5t-41.5 -29t-45.5 -10q-34 0 -60.5 14t-49.5 37q-35 -18 -73 -34.5t-87 -16.5q-55 0 -109 21t-96 61.5t-68 99t-26 133.5zM123 1245q0 26 10.5 49t28.5 40t41.5 27.5t48.5 10.5t48 -11t40.5 -28.5t28 -40.5t10.5 -47t-8.5 -46.5 t-25 -39.5t-40 -27t-53.5 -10q-26 0 -49.5 11t-41 28.5t-28 39.5t-10.5 44zM129 453q0 -8 7 -16.5t14 -8.5q15 0 21 10t15 27q10 18 24 35.5t29.5 32.5t32 27t31.5 18q11 5 26 12t15 22q0 10 -6.5 16.5t-15.5 6.5q-25 0 -58.5 -21t-63.5 -50t-50.5 -60t-20.5 -51zM156 1288 q0 -11 6.5 -16.5t15.5 -5.5q6 0 15.5 7t19 16.5t16.5 19t7 14.5q0 20 -12.5 22t-27.5 -6t-27.5 -22.5t-12.5 -28.5zM211 989q0 -23 16.5 -28.5t28.5 8.5q6 8 12 11.5t11.5 7t8.5 7.5t3 13q0 18 -12.5 20.5t-27.5 -3.5t-27.5 -17t-12.5 -19zM324 336q0 -16 6 -32.5 t17.5 -29.5t28 -21.5t38.5 -8.5q20 0 37.5 9t30.5 23t20.5 32.5t7.5 37.5v119l-127 -45q-26 -9 -42.5 -32.5t-16.5 -51.5zM463 215q0 -6 7 -12t15 -6q5 0 15 5t20.5 13t18.5 18t8 19q0 11 -8 17.5t-19 6.5q-16 -9 -28 -20q-11 -9 -20 -19.5t-9 -21.5zM489 1247q0 26 10.5 49 t28 40t40.5 27.5t48 10.5q26 0 49 -10.5t41 -28t28.5 -40.5t10.5 -48t-9 -47.5t-26 -39t-41 -26.5t-53 -10q-25 0 -48 10.5t-40.5 28t-28 39.5t-10.5 45zM520 1288q0 -11 6.5 -15.5t16.5 -4.5q5 0 14.5 7t19 16.5t16.5 19t7 14.5q0 20 -12.5 22t-27.5 -6.5t-27.5 -23.5 t-12.5 -29z" />
<glyph unicode="&#xe5;" horiz-adv-x="819" d="M39 315q0 119 58 207.5t169 128.5l209 76q0 12 -1 29.5t-7.5 34t-20.5 28.5t-40 12q-22 0 -38 -9t-32 -19.5t-35 -19.5t-47 -9q-25 0 -49 10t-43 27.5t-31 40.5t-12 49q0 43 14 71.5t49 53.5q20 14 46.5 26t56.5 21t62 14t63 5q61 0 120 -23.5t105 -70.5t74 -116t28 -161 v-576q0 -34 -11.5 -60.5t-30.5 -45.5t-41.5 -29t-45.5 -10q-34 0 -60.5 14t-49.5 37q-34 -18 -72.5 -34.5t-87.5 -16.5q-55 0 -109 21t-96 61.5t-68 99t-26 133.5zM92 453q0 -8 7 -16.5t14 -8.5q15 0 21 10t16 27q10 18 23.5 35.5t29 32.5t32 27t31.5 18q6 2 13 5t13 7 t10.5 9.5t4.5 12.5q0 10 -6.5 16.5t-15.5 6.5q-25 0 -58.5 -21t-63.5 -50t-50.5 -60t-20.5 -51zM174 989q0 -23 16.5 -28.5t28.5 8.5q6 8 12.5 11.5t11.5 7t8 7.5t3 13q0 18 -12.5 20.5t-27.5 -3.5t-27.5 -17t-12.5 -19zM213 1309q0 36 14 71t39.5 62t61.5 44t80 17 q41 0 76 -15t61.5 -41.5t41.5 -61.5t15 -76q0 -43 -18.5 -80t-47 -64.5t-62 -43t-64.5 -15.5q-25 0 -58.5 13.5t-64.5 39.5t-52.5 64t-21.5 86zM262 1393q0 -7 4 -14t10 -7q16 0 21.5 2.5t15.5 18.5q10 14 22.5 22t12.5 19q0 12 -8 18t-14 6q-8 0 -19 -7.5t-21 -17.5 t-17 -21t-7 -19zM287 336q0 -16 6 -32.5t17.5 -29.5t28 -21.5t38.5 -8.5q20 0 37.5 9t30.5 23t20.5 32.5t7.5 37.5v119l-127 -45q-26 -9 -42.5 -32.5t-16.5 -51.5zM334 1309q0 -31 21.5 -52.5t52.5 -21.5q29 0 51 21t22 53q0 29 -19.5 51t-53.5 22q-16 0 -29.5 -6.5 t-23.5 -17t-15.5 -23.5t-5.5 -26zM426 215q0 -6 7.5 -12t15.5 -6q5 0 15 5t20 13t18 18t8 19q0 11 -8 17.5t-19 6.5q-16 -9 -28 -20q-11 -9 -20 -19.5t-9 -21.5z" />
<glyph unicode="&#xe6;" horiz-adv-x="1309" d="M76 326q0 54 17.5 104t48.5 92t72 74t89 49l213 74q2 9 2 14v15q0 45 -23.5 67.5t-54.5 22.5q-19 0 -35 -9t-32.5 -20t-36.5 -20t-47 -9q-24 0 -48 9.5t-42.5 27t-30.5 42t-12 54.5q0 42 25.5 75.5t66.5 56.5t93 35t105 12q39 0 68.5 -7t54 -19t46 -28t42.5 -34 q20 19 39.5 35.5t44.5 28.5t57.5 19t78.5 7q73 0 134 -27t105.5 -73.5t69 -108.5t24.5 -133q0 -48 -13.5 -93t-39 -83t-62.5 -67t-85 -46l-224 -80v-29q0 -22 8.5 -39.5t22 -29.5t31.5 -18.5t37 -6.5q24 0 37 3.5t21.5 11.5t15 20.5t16.5 30.5q5 9 16 18t25 16.5t29.5 12 t29.5 4.5q33 0 58.5 -11.5t43 -29.5t26.5 -40.5t9 -45.5q0 -42 -24 -86.5t-66.5 -81t-100 -59.5t-124.5 -23q-45 0 -78.5 8t-61.5 21.5t-51.5 31.5t-48.5 39q-22 -20 -44 -38t-49 -32t-63 -22t-87 -8q-83 0 -146 22.5t-106 64.5t-64.5 102.5t-21.5 136.5zM133 455 q0 -13 4 -22t23 -9q9 0 17 11.5t13 19.5q19 38 49.5 67t75.5 47q10 5 23.5 12t13.5 21q0 8 -6 16.5t-14 8.5q-29 0 -64 -21t-65 -49t-50 -57t-20 -45zM205 961q0 -10 8.5 -13.5t17.5 -3.5q5 0 12.5 5.5t14 13t11.5 15t5 11.5q0 9 -7.5 17t-16.5 8q-4 0 -11.5 -3t-15 -10 t-13 -16.5t-5.5 -23.5zM324 338q0 -45 24.5 -72.5t63.5 -27.5q21 0 40.5 8.5t34 22t23 31.5t8.5 36v125l-143 -47q-23 -8 -37 -32t-14 -44zM465 211q0 -5 7.5 -14t12.5 -9q11 0 25 6.5t27 17.5t21.5 24.5t8.5 27.5q0 9 -8 16t-20 7q-5 0 -10 -4.5t-10.5 -11.5t-11 -13.5 t-11.5 -11.5q-7 -5 -13 -7t-10 -5t-6 -8t-2 -15zM678 973q0 -11 10 -16t21 -5q3 0 10.5 6t16 14t14.5 15.5t6 9.5q0 11 -8 20t-19 9q-6 0 -14.5 -5.5t-17 -13.5t-14 -17t-5.5 -17zM788 639l127 47q7 2 13 9.5t10.5 17t7 19.5t2.5 18q0 14 -6 28t-16.5 25t-24.5 17.5t-29 6.5 q-32 0 -49 -16.5t-24.5 -43t-8.5 -60t-2 -68.5zM909 637q0 -8 7.5 -15.5t15.5 -7.5q5 0 16.5 6.5t23 15.5t20.5 19t9 17q0 12 -7.5 18t-18.5 6q-1 0 -11.5 -5.5t-22.5 -14.5t-22 -19.5t-10 -19.5zM1004 307q0 -17 10 -20.5t22.5 1t22.5 14t10 17.5q0 10 -5.5 18.5t-14.5 8.5 q-6 0 -13.5 -3t-14.5 -8.5t-12 -12.5t-5 -15z" />
<glyph unicode="&#xe7;" horiz-adv-x="817" d="M72 410q0 136 10.5 260.5t42.5 242.5q8 32 37.5 64t71.5 57.5t91 41.5t97 16q61 0 116 -21.5t96.5 -55t66 -74t24.5 -79.5q0 -27 -11.5 -50t-30 -40t-41 -27t-44.5 -10q-31 0 -57.5 10t-44.5 31q-12 14 -20 25t-16.5 19t-18 12t-23.5 4q-22 0 -34.5 -5.5t-20 -16 t-11 -25.5t-8.5 -35q-8 -35 -12 -75.5t-4 -78.5q0 -72 -0.5 -122t4.5 -68q7 -33 9 -62.5t8 -51.5t20 -35t45 -13q21 0 34.5 8.5t24.5 21t21 27.5t24 27.5t34 21t50 8.5q28 0 52 -9.5t42 -27t28.5 -42.5t10.5 -56q0 -20 -9.5 -46t-32 -55t-60 -58.5t-92.5 -55.5l-33 -92 q-5 -16 -17.5 -30.5t-29 -25.5t-34.5 -17.5t-34 -6.5q-31 0 -56.5 10t-44.5 27.5t-29.5 42t-10.5 53.5q0 8 2 19.5t4 17.5l6 19q-20 13 -38.5 25.5t-36 29t-33.5 39t-31 53.5q-12 28 -22 59.5t-17 63t-10.5 60.5t-3.5 51zM133 879q0 -10 2.5 -20.5t18.5 -10.5 q12 0 19.5 12.5t10.5 20.5q22 48 58 74.5t73 41.5q10 3 19.5 11.5t9.5 19.5t-6.5 17t-15.5 6q-20 0 -52 -20.5t-62.5 -48t-52.5 -56.5t-22 -47zM514 283q0 -5 6.5 -11t11.5 -6q6 0 15 3.5t17.5 9.5t15 14t6.5 16q0 10 -7 16.5t-18 6.5q-2 0 -9.5 -3t-16 -9t-15 -15t-6.5 -22 z" />
<glyph unicode="&#xe8;" horiz-adv-x="856" d="M63 537q0 273 91.5 414t265.5 141q80 0 143.5 -29t107.5 -76t67.5 -107.5t23.5 -123.5q0 -43 -12.5 -85t-35 -78t-54.5 -65t-70 -47l-242 -108q2 -53 24 -80t56 -27q15 0 28.5 6t28.5 18.5t33 32t41 46.5q14 17 31 20.5t39 3.5q32 0 58.5 -10t46.5 -27t31 -40.5t11 -49.5 q0 -64 -31 -113.5t-79 -83.5t-106.5 -51.5t-113.5 -17.5q-49 0 -95 12.5t-86 35t-73 54.5t-57 72q-35 60 -53.5 152t-18.5 211zM139 864q0 -9 10.5 -12.5t18.5 -3.5q3 0 7 5t8 11.5t7.5 14t6.5 12.5q21 42 53 70t63 40q13 5 27 13t14 26q0 11 -9.5 16t-18.5 5t-26 -8 t-38 -22.5t-42.5 -33.5t-39.5 -41t-29.5 -45.5t-11.5 -46.5zM236 1374q0 28 10.5 50.5t26.5 38t34.5 24t34.5 8.5q27 0 47.5 -7t35 -16.5t23.5 -21t13 -20.5l71 -164q5 -10 7 -17t2 -16q0 -29 -10.5 -52.5t-27 -40t-36.5 -25.5t-39 -9q-42 0 -72 21t-41 44l-73 170 q-5 10 -5.5 17t-0.5 16zM258 1411q0 -5 6 -11.5t12 -6.5q11 0 14.5 4.5t6.5 9.5q4 6 10.5 10.5t13 10t11 11.5t4.5 15q0 6 -6 13.5t-13 7.5t-17.5 -6t-19.5 -15.5t-15.5 -21t-6.5 -21.5zM340 690q0 -9 2 -25.5t2 -25.5l129 66q11 6 17 21.5t6 29.5q0 37 -22.5 56t-51.5 19 q-82 0 -82 -141zM471 664q0 -8 4.5 -16.5t9.5 -8.5q15 0 28.5 7.5t23 17.5t15 20t5.5 14q0 27 -25 27q-2 0 -12 -8.5t-21 -19t-19.5 -20.5t-8.5 -13zM553 315q0 -9 9 -12.5t20 -3.5q13 7 24 15q9 7 16 16t7 20q0 6 -8.5 11.5t-14.5 5.5q-4 0 -13 -4.5t-18 -11.5t-15.5 -16.5 t-6.5 -19.5z" />
<glyph unicode="&#xe9;" horiz-adv-x="856" d="M78 520q0 94 5 172.5t17 130.5q15 63 44 113t70 84.5t92.5 53t111.5 18.5q80 0 143.5 -29t108 -76t68.5 -107.5t24 -123.5q0 -43 -13 -85t-36 -78t-55 -65t-70 -47l-240 -108q2 -53 23.5 -80t56.5 -27q29 0 56.5 24.5t74.5 78.5q14 17 31 20.5t39 3.5q32 0 58.5 -10 t45.5 -27t30 -40.5t11 -49.5q0 -43 -23.5 -90t-66.5 -86t-103.5 -64.5t-134.5 -25.5q-165 0 -272 125q-33 39 -52 81.5t-29 90.5t-12.5 103.5t-2.5 119.5zM139 864q0 -9 10.5 -12.5t18.5 -3.5q3 0 7 5t8 11.5t7.5 14t6.5 12.5q21 42 52.5 69t63.5 41q13 5 27 13t14 26 q0 11 -9.5 16t-18.5 5t-26 -8t-38 -22.5t-42.5 -33.5t-39.5 -41t-29.5 -45.5t-11.5 -46.5zM299 1233q0 6 3 17t5 16l72 164q4 9 13 20.5t23.5 21t35 16.5t47.5 7q15 0 33 -8t34.5 -23.5t27.5 -38t11 -51.5q0 -9 -0.5 -16t-5.5 -17l-76 -170q-11 -23 -39.5 -44t-70.5 -21 q-19 0 -39 9t-36.5 25.5t-27 40t-10.5 52.5zM340 690q0 -8 1 -25t1 -26l131 66q12 6 17.5 21.5t5.5 29.5q0 37 -22.5 56t-51.5 19q-82 0 -82 -141zM391 1411q0 -5 7 -11.5t14 -6.5q11 0 13 4.5t5 9.5q4 7 11 11.5t13.5 9.5t11.5 11t5 15q0 6 -6 13.5t-12 7.5q-8 0 -18.5 -6 t-20.5 -15.5t-16.5 -21t-6.5 -21.5zM471 664q0 -8 4.5 -16.5t9.5 -8.5q15 0 28.5 7.5t23 17.5t15 20t5.5 14q0 11 -7 19t-18 8q-2 0 -12 -8.5t-21 -19t-19.5 -20.5t-8.5 -13zM553 315q0 -9 9.5 -12.5t19.5 -3.5q13 7 24 15q9 7 16 16t7 20q0 6 -8.5 11.5t-14.5 5.5 q-4 0 -13 -4.5t-18 -11.5t-15.5 -16.5t-6.5 -19.5z" />
<glyph unicode="&#xea;" horiz-adv-x="856" d="M68 530q0 562 352 562q79 0 142.5 -28.5t107.5 -75.5t68 -107.5t24 -124.5q0 -44 -13 -86t-36.5 -78.5t-55 -65t-69.5 -45.5l-240 -108q2 -53 24 -80t56 -27q29 0 56.5 24.5t74.5 78.5q14 17 31 20.5t39 3.5q32 0 58.5 -10t45.5 -27t30 -40.5t11 -49.5q0 -43 -23.5 -90 t-66.5 -86t-103.5 -64.5t-134.5 -25.5q-48 0 -94.5 12.5t-87 35t-73.5 53t-56 67.5q-34 56 -50.5 146.5t-16.5 215.5zM131 1235q0 14 5 30t16 25l206 166q29 21 60 21q12 0 28.5 -5t30.5 -16l209 -166q14 -11 17.5 -24.5t3.5 -30.5q0 -32 -10.5 -56.5t-27.5 -40.5t-37.5 -24 t-41.5 -8q-22 0 -39 4.5t-37 19.5l-96 72l-94 -72q-20 -15 -37.5 -19.5t-38.5 -4.5q-18 0 -39 7.5t-38 23.5t-28.5 40t-11.5 58zM139 864q0 -9 10.5 -12.5t18.5 -3.5q3 0 7 5t8 11.5t7.5 14t6.5 12.5q21 42 52.5 69t63.5 41q14 7 27.5 14t13.5 25q0 11 -9.5 16t-18.5 5 t-26 -8t-38 -22.5t-42.5 -33.5t-39.5 -41t-29.5 -45.5t-11.5 -46.5zM162 1266q0 -11 9.5 -17t25.5 11q14 15 28.5 23t14.5 13q0 17 -4.5 21t-20.5 4q-15 -8 -26 -18q-10 -8 -18.5 -17.5t-8.5 -19.5zM340 690q0 -8 1 -25t1 -26l131 66q12 6 17.5 21.5t5.5 29.5q0 37 -21.5 56 t-52.5 19q-82 0 -82 -141zM471 664q0 -8 4.5 -16.5t9.5 -8.5q15 0 28.5 7.5t23 17.5t15 20t5.5 14q0 27 -25 27q-2 0 -12 -8.5t-21 -19t-19.5 -20.5t-8.5 -13zM553 315q0 -9 9.5 -12.5t19.5 -3.5q13 7 24 15q9 7 16 16t7 20q0 6 -8.5 11.5t-14.5 5.5q-4 0 -13 -4.5 t-18 -11.5t-15.5 -16.5t-6.5 -19.5z" />
<glyph unicode="&#xeb;" horiz-adv-x="856" d="M76 520q0 274 91.5 414.5t264.5 140.5q80 0 143.5 -29t107.5 -77t67.5 -108.5t23.5 -123.5q0 -43 -12.5 -84.5t-35 -77.5t-54 -65t-70.5 -47l-242 -109q2 -52 24 -79t56 -27q15 0 28.5 6t28.5 18.5t33 31.5t41 46q14 17 31 22t39 5q32 0 58.5 -10.5t46.5 -28t31 -41 t11 -49.5q0 -64 -31 -113.5t-79 -83.5t-106.5 -51.5t-112.5 -17.5q-49 0 -95 12t-86 34.5t-73.5 55t-57.5 72.5q-35 60 -53 152.5t-18 211.5zM106 1245q0 26 10.5 49t28 40t40.5 27.5t48 10.5q26 0 49 -11t41 -28.5t28.5 -40.5t10.5 -47t-9 -46.5t-25.5 -39.5t-40.5 -27 t-54 -10q-26 0 -49 11t-40.5 28.5t-27.5 39.5t-10 44zM137 1288q0 -11 8 -16.5t17 -5.5q5 0 14.5 7t18.5 16.5t15.5 19t6.5 14.5q0 20 -12.5 22t-27.5 -6t-27.5 -22.5t-12.5 -28.5zM152 848q0 -9 10 -13t18 -4q3 0 7 4.5t8 11t8 13.5t6 12q22 42 54 71.5t63 41.5 q12 5 26.5 11.5t14.5 25.5q0 11 -10 16.5t-19 5.5q-13 0 -44 -17.5t-62.5 -46t-55.5 -63t-24 -69.5zM352 672q0 -10 2 -25t2 -24l129 63q11 6 17 21.5t6 29.5q0 37 -22.5 57.5t-51.5 20.5q-82 0 -82 -143zM471 1247q0 26 10.5 49t27.5 40t40.5 27.5t48.5 10.5q26 0 49 -10.5 t41 -28t28.5 -40.5t10.5 -48t-9 -47.5t-26 -39t-41 -26.5t-53 -10q-25 0 -48.5 10.5t-40.5 28t-27.5 39.5t-10.5 45zM483 645q0 -8 5 -16t10 -8q15 0 28 7.5t22.5 17.5t15 20t5.5 14q0 12 -6.5 19.5t-17.5 7.5q-2 0 -12 -8.5t-21 -19.5t-20 -21t-9 -13zM502 1288 q0 -11 7.5 -15.5t16.5 -4.5q6 0 15.5 7t18.5 16.5t15.5 19t6.5 14.5q0 20 -12.5 22t-27.5 -6.5t-27.5 -23.5t-12.5 -29zM565 299q0 -9 9 -13.5t20 -4.5q13 7 24 15q9 7 16 16t7 20q0 6 -8 12t-15 6q-4 0 -13 -4t-18 -11t-15.5 -16.5t-6.5 -19.5z" />
<glyph unicode="&#xec;" horiz-adv-x="516" d="M104 147v820q0 25 10 47.5t28 39t42.5 26.5t53.5 10q35 0 63 -11.5t47 -30.5t29 -42.5t10 -47.5v-811q0 -32 -12 -59t-31.5 -46.5t-45.5 -30.5t-54 -11t-53 10t-44.5 29t-31 46.5t-11.5 61.5zM104 1374q0 28 10.5 50.5t26.5 38t35 24t35 8.5q27 0 47.5 -7t35 -16.5 t23.5 -21t13 -20.5l71 -164q5 -10 7 -17t2 -16q0 -29 -10.5 -52.5t-27 -40t-36.5 -25.5t-39 -9q-42 0 -71 21t-40 44l-75 170q-5 10 -6 17t-1 16zM127 1411q0 -5 7 -11.5t13 -6.5q11 0 13.5 4.5t5.5 9.5q4 6 11 10.5t13.5 10t11.5 11.5t5 15q0 6 -6 13.5t-13 7.5t-17.5 -6 t-20.5 -15.5t-16.5 -21t-6.5 -21.5zM137 1001q0 -22 25 -22q5 0 15 7.5t20 17t17 19.5t7 15q0 22 -13 24.5t-29 -6.5t-29 -24.5t-13 -30.5z" />
<glyph unicode="&#xed;" horiz-adv-x="516" d="M104 147v820q0 25 10 47.5t28 39t42.5 26.5t53.5 10q35 0 63 -11.5t47 -30.5t29 -42.5t10 -47.5v-811q0 -32 -12 -59t-31.5 -46.5t-45.5 -30.5t-54 -11t-53 10t-44.5 29t-31 46.5t-11.5 61.5zM104 1233q0 6 3.5 17t5.5 16l71 164q4 9 13 20.5t23.5 21t35 16.5t47.5 7 q15 0 33.5 -8t35 -23.5t27.5 -38t11 -51.5q0 -9 -1 -16t-6 -17l-75 -170q-11 -23 -40 -44t-71 -21q-18 0 -38 9t-36.5 25.5t-27.5 40t-11 52.5zM137 1001q0 -22 25 -22q5 0 15 7.5t20 17t17 19.5t7 15q0 22 -13 24.5t-29 -6.5t-29 -24.5t-13 -30.5zM197 1411q0 -5 7 -11.5 t13 -6.5q11 0 13 4.5t6 9.5q4 7 10.5 11.5t13 9.5t11.5 11t5 15q0 6 -6 13.5t-12 7.5q-7 0 -17.5 -6t-20.5 -15.5t-16.5 -21t-6.5 -21.5z" />
<glyph unicode="&#xee;" horiz-adv-x="784" d="M104 1235q0 14 5 30t16 25l207 166q24 21 59 21q13 0 29.5 -5t30.5 -16l208 -166q14 -11 17.5 -24.5t3.5 -30.5q0 -32 -10.5 -56.5t-27.5 -40.5t-37.5 -24t-41.5 -8t-38.5 4.5t-37.5 19.5l-96 72l-94 -72q-20 -15 -37 -19.5t-39 -4.5q-18 0 -39 7.5t-38 23.5t-28.5 40 t-11.5 58zM135 1266q0 -6 3 -10.5t8 -6.5t11 0t13 11q14 15 28.5 23t14.5 13q0 16 -4 20.5t-21 4.5q-15 -8 -26 -18q-10 -8 -18.5 -17.5t-8.5 -19.5zM242 147v820q0 25 10 47.5t28 39t42.5 26.5t52.5 10q35 0 63 -11.5t47 -30.5t29 -42.5t10 -47.5v-811q0 -32 -11.5 -59 t-31 -46.5t-45.5 -30.5t-55 -11q-28 0 -53 10t-44 29t-30.5 46.5t-11.5 61.5zM272 1001q0 -11 7 -16.5t18 -5.5q5 0 15 7.5t20 17t17 19.5t7 15q0 22 -13 24.5t-29 -6.5t-29 -24.5t-13 -30.5z" />
<glyph unicode="&#xef;" horiz-adv-x="829" d="M104 1245q0 26 10.5 49t28 40t40.5 27.5t48 10.5q26 0 49 -10.5t41 -28t28.5 -40.5t10.5 -48q0 -24 -9 -46.5t-25.5 -39.5t-40.5 -27t-54 -10q-26 0 -49 11t-40.5 28.5t-27.5 39.5t-10 44zM135 1288q0 -11 7.5 -16.5t17.5 -5.5q5 0 14.5 7t18.5 16.5t15.5 19t6.5 14.5 q0 20 -12.5 22t-27.5 -6t-27.5 -22.5t-12.5 -28.5zM274 147v820q0 25 10.5 47.5t28.5 39t42.5 26.5t52.5 10q35 0 63 -11.5t47 -30.5t29 -42.5t10 -47.5v-811q0 -32 -11.5 -59t-31 -46.5t-45.5 -30.5t-55 -11q-28 0 -53 10t-44.5 29t-31 46.5t-11.5 61.5zM307 1001 q0 -22 25 -22q5 0 15 7.5t20 17t17 19.5t7 15q0 22 -13 24.5t-29 -6.5t-29 -24.5t-13 -30.5zM469 1247q0 26 10.5 49t28.5 40t41.5 27.5t48.5 10.5q26 0 49 -10.5t40 -28t27.5 -40.5t10.5 -48q0 -24 -8.5 -46.5t-25 -39.5t-40 -27t-53.5 -10q-25 0 -48.5 10.5t-41.5 28 t-28.5 39.5t-10.5 45zM502 1288q0 -11 6.5 -15.5t15.5 -4.5q6 0 15.5 7t18.5 17t15.5 19.5t6.5 13.5q0 20 -12 22t-27 -6.5t-27 -23.5t-12 -29z" />
<glyph unicode="&#xf0;" />
<glyph unicode="&#xf1;" horiz-adv-x="946" d="M104 139v613q0 65 26 126.5t73 109.5t113 77t147 29q96 0 166.5 -30t124.5 -95q42 -50 64 -104t22 -99v-629q0 -32 -13 -57.5t-34 -43t-47 -27t-52 -9.5q-30 0 -55 12.5t-43.5 32t-28.5 44.5t-10 50v613q0 10 -5 23t-15.5 24.5t-27 19.5t-40.5 8q-16 0 -31 -7.5t-26 -19 t-18 -25t-7 -25.5v-613q0 -32 -12.5 -57.5t-33 -43t-46 -27t-51.5 -9.5q-30 0 -55.5 12.5t-44.5 32t-29.5 44.5t-10.5 50zM135 1214q0 23 13.5 55t39.5 61t64 49t86 20q14 0 28 -5t25 -10l189 -75q5 -2 16 -6.5t22 -4.5q20 0 31.5 16.5t22 36t24.5 36t41 16.5q16 0 30 -7.5 t24 -19.5t16 -28t6 -33q0 -34 -16.5 -69t-44 -64t-63.5 -47.5t-75 -18.5q-15 0 -36 4t-35 10l-150 66q-7 3 -16.5 6.5l-19 7t-17 5.5t-10.5 2q-23 0 -34 -15t-20.5 -32.5t-22.5 -32.5t-42 -15q-12 0 -25.5 5t-25 16t-18.5 28.5t-7 42.5zM156 1241q0 -5 8 -9.5t14 -4.5 q14 0 18 8t7 16q8 19 27 39t40 35q7 5 12 7.5t5 10.5t-3.5 18.5t-11.5 10.5q-12 0 -31.5 -14t-38.5 -34.5t-32.5 -43t-13.5 -39.5zM162 862q0 -8 8.5 -11t17.5 -3q8 0 14 9t9 15q22 51 59.5 84.5t96.5 55.5q9 3 21.5 10.5t12.5 15.5q0 23 -22 23q-27 0 -64.5 -20t-71 -50 t-57.5 -65t-24 -64zM684 1341q0 -5 4.5 -7.5t9.5 -2.5q3 0 9 5t13 12t12 13t5 7q0 16 -14 16q-5 0 -12 -4t-13 -10.5t-10 -14t-4 -14.5z" />
<glyph unicode="&#xf2;" horiz-adv-x="893" d="M78 483.5v130.5q0 53 3.5 100.5t13.5 90t28 82t47 76.5q53 66 123 99.5t153 33.5q82 0 150.5 -29.5t118.5 -87t78 -143t28 -197.5v-136t-4 -117t-12.5 -99t-26.5 -82q-21 -46 -54.5 -84.5t-76 -66t-93 -43t-105.5 -15.5q-88 0 -167 41.5t-130 122.5q-31 48 -46.5 99 t-21.5 107t-6 117.5zM139 860q0 -8 8 -14t17 -6q11 0 21 13t16 24q31 55 71.5 87.5t71.5 45.5q12 5 27.5 11t15.5 23q0 14 -9.5 17.5t-19.5 3.5q-18 0 -41 -11.5t-47.5 -30t-48 -41.5t-41.5 -45.5t-29.5 -43t-11.5 -33.5zM252 1374q0 27 10 49.5t26 38t34.5 24.5t35.5 9 q27 0 47.5 -7t35 -16.5t23.5 -21t13 -20.5l74 -164q8 -17 8 -33q0 -29 -11 -52.5t-28 -40t-37 -25.5t-39 -9q-42 0 -70.5 21t-39.5 44l-76 170q-5 10 -5.5 17t-0.5 16zM274 1411q0 -5 7.5 -11.5t13.5 -6.5q11 0 14 4.5t6 9.5q4 7 10.5 11.5t13 9.5t11 11t4.5 15q0 6 -6 13.5 t-12 7.5q-8 0 -18.5 -6t-20.5 -15.5t-16.5 -21t-6.5 -21.5zM344 532q0 -59 3 -109.5t13.5 -87.5t31.5 -58t57 -21q60 0 85 50t25 149q0 98 -2 170t-12.5 119t-32 69.5t-61.5 22.5q-41 0 -63 -20t-31.5 -59t-11 -95.5t-1.5 -129.5zM494 229q0 -11 5.5 -17.5t16.5 -6.5 q10 0 25 9.5t29 22.5t24 27.5t10 24.5q0 22 -22 22q-7 0 -13 -5t-12 -12t-12.5 -15.5t-14.5 -14.5q-9 -6 -22.5 -15.5t-13.5 -19.5z" />
<glyph unicode="&#xf3;" horiz-adv-x="893" d="M78 600q0 56 3 105.5t13 94t28 85t48 78.5q53 65 123 99t153 34q82 0 150.5 -29.5t118.5 -87t78 -143t28 -197.5v-136t-4 -117t-12.5 -99t-26.5 -82q-21 -46 -54.5 -84.5t-76 -66t-93 -43t-105.5 -15.5t-106.5 16.5t-95.5 47t-78 74.5t-54 99q-22 57 -29.5 149.5 t-7.5 217.5zM139 860q0 -8 8 -14t17 -6q11 0 21 13t16 24q31 55 71.5 87.5t71.5 45.5q12 5 27.5 11t15.5 23q0 14 -9.5 17.5t-19.5 3.5q-18 0 -41 -11.5t-47.5 -30t-48 -41.5t-41.5 -45.5t-29.5 -43t-11.5 -33.5zM319 1233q0 6 3.5 17t5.5 16l71 164q4 8 13 19.5t23.5 21.5 t35 17t47.5 7q15 0 33.5 -8t35 -23.5t27.5 -38t11 -51.5q0 -9 -1 -16t-6 -17l-75 -170q-11 -24 -41 -44.5t-70 -20.5q-18 0 -38 8.5t-36.5 25t-27.5 40t-11 53.5zM344 532q0 -59 3 -109.5t13.5 -87.5t31.5 -58t57 -21q60 0 85 50t25 149q0 98 -2 170t-12.5 119t-32 69.5 t-61.5 22.5q-41 0 -63 -20t-31.5 -59t-11 -95.5t-1.5 -129.5zM412 1411q0 -6 6 -12t12 -6q11 0 14 4.5t7 9.5q4 6 11 10.5t13.5 10t11.5 11.5t5 15q0 6 -7.5 13.5t-13.5 7.5q-7 0 -17.5 -6t-19.5 -15.5t-15.5 -21t-6.5 -21.5zM494 229q0 -11 5.5 -17.5t16.5 -6.5 q10 0 25 9.5t29 22.5t24 27.5t10 24.5q0 22 -22 22q-7 0 -13 -5t-12 -12t-12.5 -15.5t-14.5 -14.5q-9 -6 -22.5 -15.5t-13.5 -19.5z" />
<glyph unicode="&#xf4;" horiz-adv-x="893" d="M78 483.5v130.5q0 53 3.5 100.5t13.5 90t28 82t47 76.5q53 66 123 99.5t153 33.5q82 0 150.5 -29.5t118.5 -87t78 -143t28 -197.5v-136t-4 -117t-12.5 -99t-26.5 -82q-21 -46 -54.5 -84.5t-76 -66t-93 -43t-105.5 -15.5q-88 0 -167 41.5t-130 122.5q-31 48 -46.5 99 t-21.5 107t-6 117.5zM139 860q0 -8 8 -14t17 -6q11 0 21 13t16 24q31 55 71.5 87.5t71.5 45.5q12 5 27.5 11t15.5 23q0 14 -9.5 17.5t-19.5 3.5q-18 0 -41 -11.5t-47.5 -30t-48 -41.5t-41.5 -45.5t-29.5 -43t-11.5 -33.5zM166 1233q0 14 4 30t16 25l207 166q29 21 60 21 q11 0 27.5 -4.5t31.5 -16.5l209 -166q14 -11 16 -24.5t2 -30.5q0 -33 -10.5 -57.5t-27 -40t-36.5 -23.5t-40 -8q-23 0 -40.5 5t-35.5 19l-96 72l-97 -72q-18 -14 -35 -19t-40 -5q-19 0 -39 7.5t-37 23.5t-28 40t-11 58zM197 1264q0 -11 10 -16.5t24 9.5q14 16 27.5 24 t13.5 13q0 19 -3.5 22t-18.5 3q-1 0 -9 -5t-18 -13t-18 -17.5t-8 -19.5zM344 532q0 -59 3 -109.5t13.5 -87.5t31.5 -58t57 -21q60 0 85 50t25 149q0 98 -2 170t-12.5 119t-32 69.5t-61.5 22.5q-41 0 -63 -20t-31.5 -59t-11 -95.5t-1.5 -129.5zM494 229q0 -11 5.5 -17.5 t16.5 -6.5q10 0 25 9.5t29 22.5t24 27.5t10 24.5q0 22 -22 22q-7 0 -13 -5t-12 -12t-12.5 -15.5t-14.5 -14.5q-9 -6 -22.5 -15.5t-13.5 -19.5z" />
<glyph unicode="&#xf5;" horiz-adv-x="893" d="M76 1208q0 23 13.5 55t39.5 61t64 49t86 20q14 0 28 -5t25 -10l188 -75q5 -2 16.5 -6.5t22.5 -4.5q20 0 31 16.5t21.5 36t25 36t41.5 16.5q16 0 30 -7.5t24 -19.5t16 -28t6 -33q0 -34 -16.5 -69t-44 -64t-63.5 -47.5t-75 -18.5q-15 0 -36.5 4t-35.5 10l-149 66 q-7 3 -16.5 6.5t-19 6.5t-17.5 5t-11 2q-23 0 -33.5 -14.5t-20 -32.5t-23 -32.5t-41.5 -14.5q-12 0 -25.5 5t-25 16t-18.5 28.5t-7 42.5zM78 483.5v130.5q0 53 3.5 100.5t13.5 90t28 82t47 76.5q53 66 123 99.5t153 33.5q82 0 150.5 -29.5t118.5 -87t78 -143t28 -197.5v-136 t-4 -117t-12.5 -99t-26.5 -82q-21 -46 -54.5 -84.5t-76 -66t-93 -43t-105.5 -15.5q-88 0 -167 41.5t-130 122.5q-31 48 -46.5 99t-21.5 107t-6 117.5zM96 1235q0 -5 8.5 -9.5t14.5 -4.5q14 0 17.5 8t6.5 16q8 19 27 38.5t41 35.5q6 5 11 7.5t5 10.5t-3 18.5t-11 10.5 q-12 0 -32 -14t-39 -34.5t-32.5 -43t-13.5 -39.5zM139 860q0 -8 8 -14t17 -6q11 0 21 13t16 24q31 55 71.5 87.5t71.5 45.5q12 5 27.5 11t15.5 23q0 14 -9.5 17.5t-19.5 3.5q-18 0 -41 -11.5t-47.5 -30t-48 -41.5t-41.5 -45.5t-29.5 -43t-11.5 -33.5zM344 532 q0 -59 3 -109.5t13.5 -87.5t31.5 -58t57 -21q60 0 85 50t25 149q0 98 -2 170t-12.5 119t-32 69.5t-61.5 22.5q-41 0 -63 -20t-31.5 -59t-11 -95.5t-1.5 -129.5zM494 229q0 -11 5.5 -17.5t16.5 -6.5q10 0 25 9.5t29 22.5t24 27.5t10 24.5q0 22 -22 22q-7 0 -13 -5t-12 -12 t-12.5 -15.5t-14.5 -14.5q-9 -6 -22.5 -15.5t-13.5 -19.5zM625 1335q0 -5 4.5 -7.5t9.5 -2.5q2 0 8.5 5t13.5 12t12 13t5 7q0 16 -14 16q-6 0 -12.5 -4t-12.5 -10.5t-10 -14t-4 -14.5z" />
<glyph unicode="&#xf6;" horiz-adv-x="893" d="M78 483.5v130.5q0 53 3.5 100.5t13.5 90t28 82t47 76.5q53 66 123 99.5t153 33.5q82 0 150.5 -29.5t118.5 -87t78 -143t28 -197.5v-136t-4 -117t-12.5 -99t-26.5 -82q-21 -46 -54.5 -84.5t-76 -66t-93 -43t-105.5 -15.5q-88 0 -167 41.5t-130 122.5q-31 48 -46.5 99 t-21.5 107t-6 117.5zM135 1245q0 26 10.5 49t28 40t40.5 27.5t48 10.5q26 0 49 -11t41 -28.5t28.5 -40.5t10.5 -47t-9 -46.5t-25.5 -39.5t-40.5 -27t-54 -10q-26 0 -49 11t-40.5 28.5t-27.5 39.5t-10 44zM139 860q0 -8 8 -14t17 -6q11 0 21 13t16 24q31 55 71.5 87.5 t71.5 45.5q12 5 27.5 11t15.5 23q0 14 -9.5 17.5t-19.5 3.5q-18 0 -41 -11.5t-47.5 -30t-48 -41.5t-41.5 -45.5t-29.5 -43t-11.5 -33.5zM166 1288q0 -11 7.5 -16.5t16.5 -5.5q6 0 15.5 7t18.5 16.5t15.5 19t6.5 14.5q0 20 -12.5 22t-27.5 -6t-27.5 -22.5t-12.5 -28.5z M344 532q0 -59 3 -109.5t13.5 -87.5t31.5 -58t57 -21q60 0 85 50t25 149q0 98 -2 170t-12.5 119t-32 69.5t-61.5 22.5q-41 0 -63 -20t-31.5 -59t-11 -95.5t-1.5 -129.5zM494 229q0 -11 5.5 -17.5t16.5 -6.5q10 0 25 9.5t29 22.5t24 27.5t10 24.5q0 22 -22 22q-7 0 -13 -5 t-12 -12t-12.5 -15.5t-14.5 -14.5q-9 -6 -22.5 -15.5t-13.5 -19.5zM500 1247q0 26 10.5 49t27.5 40t40.5 27.5t48.5 10.5t48.5 -10.5t41.5 -28t28.5 -40.5t10.5 -48t-9 -47.5t-26 -39t-41 -26.5t-53 -10q-25 0 -48.5 10.5t-40.5 28t-27.5 39.5t-10.5 45zM530 1288 q0 -11 8 -15.5t17 -4.5q5 0 14.5 7t18.5 16.5t15.5 19t6.5 14.5q0 20 -12.5 22t-27.5 -6.5t-27.5 -23.5t-12.5 -29z" />
<glyph unicode="&#xf7;" horiz-adv-x="1124" />
<glyph unicode="&#xf8;" horiz-adv-x="944" d="M76 129q0 17 8 36.5t16 33.5l41 71q-8 59 -12 118.5t-4 115.5q0 88 11 191.5t34 211.5q7 34 35.5 67t70.5 59.5t94.5 42.5t106.5 16q42 0 81 -11.5t73 -25.5l24 18q36 27 84 27q25 0 48 -9.5t41 -26.5t29 -42t11 -57q0 -16 -5 -33.5t-13 -30.5l-47 -82q6 -56 9 -109.5 t3 -103.5q0 -81 -9.5 -185.5t-31.5 -219.5q-7 -36 -35.5 -71.5t-70 -64.5t-91.5 -47t-100 -18q-45 0 -86.5 11.5t-79.5 25.5l-12 -10q-15 -14 -40 -24.5t-48 -10.5q-32 0 -57 11.5t-42.5 30t-26.5 43.5t-9 52zM182 870q0 -6 7.5 -14t15.5 -8q14 0 20 11.5t11 21.5 q8 18 22.5 36.5t32.5 35.5t37.5 30.5t38.5 20.5q9 3 21.5 9.5t12.5 20.5q0 8 -8 15.5t-14 7.5q-23 0 -57 -20.5t-65 -49.5t-53 -61.5t-22 -55.5zM381 592q0 -86 0.5 -149t9 -103.5t28.5 -60t58 -19.5q47 0 66.5 50t19.5 147q0 105 -2 177.5t-11 117t-27 64.5t-50 20 q-31 0 -49.5 -14t-28 -44t-12 -76t-2.5 -110zM508 225q0 -8 8.5 -13t18.5 -5q7 0 19 6.5t24 17t21 23.5t9 25q0 9 -6.5 16.5t-15.5 7.5q-10 0 -16 -6.5t-9 -9.5q-10 -12 -19.5 -19t-17 -12.5t-12 -12t-4.5 -18.5zM668 1047q0 -14 4 -18.5t22 -4.5q8 0 20.5 8.5t12.5 18.5 q0 12 -8 17t-19 5q-4 0 -9.5 -3t-10.5 -7t-8.5 -8.5t-3.5 -7.5z" />
<glyph unicode="&#xf9;" horiz-adv-x="946" d="M104 340v614q0 32 12.5 57.5t33.5 43.5t47 27.5t53 9.5q30 0 55 -12.5t43.5 -32t28.5 -44.5t10 -51v-598q0 -42 26.5 -64t61.5 -22q15 0 30 6t27 16.5t19.5 23.5t7.5 28v612q0 32 12.5 57.5t32.5 43.5t45.5 27.5t52.5 9.5q30 0 55.5 -12.5t44.5 -32t29.5 -44.5t10.5 -51 v-598q-6 -45 -14.5 -89.5t-26.5 -82.5q-20 -40 -52.5 -73t-74.5 -57t-91.5 -37t-103.5 -13q-91 0 -161 30.5t-117.5 78.5t-72 108.5t-24.5 120.5zM145 1012q0 -11 8 -19t19 -8q1 0 12 8.5t24 19.5t23.5 21.5t10.5 14.5q0 8 -6.5 15t-14.5 7q-12 0 -25.5 -6.5t-25 -16 t-18.5 -19.5t-7 -17zM290.5 1358q0.5 7 0.5 16q0 27 10 49.5t26 38t34.5 24.5t35.5 9q27 0 47.5 -7t35 -16.5t23.5 -21t13 -20.5l72 -164q8 -17 8 -33q0 -29 -11 -52.5t-27.5 -40t-36.5 -25.5t-38 -9q-42 0 -71.5 21t-40.5 44l-76 170q-5 10 -4.5 17zM313 1411 q0 -5 6.5 -11.5t12.5 -6.5q11 0 14 4.5t6 9.5q4 7 10.5 11.5t13 9.5t11 11t4.5 15q0 6 -6 13.5t-12 7.5q-8 0 -18.5 -6t-19.5 -15.5t-15.5 -21t-6.5 -21.5zM520 242q0 -8 8 -15.5t11 -7.5q18 0 34 9.5t28.5 23t20 27.5t7.5 22t-8 17.5t-17 9.5q-12 0 -23 -15t-20 -26 q-12 -14 -26.5 -22t-14.5 -23zM600 1012q0 -11 8 -19t19 -8q1 0 12 8.5t23.5 19.5t23 21.5t10.5 14.5q0 8 -7 15t-15 7q-12 0 -25.5 -6.5t-24 -16t-17.5 -19.5t-7 -17z" />
<glyph unicode="&#xfa;" horiz-adv-x="946" d="M104 340v614q0 32 12.5 57.5t33.5 43.5t47 27.5t53 9.5q30 0 55 -12.5t43.5 -32t28.5 -44.5t10 -51v-598q0 -42 26.5 -64t61.5 -22q15 0 30 6t27 16.5t19.5 23.5t7.5 28v612q0 32 12.5 57.5t32.5 43.5t45.5 27.5t52.5 9.5q30 0 55.5 -12.5t44.5 -32t29.5 -44.5t10.5 -51 v-598q-6 -45 -14.5 -89.5t-26.5 -82.5q-20 -40 -52.5 -73t-74.5 -57t-91.5 -37t-103.5 -13q-91 0 -161 30.5t-117.5 78.5t-72 108.5t-24.5 120.5zM145 1012q0 -11 8 -19t19 -8q1 0 12 8.5t24 19.5t23.5 21.5t10.5 14.5q0 8 -6.5 15t-14.5 7q-12 0 -25.5 -6.5t-25 -16 t-18.5 -19.5t-7 -17zM297 1233q0 6 4 17t6 16l72 164q4 9 13 20.5t23.5 21t35 16.5t47.5 7q15 0 33 -8t34.5 -23.5t27.5 -38t11 -51.5q0 -9 -0.5 -16t-5.5 -17l-76 -170q-11 -23 -39.5 -44t-70.5 -21q-19 0 -39 9t-37 25.5t-28 40t-11 52.5zM391 1411q0 -5 6 -11.5t13 -6.5 q11 0 14 4.5t6 9.5q4 7 10.5 11.5t13 9.5t11 11t4.5 15q0 6 -6 13.5t-12 7.5q-8 0 -18.5 -6t-19.5 -15.5t-15.5 -21t-6.5 -21.5zM520 242q0 -8 8 -15.5t11 -7.5q18 0 34 9.5t28.5 23t20 27.5t7.5 22t-8 17.5t-17 9.5q-12 0 -23 -15t-20 -26q-12 -14 -26.5 -22t-14.5 -23z M600 1012q0 -11 8 -19t19 -8q1 0 12 8.5t23.5 19.5t23 21.5t10.5 14.5q0 8 -7 15t-15 7q-12 0 -25.5 -6.5t-24 -16t-17.5 -19.5t-7 -17z" />
<glyph unicode="&#xfb;" horiz-adv-x="946" d="M104 340v614q0 32 12.5 57.5t33.5 43.5t47 27.5t53 9.5q30 0 55 -12.5t43.5 -32t28.5 -44.5t10 -51v-598q0 -42 26.5 -64t61.5 -22q15 0 30 6t27 16.5t19.5 23.5t7.5 28v612q0 32 12.5 57.5t32.5 43.5t45.5 27.5t52.5 9.5q30 0 55.5 -12.5t44.5 -32t29.5 -44.5t10.5 -51 v-598q-6 -45 -14.5 -89.5t-26.5 -82.5q-20 -40 -52.5 -73t-74.5 -57t-91.5 -37t-103.5 -13q-91 0 -161 30.5t-117.5 78.5t-72 108.5t-24.5 120.5zM145 1012q0 -11 8 -19t19 -8q1 0 12 8.5t24 19.5t23.5 21.5t10.5 14.5q0 8 -6.5 15t-14.5 7q-12 0 -25.5 -6.5t-25 -16 t-18.5 -19.5t-7 -17zM184 1235q0 14 5 30t16 25l209 166q24 21 57 21q12 0 28.5 -5t30.5 -16l209 -166q14 -11 17.5 -24.5t3.5 -30.5q0 -32 -10.5 -56.5t-27.5 -40.5t-37.5 -24t-41.5 -8q-22 0 -39 4.5t-37 19.5l-96 72l-94 -72q-20 -15 -37 -19.5t-39 -4.5q-18 0 -39 7.5 t-38 23.5t-28.5 40t-11.5 58zM215 1266q0 -6 3 -10.5t7.5 -6.5t11 0t13.5 11q14 15 28.5 23t14.5 13q0 16 -4 20.5t-21 4.5q-15 -8 -26 -18q-10 -8 -18.5 -17.5t-8.5 -19.5zM520 242q0 -8 8 -15.5t11 -7.5q18 0 34 9.5t28.5 23t20 27.5t7.5 22t-8 17.5t-17 9.5 q-12 0 -23 -15t-20 -26q-12 -14 -26.5 -22t-14.5 -23zM600 1012q0 -11 8 -19t19 -8q1 0 12 8.5t23.5 19.5t23 21.5t10.5 14.5q0 8 -7 15t-15 7q-12 0 -25.5 -6.5t-24 -16t-17.5 -19.5t-7 -17z" />
<glyph unicode="&#xfc;" horiz-adv-x="946" d="M104 340v614q0 32 12.5 57.5t33.5 43.5t47 27.5t53 9.5q30 0 55 -12.5t43.5 -32t28.5 -44.5t10 -51v-598q0 -42 26.5 -64t61.5 -22q15 0 30 6t27 16.5t19.5 23.5t7.5 28v612q0 32 12.5 57.5t32.5 43.5t45.5 27.5t52.5 9.5q30 0 55.5 -12.5t44.5 -32t29.5 -44.5t10.5 -51 v-598q-6 -45 -14.5 -89.5t-26.5 -82.5q-20 -40 -52.5 -73t-74.5 -57t-91.5 -37t-103.5 -13q-91 0 -161 30.5t-117.5 78.5t-72 108.5t-24.5 120.5zM145 1012q0 -11 8 -19t19 -8q1 0 12 8.5t24 19.5t23.5 21.5t10.5 14.5q0 8 -6.5 15t-14.5 7q-12 0 -25.5 -6.5t-25 -16 t-18.5 -19.5t-7 -17zM168 1245q0 26 10.5 49t27.5 40t40.5 27.5t48.5 10.5t48.5 -10.5t41.5 -28t28.5 -40.5t10.5 -48q0 -24 -9 -46.5t-25.5 -39.5t-40.5 -27t-54 -10q-26 0 -49 11t-40.5 28.5t-27.5 39.5t-10 44zM199 1288q0 -11 7.5 -16.5t16.5 -5.5q6 0 15.5 7t18.5 16.5 t15.5 19t6.5 14.5q0 20 -12.5 22t-27.5 -6t-27.5 -22.5t-12.5 -28.5zM520 242q0 -8 8 -15.5t11 -7.5q18 0 34 9.5t28.5 23t20 27.5t7.5 22t-8 17.5t-17 9.5q-12 0 -23 -15t-20 -26q-12 -14 -26.5 -22t-14.5 -23zM532 1247q0 26 10.5 49t28 40t40.5 27.5t48 10.5 q26 0 49 -10.5t41 -28t28.5 -40.5t10.5 -48q0 -24 -9 -46.5t-25.5 -39.5t-40.5 -27t-54 -10q-25 0 -48 10.5t-40.5 28t-28 39.5t-10.5 45zM563 1288q0 -11 7.5 -15.5t17.5 -4.5q5 0 14.5 7t18.5 17t15.5 19.5t6.5 13.5q0 20 -12.5 22t-27.5 -6.5t-27.5 -23.5t-12.5 -29z M600 1012q0 -11 8 -19t19 -8q1 0 12 8.5t23.5 19.5t23 21.5t10.5 14.5q0 8 -7 15t-15 7q-12 0 -25.5 -6.5t-24 -16t-17.5 -19.5t-7 -17z" />
<glyph unicode="&#xfd;" />
<glyph unicode="&#xfe;" />
<glyph unicode="&#xff;" horiz-adv-x="981" d="M82 952q0 24 9.5 49t28 45t44.5 33t59 13q45 0 80 -22t49 -60l129 -338l170 364q11 25 44 40.5t71 15.5q33 0 59 -12.5t44.5 -32.5t28 -44.5t9.5 -48.5q0 -12 -4.5 -28t-9.5 -25l-473 -1079q-17 -40 -49 -62t-70 -22q-31 0 -58.5 10t-47.5 29t-31.5 44.5t-11.5 57.5 q0 13 2.5 28.5t7.5 26.5l170 388l-238 579q-3 9 -7.5 23t-4.5 28zM117 995q0 -7 4 -13.5t11.5 -8.5t17 1.5t20.5 16.5q15 20 25 26t10 19q0 21 -21 21q-12 0 -24 -6.5t-21.5 -16.5t-15.5 -20.5t-6 -18.5zM203 1245q0 26 10.5 49t27.5 40t40.5 27.5t48.5 10.5t48.5 -10.5 t41.5 -28t28.5 -40.5t10.5 -48q0 -24 -9 -46.5t-25.5 -39.5t-40.5 -27t-54 -10q-26 0 -49 11t-40.5 28.5t-27.5 39.5t-10 44zM233 1288q0 -11 8 -16.5t17 -5.5q5 0 14.5 7t18.5 16.5t15.5 19t6.5 14.5q0 20 -12.5 22t-27.5 -6t-27.5 -22.5t-12.5 -28.5zM567 1247 q0 26 10.5 49t28 40t40.5 27.5t48 10.5q26 0 49 -10.5t41 -28t28.5 -40.5t10.5 -48q0 -24 -9 -46.5t-25.5 -39.5t-40.5 -27t-54 -10q-25 0 -48 10.5t-40.5 28t-28 39.5t-10.5 45zM598 1288q0 -11 7.5 -15.5t17.5 -4.5q5 0 14.5 7t18.5 17t15.5 19.5t6.5 13.5q0 20 -12.5 22 t-27.5 -6.5t-27.5 -23.5t-12.5 -29zM657 995q0 -11 8 -16.5t19 -5.5q8 0 18 9.5t20 20.5q11 13 23 29q0 9 -4.5 19t-15.5 10q-12 0 -24.5 -7.5t-22 -18t-15.5 -22t-6 -18.5z" />
<glyph unicode="&#x152;" horiz-adv-x="1362" d="M52.5 757.5q-2.5 92.5 8.5 180t39 166t80 137t131.5 93t194.5 34.5q60 0 103.5 -18t72.5 -33q25 26 54 37.5t61 11.5h340q21 0 46 -8t47 -25.5t37 -44t15 -63.5q0 -39 -13.5 -69t-34.5 -50.5t-46 -30.5t-49 -10h-203v-205h160q38 0 65.5 -15.5t45.5 -38.5t27 -49.5 t9 -49.5q0 -32 -11.5 -59.5t-31.5 -47t-46.5 -30.5t-55.5 -11h-162v-258h227q31 0 57 -12t45.5 -32.5t30.5 -47t11 -55.5q0 -32 -13 -60t-34 -49t-46.5 -33t-50.5 -12h-350q-48 0 -79.5 15t-59.5 36q-40 -20 -83 -35.5t-95 -15.5q-102 0 -176.5 37t-127 110t-83.5 181 t-46 250q-8 87 -10.5 179.5zM137 1092q0 -10 5.5 -17.5t13.5 -7.5q18 0 25 13.5t14 27.5q21 50 64.5 90t105.5 68q12 6 28.5 13t16.5 13q0 11 -1.5 23t-17.5 12q-12 0 -35.5 -9.5t-49.5 -24.5t-51.5 -33t-41.5 -35q-15 -16 -29 -36t-24.5 -39t-16.5 -34.5t-6 -23.5zM346 772 q0 -112 2 -202.5t16 -154t45 -98t89 -34.5q90 0 125.5 84.5t35.5 259.5q0 121 -3.5 208.5t-19 144t-48.5 83.5t-92 27q-43 0 -72 -21.5t-46 -62t-24.5 -100t-7.5 -134.5zM553 256q0 -11 4 -20t10 -9q16 0 37 9t39.5 25t31.5 37.5t13 45.5q0 8 -5 13t-13 5q-14 0 -21.5 -4.5 t-13.5 -15.5q-4 -9 -7.5 -16.5t-9 -14.5t-15.5 -14.5t-28 -17.5q-5 -4 -13.5 -10.5t-8.5 -12.5zM709 1298q0 -9 6 -13.5t14 -4.5q13 5 23 10q8 5 15 11.5t7 13.5q0 11 -7.5 15.5t-16.5 4.5q-3 0 -10 -3t-14 -8t-12 -11.5t-5 -14.5z" />
<glyph unicode="&#x153;" horiz-adv-x="1290" d="M59 612q3 72 18 141t43 131.5t71 109.5t103 74.5t138 27.5q39 0 69 -8t54 -21t44.5 -29t39.5 -32q21 19 42 35.5t46 28.5t55 19t68 7q78 0 140.5 -28t106.5 -74t67.5 -105.5t23.5 -122.5q0 -51 -13.5 -96t-38.5 -81.5t-60 -63.5t-77 -42l-231 -80q-1 -38 7 -65t22 -44 t32 -24.5t37 -7.5q25 0 41 8t27.5 20t21.5 25.5t24 25.5t34.5 20t52.5 8q26 0 49 -10t41 -27.5t28.5 -40.5t10.5 -49q0 -39 -23 -82t-64 -79.5t-97.5 -60.5t-124.5 -24q-43 0 -77 8.5t-62.5 22.5t-53 32t-47.5 37q-23 -21 -45.5 -39.5t-48.5 -32t-57 -21t-72 -7.5 q-74 0 -139.5 33t-115 94.5t-78 150t-28.5 199.5q-7 67 -4 139zM133 881q0 -13 5.5 -22t19.5 -9q11 0 18 13.5t10 21.5q14 29 32 50t37 35t36.5 23t30.5 15q9 5 20.5 13t11.5 19q0 10 -5.5 16.5t-14.5 6.5q-24 0 -58.5 -21.5t-66 -51t-54 -60.5t-22.5 -49zM336 631 q0 -87 1.5 -153.5t10.5 -112t27 -68.5t51 -23q51 0 71.5 45.5t20.5 145.5q0 32 -2 99.5t-8 158.5q-3 56 -20 87.5t-60 31.5q-54 0 -73 -50.5t-19 -160.5zM453 250q0 -17 4 -24t28 -7q5 0 16 6t22.5 16t20.5 21.5t9 22.5t-6 17.5t-17 6.5t-14 -4.5t-6 -9.5q-6 -9 -15.5 -15.5 t-19 -11.5t-16 -9t-6.5 -9zM655 985q0 -9 5.5 -16.5t13.5 -7.5q10 0 19 5.5t15.5 13t10.5 14t4 7.5q0 8 -3.5 16.5t-12.5 8.5q-11 0 -20.5 -5.5t-16.5 -12.5t-11 -14t-4 -9zM764 655l123 43q15 5 27 23.5t12 34.5q0 37 -22.5 60.5t-51.5 23.5q-32 0 -49.5 -17t-26 -44 t-10 -59.5t-2.5 -64.5zM881 647q0 -14 14 -15t31 6.5t31 21t14 28.5q0 23 -25 23q-11 0 -21.5 -13t-29.5 -24q-11 -6 -12.5 -10t-1.5 -17zM983 299q0 -6 8.5 -11t16.5 -5q13 5 23 10q8 5 15 10.5t7 13.5q0 11 -8 17t-19 6q-1 0 -8 -2.5t-15 -7.5t-14 -12.5t-6 -18.5z" />
<glyph unicode="&#x178;" horiz-adv-x="1253" d="M178 1214q0 33 11.5 61t32 48.5t48.5 31.5t60 11q49 0 86 -23.5t49 -58.5l160 -434l168 434q15 40 47.5 61t79.5 21q41 0 71 -14.5t49 -36t28 -45.5t9 -43q0 -17 -1 -28.5t-7 -27.5l-293 -665v-359q0 -29 -12 -55.5t-32.5 -47t-48 -32.5t-58.5 -12q-29 0 -56 12t-48 32.5 t-33.5 47.5t-12.5 58v356l-278 641q-5 12 -12 31t-7 36zM219 1268q0 -6 6.5 -12.5t16.5 -6.5q4 0 15 8.5t23 19.5q14 12 31 28q0 11 -5 21.5t-17 10.5q-6 0 -18 -5t-23.5 -14t-20 -22t-8.5 -28zM319 1520q0 25 10.5 48t28 40.5t40.5 28t48 10.5q26 0 49 -10.5t41 -28.5 t28.5 -41t10.5 -47q0 -25 -9 -47t-25.5 -39t-40.5 -27t-54 -10q-26 0 -49 10.5t-40.5 28t-27.5 39.5t-10 45zM350 1563q0 -11 7.5 -16t17.5 -5q5 0 14.5 7t18.5 16.5t15.5 19t6.5 14.5q0 20 -12.5 22t-27.5 -6.5t-27.5 -23t-12.5 -28.5zM684 1522q0 25 10.5 48t28.5 40.5 t41.5 28t48.5 10.5q26 0 49 -10.5t40 -28.5t27.5 -41t10.5 -47q0 -25 -8.5 -47t-25 -39t-40 -27t-53.5 -10q-25 0 -48.5 10.5t-41.5 28t-28.5 39.5t-10.5 45zM717 1565q0 -11 6.5 -16t15.5 -5q6 0 15.5 7t19 16t16.5 18.5t7 13.5q0 20 -12.5 22.5t-27.5 -5.5t-27.5 -22.5 t-12.5 -28.5zM815 1268q0 -8 6.5 -14.5t16.5 -6.5q5 0 17 8.5t24 19.5q14 12 30 28q0 11 -2.5 21.5t-17.5 10.5q-13 0 -26.5 -6t-24 -16t-17 -22t-6.5 -23z" />
<glyph unicode="&#x2c6;" horiz-adv-x="725" d="M76 1501q0 14 4.5 30t15.5 25l207 164q29 23 59 23q11 0 27.5 -5t32.5 -18l209 -164q14 -11 17 -24.5t3 -30.5q0 -32 -10.5 -56.5t-27.5 -40.5t-37.5 -24t-40.5 -8q-23 0 -39.5 5.5t-36.5 19.5l-97 71l-94 -71q-20 -16 -36 -20.5t-39 -4.5q-19 0 -39.5 7.5t-37.5 23.5 t-28.5 40t-11.5 58zM106 1532q0 -11 10.5 -16.5t24.5 10.5q14 15 28.5 23.5t14.5 13.5q0 15 -3.5 19.5t-20.5 4.5q-15 -8 -27 -17q-11 -8 -19 -17.5t-8 -20.5z" />
<glyph unicode="&#x2dc;" horiz-adv-x="842" d="M82 1208q0 23 13.5 55t39.5 61t64 49t86 20q14 0 28 -5t25 -10l188 -75q5 -2 16.5 -6.5t22.5 -4.5q20 0 31 16.5t21.5 36t25 36t41.5 16.5q16 0 30 -7.5t24 -19.5t16 -28t6 -33q0 -34 -16.5 -69t-44 -64t-63.5 -47.5t-75 -18.5q-15 0 -36.5 4t-35.5 10l-149 66 q-7 3 -16.5 6.5t-19 6.5t-17.5 5t-11 2q-23 0 -33.5 -14.5t-20 -32.5t-23 -32.5t-41.5 -14.5q-12 0 -25.5 5t-25 16t-18.5 28.5t-7 42.5zM102 1235q0 -5 8.5 -9.5t14.5 -4.5q14 0 17.5 8t7.5 16q8 19 26.5 38.5t40.5 35.5q6 5 11 7.5t5 10.5t-3 18.5t-11 10.5q-12 0 -32 -14 t-39 -34.5t-32.5 -43t-13.5 -39.5zM631 1335q0 -5 4.5 -7.5t9.5 -2.5q2 0 8.5 5t13.5 12t12 13t5 7q0 16 -14 16q-6 0 -12.5 -4t-12.5 -10.5t-10 -14t-4 -14.5z" />
<glyph unicode="&#x2000;" horiz-adv-x="895" />
<glyph unicode="&#x2001;" horiz-adv-x="1790" />
<glyph unicode="&#x2002;" horiz-adv-x="895" />
<glyph unicode="&#x2003;" horiz-adv-x="1790" />
<glyph unicode="&#x2004;" horiz-adv-x="596" />
<glyph unicode="&#x2005;" horiz-adv-x="447" />
<glyph unicode="&#x2006;" horiz-adv-x="298" />
<glyph unicode="&#x2007;" horiz-adv-x="298" />
<glyph unicode="&#x2008;" horiz-adv-x="223" />
<glyph unicode="&#x2009;" horiz-adv-x="358" />
<glyph unicode="&#x200a;" horiz-adv-x="99" />
<glyph unicode="&#x2010;" horiz-adv-x="770" d="M82 672q0 34 12 61.5t31.5 47.5t43.5 31t48 11h332q34 0 60 -14.5t43.5 -36t26.5 -46t9 -44.5q0 -31 -10.5 -59.5t-28 -51t-41.5 -36t-51 -13.5h-332q-27 0 -53 12t-46 32.5t-32 47.5t-12 58zM119 729q0 -8 6 -16t12 -8q11 0 17.5 3.5t10.5 8.5t6.5 10.5t6.5 9.5 q4 3 10.5 6.5t13 8t11 9.5t4.5 11q0 20 -9 23.5t-28 3.5q-4 0 -14 -7t-20.5 -17.5t-18.5 -22.5t-8 -23z" />
<glyph unicode="&#x2011;" horiz-adv-x="770" d="M82 672q0 34 12 61.5t31.5 47.5t43.5 31t48 11h332q34 0 60 -14.5t43.5 -36t26.5 -46t9 -44.5q0 -31 -10.5 -59.5t-28 -51t-41.5 -36t-51 -13.5h-332q-27 0 -53 12t-46 32.5t-32 47.5t-12 58zM119 729q0 -8 6 -16t12 -8q11 0 17.5 3.5t10.5 8.5t6.5 10.5t6.5 9.5 q4 3 10.5 6.5t13 8t11 9.5t4.5 11q0 20 -9 23.5t-28 3.5q-4 0 -14 -7t-20.5 -17.5t-18.5 -22.5t-8 -23z" />
<glyph unicode="&#x2012;" horiz-adv-x="770" d="M82 672q0 34 12 61.5t31.5 47.5t43.5 31t48 11h332q34 0 60 -14.5t43.5 -36t26.5 -46t9 -44.5q0 -31 -10.5 -59.5t-28 -51t-41.5 -36t-51 -13.5h-332q-27 0 -53 12t-46 32.5t-32 47.5t-12 58zM119 729q0 -8 6 -16t12 -8q11 0 17.5 3.5t10.5 8.5t6.5 10.5t6.5 9.5 q4 3 10.5 6.5t13 8t11 9.5t4.5 11q0 20 -9 23.5t-28 3.5q-4 0 -14 -7t-20.5 -17.5t-18.5 -22.5t-8 -23z" />
<glyph unicode="&#x2013;" horiz-adv-x="1085" d="M82 672q0 34 12.5 58.5t32 40.5t43.5 24t47 8h647q34 0 60 -11.5t44 -29t27 -39t9 -41.5q0 -31 -10.5 -56.5t-28.5 -44t-42 -28.5t-51 -10h-647q-28 0 -54 8.5t-45.5 25t-31.5 40.5t-12 55zM119 707q0 -8 6 -15.5t12 -7.5q11 0 17.5 3.5t10.5 8.5t6.5 10t6.5 9 q4 3 10.5 6.5t13 7.5t11 9.5t4.5 11.5q0 20 -9 23t-28 3q-4 0 -14.5 -7t-20.5 -17t-18 -22t-8 -23z" />
<glyph unicode="&#x2014;" horiz-adv-x="1325" d="M82 672q0 34 12.5 58.5t32 40.5t43.5 24t47 8h887q34 0 60 -11.5t43.5 -29.5t26.5 -39.5t9 -40.5q0 -31 -10.5 -56.5t-28 -44t-41.5 -28.5t-51 -10h-887q-28 0 -54 8.5t-45.5 25t-31.5 40.5t-12 55zM119 707q0 -8 6 -15.5t12 -7.5q11 0 17.5 3.5t10.5 8.5t6.5 10t6.5 9 q4 3 10.5 6.5t13 7.5t11 9.5t4.5 11.5q0 20 -9 23t-28 3q-4 0 -14.5 -7t-20.5 -17t-18 -22t-8 -23z" />
<glyph unicode="&#x2018;" horiz-adv-x="514" d="M82 1141q0 12 0.5 20t3.5 21l57 217q4 14 16.5 31.5t30.5 33.5t41 26.5t48 10.5q37 0 65.5 -13.5t48 -33t29.5 -42t10 -40.5q0 -12 1.5 -20t-1.5 -21l-61 -227q-6 -19 -20 -37t-32 -32t-37.5 -22.5t-35.5 -8.5q-42 0 -72.5 14t-51 35t-30.5 45t-10 43zM178 1411 q0 -9 5.5 -15.5t15.5 -6.5q8 0 13 3.5t9.5 8.5t8.5 10.5t10 9.5q6 5 19 13t13 16q0 13 -2 19.5t-6.5 9t-11 2.5h-14.5q-3 0 -13 -6.5t-20.5 -16.5t-18.5 -22.5t-8 -24.5z" />
<glyph unicode="&#x2019;" horiz-adv-x="514" d="M82 1141q0 12 0.5 20t3.5 21l57 217q4 14 16.5 31.5t30.5 33.5t41 26.5t48 10.5q37 0 65.5 -13.5t48 -33t29.5 -42t10 -40.5q0 -12 1.5 -20t-1.5 -21l-61 -227q-6 -19 -20 -37t-32 -32t-37.5 -22.5t-35.5 -8.5q-42 0 -72.5 14t-51 35t-30.5 45t-10 43zM178 1411 q0 -9 5.5 -15.5t15.5 -6.5q8 0 13 3.5t9.5 8.5t8.5 10.5t10 9.5q6 5 19 13t13 16q0 13 -2 19.5t-6.5 9t-11 2.5h-14.5q-3 0 -13 -6.5t-20.5 -16.5t-18.5 -22.5t-8 -24.5z" />
<glyph unicode="&#x201a;" horiz-adv-x="459" d="M82 -2v223q0 10 3.5 23.5t9.5 27t14.5 27t17.5 23.5q29 30 59 35t62 5q19 0 41.5 -11t42 -29t32.5 -41.5t13 -49.5v-235q0 -17 -8 -40.5t-26 -45t-48 -36.5t-74 -15q-20 0 -44 9.5t-45 27.5t-35.5 44t-14.5 58zM111 260q0 -17 3 -25t23 -8q6 0 10.5 5t8 12t6.5 13.5 t6 10.5q3 5 14 15.5t11 21.5q0 9 -7 18t-16 9q-13 0 -24 -10t-18.5 -22.5t-12 -24t-4.5 -15.5z" />
<glyph unicode="&#x201c;" horiz-adv-x="838" d="M82 1141q0 12 0.5 20t3.5 21l57 217q4 14 16.5 31.5t30.5 33.5t41 26.5t48 10.5q37 0 65.5 -13.5t48 -33t29.5 -42t10 -40.5q0 -12 1.5 -20t-1.5 -21l-61 -227q-6 -19 -20 -37t-32 -32t-37.5 -22.5t-35.5 -8.5q-42 0 -72.5 14t-51 35t-30.5 45t-10 43zM178 1411 q0 -9 5.5 -15.5t15.5 -6.5q8 0 13 3.5t9.5 8.5t8.5 10.5t10 9.5q6 5 19 13t13 16q0 13 -2 19.5t-6.5 9t-11 2.5h-14.5q-3 0 -13 -6.5t-20.5 -16.5t-18.5 -22.5t-8 -24.5zM406 1141q0 12 0.5 20t3.5 21l57 217q4 14 16 31.5t30 33.5t41 26.5t48 10.5q38 0 66.5 -13.5 t48 -33.5t29.5 -42t10 -40q0 -12 1.5 -20t-1.5 -21l-62 -227q-5 -19 -19.5 -37t-32.5 -32t-37.5 -22.5t-35.5 -8.5q-41 0 -71.5 14t-51 35t-30.5 45t-10 43zM502 1411q0 -8 5.5 -15t14.5 -7q16 0 23 11.5t18 20.5q6 5 19.5 13t13.5 16q0 13 -2 19.5t-6.5 9t-11 2.5h-15.5 q-3 0 -12.5 -6.5t-20 -16.5t-18.5 -22.5t-8 -24.5z" />
<glyph unicode="&#x201d;" horiz-adv-x="838" d="M82 1141q0 12 0.5 20t3.5 21l57 217q4 14 16.5 31.5t30.5 33.5t41 26.5t48 10.5q37 0 65.5 -13.5t48 -33t29.5 -42t10 -40.5q0 -12 1.5 -20t-1.5 -21l-61 -227q-6 -19 -20 -37t-32 -32t-37.5 -22.5t-35.5 -8.5q-42 0 -72.5 14t-51 35t-30.5 45t-10 43zM178 1411 q0 -9 5.5 -15.5t15.5 -6.5q8 0 13 3.5t9.5 8.5t8.5 10.5t10 9.5q6 5 19 13t13 16q0 13 -2 19.5t-6.5 9t-11 2.5h-14.5q-3 0 -13 -6.5t-20.5 -16.5t-18.5 -22.5t-8 -24.5zM406 1141q0 12 0.5 20t3.5 21l57 217q4 14 16 31.5t30 33.5t41 26.5t48 10.5q38 0 66.5 -13.5 t48 -33.5t29.5 -42t10 -40q0 -12 1.5 -20t-1.5 -21l-62 -227q-5 -19 -19.5 -37t-32.5 -32t-37.5 -22.5t-35.5 -8.5q-41 0 -71.5 14t-51 35t-30.5 45t-10 43zM502 1411q0 -8 5.5 -15t14.5 -7q16 0 23 11.5t18 20.5q6 5 19.5 13t13.5 16q0 13 -2 19.5t-6.5 9t-11 2.5h-15.5 q-3 0 -12.5 -6.5t-20 -16.5t-18.5 -22.5t-8 -24.5z" />
<glyph unicode="&#x201e;" horiz-adv-x="776" d="M82 -2v223q0 10 3.5 23.5t9.5 27t14.5 27t17.5 23.5q29 30 59 35t62 5q19 0 41.5 -11t42 -29t32.5 -41.5t13 -49.5v-235q0 -17 -8 -40.5t-26 -45t-48 -36.5t-74 -15q-20 0 -44 9.5t-45 27.5t-35.5 44t-14.5 58zM111 260q0 -17 3 -25t23 -8q6 0 10.5 5t8 12t6.5 13.5 t6 10.5q3 5 14 15.5t11 21.5q0 9 -7 18t-16 9q-13 0 -24 -10t-18.5 -22.5t-12 -24t-4.5 -15.5zM399 -2v223q0 10 3.5 23.5t10 27t14.5 27t17 23.5q29 30 59 35t62 5q19 0 41.5 -11t42 -29t32.5 -41.5t13 -49.5v-235q0 -17 -8 -40.5t-26 -45t-47.5 -36.5t-73.5 -15 q-20 0 -44.5 9.5t-45.5 27.5t-35.5 44t-14.5 58zM428 260q0 -17 3.5 -25t23.5 -8q6 0 10.5 5t7.5 12t6 13.5t6 10.5q3 5 14 15.5t11 21.5q0 9 -6.5 18t-16.5 9q-13 0 -23.5 -10t-18.5 -22.5t-12.5 -24t-4.5 -15.5z" />
<glyph unicode="&#x2022;" horiz-adv-x="1024" d="M240 590q0 65 22.5 116t60.5 86t87.5 53.5t103.5 18.5q51 0 99.5 -17t87 -51.5t62 -86t23.5 -119.5q0 -57 -21.5 -107t-58.5 -87.5t-87 -59t-107 -21.5q-51 0 -100 23.5t-87.5 62.5t-61.5 88.5t-23 100.5z" />
<glyph unicode="&#x2026;" horiz-adv-x="1147" d="M82 150q0 31 12 58.5t32 48t47.5 32.5t57.5 12t57.5 -12t48.5 -33t33.5 -48.5t12.5 -57.5q0 -31 -12.5 -58.5t-33.5 -48t-48.5 -32t-57.5 -11.5q-31 0 -58.5 12t-47.5 33t-31.5 48t-11.5 57zM115 203q0 -16 10 -19.5t18 -3.5q4 0 9.5 5t11.5 11.5t12.5 14t13.5 12.5 q10 8 11.5 11t1.5 16q0 8 -8 12t-19 4q-6 0 -16.5 -6.5t-20 -16.5t-17 -21t-7.5 -19zM424 150q0 31 12 58.5t32.5 48t47.5 32.5t57 12t57.5 -12t48.5 -33t33.5 -48.5t12.5 -57.5q0 -31 -12.5 -58.5t-33.5 -48t-48.5 -32t-57.5 -11.5t-57.5 12t-47.5 33t-32 48t-12 57z M457 203q0 -17 10 -20t18 -3q4 0 9.5 5t11.5 11.5t12.5 14t13.5 12.5q10 8 11.5 11t1.5 16q0 8 -9 12t-20 4q-7 0 -17 -6.5t-19.5 -16.5t-16 -21t-6.5 -19zM764 150q0 31 12 58.5t33 48t48.5 32.5t57.5 12t57 -12t48 -32.5t33 -48t12 -58.5t-12.5 -58.5t-33.5 -48t-48 -32 t-56 -11.5q-31 0 -59 12.5t-48 33.5t-32 48t-12 56zM799 203q0 -17 10 -20t18 -3q4 0 9 5t11 11.5t12 14t13 12.5q10 8 12.5 11t2.5 16q0 8 -9 12t-20 4q-6 0 -16 -6.5t-19.5 -16.5t-16.5 -21t-7 -19z" />
<glyph unicode="&#x202f;" horiz-adv-x="358" />
<glyph unicode="&#x2039;" horiz-adv-x="575" d="M82 692q0 3 1.5 9.5l3 13l3 13t2.5 9.5l115 340q6 18 19.5 34t31.5 28t38.5 19t41.5 7q35 0 63.5 -13t49 -34t32 -47t11.5 -51q0 -11 -0.5 -18.5t-4.5 -18.5l-98 -291l101 -315q5 -13 3.5 -23t-1.5 -22q0 -18 -11 -40.5t-32 -41.5t-51 -32t-68 -13q-19 0 -39 7t-38 19.5 t-31.5 30.5t-20.5 39l-111 336q-3 9 -6.5 27.5t-3.5 27.5zM231 1071q0 -12 8.5 -18t22.5 -6q5 0 10.5 5t12 12t13 14.5t13.5 11.5q5 2 15 6.5t10 13.5q0 12 -5.5 21.5t-19.5 9.5q-8 0 -21.5 -7.5t-26.5 -18.5t-22.5 -23t-9.5 -21z" />
<glyph unicode="&#x203a;" horiz-adv-x="575" d="M80.5 360.5q-1.5 10.5 3.5 22.5l102 313l-98 291q-3 11 -4.5 19.5t-1.5 19.5q0 25 11.5 50.5t32 46t49.5 33.5t65 13q20 0 40.5 -6.5t38.5 -18t32 -27.5t20 -36l112 -340q3 -8 7 -23t4 -22q0 -9 -4 -27t-7 -26l-108 -338q-7 -21 -20.5 -38t-30.5 -29.5t-37 -19.5t-41 -7 q-37 0 -67.5 12.5t-52 31t-33 41t-11.5 42.5q0 12 -1.5 22.5zM121 1071q0 -24 31 -24q5 0 10.5 5t11.5 12t13 14.5t14 11.5q5 2 14.5 7t9.5 13q0 12 -5 21.5t-19 9.5q-9 0 -22.5 -7.5t-26 -18.5t-22 -23t-9.5 -21z" />
<glyph unicode="&#x205f;" horiz-adv-x="447" />
<glyph unicode="&#x20ac;" horiz-adv-x="1139" d="M104 680q0 63 37 101t109 57h18q0 42 2.5 81t10 77.5t23 77.5t40.5 81q29 48 69.5 87.5t88 67.5t99.5 43t104 15q74 0 135 -19.5t104 -62.5q40 -41 50 -81t-1 -73t-38 -57t-61.5 -34t-71.5 -3.5t-68 33.5q-11 9 -25.5 14t-34.5 5q-63 0 -100 -65.5t-45 -188.5l194 -2 q30 0 56 -13.5t45 -35t30 -47.5t11 -52q0 -29 -11 -55.5t-30.5 -47t-44.5 -32.5t-54 -12l-200 -2q0 -66 11.5 -115.5t32 -82.5t49 -49t62.5 -16q36 0 62 13.5t51 44.5q32 38 62.5 51t56 11.5t44.5 -11.5t28 -18q21 -18 34.5 -48t14 -66t-14.5 -74.5t-51 -74.5 q-51 -48 -123 -77t-166 -29q-67 0 -128 20.5t-112.5 58t-91 90.5t-63.5 118q-20 54 -27.5 116.5t-9.5 135.5h-26q-68 18 -102 55t-34 90zM150 731q0 -6 3.5 -12t10 -8.5t16 1.5t21.5 19q5 7 12 12.5t13.5 9.5t11 7t4.5 6q0 9 -5 21t-16 12q-7 0 -19.5 -6t-23.5 -15.5 t-19.5 -22t-8.5 -24.5zM342 1083q0 -8 8 -12t21 -4q5 0 11.5 11t8.5 16q37 69 90 115t107 69q8 3 15 5.5t7 10.5q0 7 -1.5 18t-10.5 11q-24 0 -52.5 -13t-56.5 -34.5t-55 -48t-47 -53t-32.5 -50.5t-12.5 -41zM819 305q0 -8 6 -14t13 -6q10 0 22.5 7t23.5 15q13 10 27 21 q0 11 -2.5 17t-7 8.5t-10 2.5h-12.5q-5 0 -15 -6t-20 -14t-17.5 -17t-7.5 -14z" />
<glyph unicode="&#x2122;" horiz-adv-x="1225" d="M109 1303q0 29 18.5 46t38.5 17h229q15 0 26 -6t18.5 -15t11.5 -18.5t4 -17.5q0 -26 -16.5 -47t-39.5 -21h-55v-383q0 -29 -18 -45t-45 -16q-31 0 -47.5 19.5t-16.5 41.5v383h-49q-22 0 -40.5 18t-18.5 44zM578 860v443q0 29 18.5 45t40.5 16q17 0 33 -7.5t22 -21.5 l127 -252l127 250q8 16 22 23.5t31 7.5q28 0 46 -19t18 -40v-445q0 -32 -16.5 -47.5t-45.5 -15.5q-30 0 -47.5 15.5t-17.5 47.5v193l-57 -101l22 -43q2 -5 2 -8.5v-9.5q0 -22 -15.5 -42t-47.5 -20q-19 0 -32.5 10t-23.5 27l-82 181v-187q0 -63 -61 -63q-63 0 -63 63z" />
<glyph unicode="&#x25fc;" horiz-adv-x="1090" d="M0 0v1090h1090v-1090h-1090z" />
<glyph unicode="&#xfb01;" horiz-adv-x="1055" d="M104 152v868q0 66 26.5 129.5t75.5 113t118.5 79.5t156.5 30q86 0 127 -36.5t41 -90.5q0 -33 -10.5 -58t-27 -42.5t-37 -26.5t-39.5 -10q-23 -1 -49 -1t-48 -7.5t-36.5 -27t-14.5 -58.5q0 -19 -1 -31t1 -31h133q30 0 54 -11.5t41.5 -30.5t26.5 -43t9 -50q0 -30 -12.5 -55 t-31.5 -42.5t-42.5 -27.5t-46.5 -10h-131v-539q0 -28 -11 -54t-30 -45.5t-44 -31.5t-54 -12q-25 0 -50.5 9t-46.5 27.5t-34 47.5t-13 68zM156 1141q0 -11 12.5 -14t21.5 -3q5 0 11 9t8 14q23 49 57.5 78.5t77.5 48.5q9 3 19 11.5t10 21.5q0 8 -6.5 15t-14.5 7 q-16 0 -36.5 -10.5t-42.5 -27t-43 -37.5t-37.5 -41.5t-26.5 -39.5t-10 -32zM668 147v820q0 25 9.5 47.5t27 39t41.5 26.5t53 10q35 0 63 -11.5t47.5 -30.5t30 -42.5t10.5 -47.5v-811q0 -32 -11.5 -59t-31.5 -46.5t-45.5 -30.5t-54.5 -11q-28 0 -53 10t-44 29t-30.5 46.5 t-11.5 61.5zM668 1241q0 29 11.5 54.5t30.5 45.5t45 31.5t54 11.5t53.5 -12t45 -32t31 -45.5t11.5 -53.5t-9.5 -52.5t-28 -43t-44.5 -29t-59 -10.5q-29 0 -55 11.5t-45 30.5t-30 43.5t-11 49.5zM698 1001q0 -11 7 -16.5t18 -5.5q5 0 15 7.5t20 17t17 19.5t7 15 q0 22 -13 24.5t-29 -6.5t-29 -24.5t-13 -30.5zM700 1288q0 -11 8 -15.5t19 -4.5q5 0 14.5 7.5t19 17t16.5 19.5t7 15q0 21 -13 23.5t-29 -6.5t-29 -25t-13 -31z" />
<glyph unicode="&#xfb02;" horiz-adv-x="1067" d="M104 152v868q0 66 26.5 129.5t75.5 113t118.5 79.5t156.5 30q86 0 127 -36.5t41 -90.5q0 -33 -10.5 -58t-27 -42.5t-37 -26.5t-39.5 -10q-23 -1 -49 -1t-48 -7.5t-36.5 -27t-14.5 -58.5q0 -19 -1 -31t1 -31h133q30 0 54 -11.5t41.5 -30.5t26.5 -43t9 -50q0 -30 -12.5 -55 t-31.5 -42.5t-42.5 -27.5t-46.5 -10h-131v-539q0 -28 -11 -54t-30 -45.5t-44 -31.5t-54 -12q-25 0 -50.5 9t-46.5 27.5t-34 47.5t-13 68zM156 1141q0 -11 12.5 -14t21.5 -3q5 0 11 9t8 14q23 49 57.5 78.5t77.5 48.5q9 3 19 11.5t10 21.5q0 8 -6.5 15t-14.5 7 q-16 0 -36.5 -10.5t-42.5 -27t-43 -37.5t-37.5 -41.5t-26.5 -39.5t-10 -32zM678 150v1087q0 26 10.5 51t29 44t44 30.5t55.5 11.5q28 0 54 -11.5t46 -30t32 -42t12 -47.5v-1110q0 -29 -13 -53.5t-33.5 -42t-46 -27.5t-51.5 -10q-22 0 -46.5 8.5t-45 26.5t-34 46.5 t-13.5 68.5zM717 1284q0 -7 3.5 -14t10 -10.5t15.5 -0.5t20 17q6 7 13 11t12.5 7.5t9.5 8.5t4 14t-7.5 16.5t-15.5 7.5q-16 0 -28 -7.5t-20.5 -17t-12.5 -19t-4 -13.5z" />
</font>
</defs>
</svg>
